Pliska-Italic.ufo
<glyph name="quotedbl" format="1">
  <advance width="419"/>
  <unicode hex="0022"/>
  <outline>
    <contour>
      <point x="344" y="421" type="curve"/>
      <point x="323" y="421" type="line"/>
      <point x="331" y="523"/>
      <point x="340" y="600"/>
      <point x="346" y="625" type="curve" smooth="yes"/>
      <point x="351" y="647"/>
      <point x="376" y="666"/>
      <point x="400" y="666" type="curve" smooth="yes"/>
      <point x="418" y="666"/>
      <point x="432" y="653"/>
      <point x="432" y="637" type="curve" smooth="yes"/>
      <point x="432" y="621"/>
      <point x="401" y="545"/>
    </contour>
    <contour>
      <point x="165" y="421" type="curve"/>
      <point x="144" y="421" type="line"/>
      <point x="152" y="523"/>
      <point x="161" y="600"/>
      <point x="167" y="625" type="curve" smooth="yes"/>
      <point x="172" y="647"/>
      <point x="197" y="666"/>
      <point x="222" y="666" type="curve" smooth="yes"/>
      <point x="239" y="666"/>
      <point x="253" y="653"/>
      <point x="253" y="637" type="curve" smooth="yes"/>
      <point x="253" y="621"/>
      <point x="223" y="547"/>
    </contour>
  </outline>
</glyph>
<glyph name="comma" format="1">
  <advance width="250"/>
  <unicode hex="002C"/>
  <outline>
    <contour>
      <point x="5" y="-129" type="curve"/>
      <point x="-4" y="-112" type="line"/>
      <point x="48" y="-77"/>
      <point x="71" y="-50"/>
      <point x="71" y="-23" type="curve" smooth="yes"/>
      <point x="71" y="-13"/>
      <point x="66" y="-5"/>
      <point x="51" y="9" type="curve" smooth="yes"/>
      <point x="32" y="26"/>
      <point x="26" y="37"/>
      <point x="26" y="54" type="curve" smooth="yes"/>
      <point x="26" y="81"/>
      <point x="48" y="101"/>
      <point x="77" y="101" type="curve" smooth="yes"/>
      <point x="110" y="101"/>
      <point x="135" y="70"/>
      <point x="135" y="30" type="curve" smooth="yes"/>
      <point x="135" y="-26"/>
      <point x="89" y="-82"/>
    </contour>
  </outline>
</glyph>
<glyph name="zero" format="1">
  <advance width="500"/>
  <unicode hex="0030"/>
  <outline>
    <contour>
      <point x="111" y="156" type="curve" smooth="yes"/>
      <point x="111" y="40"/>
      <point x="166" y="21"/>
      <point x="198" y="21" type="curve" smooth="yes"/>
      <point x="332" y="21"/>
      <point x="418" y="341"/>
      <point x="418" y="516" type="curve" smooth="yes"/>
      <point x="418" y="546"/>
      <point x="418" y="648"/>
      <point x="332" y="648" type="curve" smooth="yes"/>
      <point x="183" y="648"/>
      <point x="111" y="253"/>
    </contour>
    <contour>
      <point x="497" y="426" type="curve" smooth="yes"/>
      <point x="497" y="228"/>
      <point x="361" y="-7"/>
      <point x="193" y="-7" type="curve" smooth="yes"/>
      <point x="89" y="-7"/>
      <point x="32" y="96"/>
      <point x="32" y="200" type="curve" smooth="yes"/>
      <point x="32" y="470"/>
      <point x="198" y="676"/>
      <point x="337" y="676" type="curve" smooth="yes"/>
      <point x="470" y="676"/>
      <point x="497" y="524"/>
    </contour>
  </outline>
</glyph>
<glyph name="five" format="1">
  <advance width="500"/>
  <unicode hex="0035"/>
  <outline>
    <contour>
      <point x="238" y="595" type="line"/>
      <point x="199" y="507" type="line"/>
      <point x="329" y="481"/>
      <point x="419" y="409"/>
      <point x="419" y="275" type="curve" smooth="yes"/>
      <point x="419" y="147"/>
      <point x="312" y="-7"/>
      <point x="117" y="-7" type="curve" smooth="yes"/>
      <point x="45" y="-7"/>
      <point x="15" y="21"/>
      <point x="15" y="49" type="curve" smooth="yes"/>
      <point x="15" y="78"/>
      <point x="36" y="90"/>
      <point x="55" y="90" type="curve" smooth="yes"/>
      <point x="100" y="90"/>
      <point x="125" y="35"/>
      <point x="179" y="35" type="curve" smooth="yes"/>
      <point x="277" y="35"/>
      <point x="350" y="146"/>
      <point x="350" y="233" type="curve" smooth="yes"/>
      <point x="350" y="386"/>
      <point x="247" y="408"/>
      <point x="131" y="433" type="curve"/>
      <point x="131" y="448" type="line"/>
      <point x="235" y="666" type="line"/>
      <point x="491" y="666" type="line"/>
      <point x="468" y="595" type="line"/>
    </contour>
  </outline>
</glyph>
<glyph name="seven" format="1">
  <advance width="500"/>
  <unicode hex="0037"/>
  <outline>
    <contour>
      <point x="537" y="656" type="line"/>
      <point x="149" y="-8" type="line"/>
      <point x="79" y="-8" type="line"/>
      <point x="446" y="590" type="line"/>
      <point x="444" y="593" type="line"/>
      <point x="222" y="593" type="line" smooth="yes"/>
      <point x="164" y="593"/>
      <point x="137" y="578"/>
      <point x="89" y="521" type="curve"/>
      <point x="75" y="530" type="line"/>
      <point x="156" y="666" type="line"/>
      <point x="531" y="666" type="line"/>
    </contour>
  </outline>
</glyph>
<glyph name="nine" format="1">
  <advance width="500"/>
  <unicode hex="0039"/>
  <outline>
    <contour>
      <point x="23" y="-17" type="curve"/>
      <point x="23" y="1" type="line"/>
      <point x="205" y="32"/>
      <point x="341" y="229"/>
      <point x="352" y="272" type="curve"/>
      <point x="348" y="274" type="line"/>
      <point x="308" y="248"/>
      <point x="264" y="229"/>
      <point x="220" y="229" type="curve" smooth="yes"/>
      <point x="135" y="229"/>
      <point x="69" y="296"/>
      <point x="69" y="415" type="curve" smooth="yes"/>
      <point x="69" y="552"/>
      <point x="192" y="676"/>
      <point x="309" y="676" type="curve" smooth="yes"/>
      <point x="412" y="676"/>
      <point x="492" y="602"/>
      <point x="492" y="454" type="curve" smooth="yes"/>
      <point x="492" y="252"/>
      <point x="324" y="19"/>
    </contour>
    <contour>
      <point x="157" y="412" type="curve" smooth="yes"/>
      <point x="157" y="380"/>
      <point x="161" y="275"/>
      <point x="261" y="275" type="curve" smooth="yes"/>
      <point x="292" y="275"/>
      <point x="348" y="292"/>
      <point x="376" y="335" type="curve" smooth="yes"/>
      <point x="401" y="374"/>
      <point x="417" y="476"/>
      <point x="417" y="503" type="curve" smooth="yes"/>
      <point x="417" y="542"/>
      <point x="417" y="650"/>
      <point x="318" y="650" type="curve" smooth="yes"/>
      <point x="205" y="650"/>
      <point x="157" y="505"/>
    </contour>
  </outline>
</glyph>
<glyph name="greater" format="1">
  <advance width="674"/>
  <unicode hex="003E"/>
  <outline>
    <contour>
      <point x="84" y="-10" type="line"/>
      <point x="84" y="62" type="line"/>
      <point x="504" y="253" type="line"/>
      <point x="84" y="444" type="line"/>
      <point x="84" y="516" type="line"/>
      <point x="592" y="286" type="line"/>
      <point x="592" y="220" type="line"/>
    </contour>
  </outline>
</glyph>
<glyph name="D" format="1">
  <advance width="721"/>
  <unicode hex="0044"/>
  <outline>
    <contour>
      <point x="700" y="387" type="curve" smooth="yes"/>
      <point x="700" y="133"/>
      <point x="477" y="0"/>
      <point x="245" y="0" type="curve" smooth="yes"/>
      <point x="-8" y="0" type="line"/>
      <point x="-8" y="16" type="line"/>
      <point x="47" y="24"/>
      <point x="58" y="36"/>
      <point x="73" y="90" type="curve" smooth="yes"/>
      <point x="196" y="532" type="line" smooth="yes"/>
      <point x="202" y="552"/>
      <point x="207" y="573"/>
      <point x="207" y="594" type="curve" smooth="yes"/>
      <point x="207" y="635"/>
      <point x="160" y="635"/>
      <point x="130" y="637" type="curve"/>
      <point x="130" y="653" type="line"/>
      <point x="408" y="653" type="line" smooth="yes"/>
      <point x="572" y="653"/>
      <point x="700" y="559"/>
    </contour>
    <contour>
      <point x="589" y="399" type="curve" smooth="yes"/>
      <point x="589" y="538"/>
      <point x="524" y="623"/>
      <point x="378" y="623" type="curve" smooth="yes"/>
      <point x="376.375" y="623"/>
      <point x="374.73" y="623.004"/>
      <point x="373.073" y="623.004" type="curve" smooth="yes"/>
      <point x="348.215" y="623.004"/>
      <point x="320.5" y="622.125"/>
      <point x="313" y="594" type="curve" smooth="yes"/>
      <point x="192" y="162" type="line" smooth="yes"/>
      <point x="186" y="141"/>
      <point x="170" y="89"/>
      <point x="170" y="69" type="curve" smooth="yes"/>
      <point x="170" y="30.9048"/>
      <point x="207.188" y="29.9977"/>
      <point x="236.645" y="29.9977" type="curve" smooth="yes"/>
      <point x="238.118" y="29.9977"/>
      <point x="239.571" y="30"/>
      <point x="241" y="30" type="curve" smooth="yes"/>
      <point x="454" y="30"/>
      <point x="589" y="194"/>
    </contour>
  </outline>
</glyph>
<glyph name="F" format="1">
  <advance width="610"/>
  <unicode hex="0046"/>
  <outline>
    <contour>
      <point x="320" y="325" type="curve" smooth="yes"/>
      <point x="298" y="325"/>
      <point x="276" y="326"/>
      <point x="239" y="328" type="curve"/>
      <point x="177" y="105" type="line" smooth="yes"/>
      <point x="171" y="83"/>
      <point x="168" y="68"/>
      <point x="168" y="60" type="curve" smooth="yes"/>
      <point x="168" y="30"/>
      <point x="186" y="19"/>
      <point x="244" y="16" type="curve"/>
      <point x="244" y="0" type="line"/>
      <point x="-8" y="0" type="line"/>
      <point x="-8" y="16" type="line"/>
      <point x="49" y="24"/>
      <point x="56" y="30"/>
      <point x="74" y="90" type="curve" smooth="yes"/>
      <point x="197" y="532" type="line" smooth="yes"/>
      <point x="204" y="556"/>
      <point x="208" y="581"/>
      <point x="208" y="596" type="curve" smooth="yes"/>
      <point x="208" y="625"/>
      <point x="196" y="631"/>
      <point x="131" y="637" type="curve"/>
      <point x="131" y="653" type="line"/>
      <point x="629" y="653" type="line"/>
      <point x="597" y="500" type="line"/>
      <point x="576" y="502" type="line"/>
      <point x="577" y="514"/>
      <point x="579" y="539"/>
      <point x="579" y="545" type="curve" smooth="yes"/>
      <point x="579" y="607"/>
      <point x="543" y="620"/>
      <point x="375" y="620" type="curve" smooth="yes"/>
      <point x="334" y="620"/>
      <point x="320" y="614"/>
      <point x="314" y="594" type="curve" smooth="yes"/>
      <point x="248" y="361" type="line"/>
      <point x="416" y="363"/>
      <point x="419" y="364"/>
      <point x="464" y="454" type="curve"/>
      <point x="482" y="449" type="line"/>
      <point x="406" y="215" type="line"/>
      <point x="389" y="220" type="line"/>
      <point x="395" y="251"/>
      <point x="397" y="263"/>
      <point x="397" y="279" type="curve" smooth="yes"/>
      <point x="397" y="316"/>
      <point x="383" y="325"/>
    </contour>
  </outline>
</glyph>
<glyph name="J" format="1">
  <advance width="443"/>
  <unicode hex="004A"/>
  <outline>
    <contour>
      <point x="491" y="653" type="line"/>
      <point x="491" y="637" type="line"/>
      <point x="434" y="629"/>
      <point x="427" y="623"/>
      <point x="409" y="563" type="curve" smooth="yes"/>
      <point x="306" y="192" type="line" smooth="yes"/>
      <point x="285" y="116"/>
      <point x="265" y="71"/>
      <point x="238" y="39" type="curve" smooth="yes"/>
      <point x="207" y="2"/>
      <point x="162" y="-18"/>
      <point x="111" y="-18" type="curve" smooth="yes"/>
      <point x="41" y="-18"/>
      <point x="-6" y="18"/>
      <point x="-6" y="70" type="curve" smooth="yes"/>
      <point x="-6" y="102"/>
      <point x="13" y="124"/>
      <point x="40" y="124" type="curve" smooth="yes"/>
      <point x="65" y="124"/>
      <point x="88" y="102"/>
      <point x="88" y="77" type="curve" smooth="yes"/>
      <point x="88" y="68" type="line" smooth="yes"/>
      <point x="87" y="62"/>
      <point x="87" y="58"/>
      <point x="87" y="53" type="curve" smooth="yes"/>
      <point x="87" y="26"/>
      <point x="98" y="13"/>
      <point x="122" y="13" type="curve" smooth="yes"/>
      <point x="146" y="13"/>
      <point x="160" y="28"/>
      <point x="171" y="67" type="curve" smooth="yes"/>
      <point x="302" y="532" type="line" smooth="yes"/>
      <point x="310" y="560"/>
      <point x="314" y="582"/>
      <point x="314" y="596" type="curve" smooth="yes"/>
      <point x="314" y="623"/>
      <point x="300" y="631"/>
      <point x="237" y="637" type="curve"/>
      <point x="237" y="653" type="line"/>
    </contour>
  </outline>
</glyph>
<glyph name="Q" format="1">
  <advance width="721"/>
  <unicode hex="0051"/>
  <outline>
    <contour>
      <point x="699" y="423" type="curve" smooth="yes"/>
      <point x="699" y="212"/>
      <point x="494" y="-16"/>
      <point x="279" y="-16" type="curve"/>
      <point x="225" y="-73" type="line"/>
      <point x="250" y="-72" type="line" smooth="yes"/>
      <point x="252.484" y="-71.9032"/>
      <point x="254.965" y="-71.8564"/>
      <point x="257.442" y="-71.8564" type="curve" smooth="yes"/>
      <point x="331.777" y="-71.8564"/>
      <point x="403.484" y="-114"/>
      <point x="478" y="-114" type="curve" smooth="yes"/>
      <point x="559" y="-114"/>
      <point x="598" y="-95"/>
      <point x="653" y="-38" type="curve"/>
      <point x="668" y="-49" type="line"/>
      <point x="618" y="-124"/>
      <point x="519" y="-182"/>
      <point x="428" y="-182" type="curve" smooth="yes"/>
      <point x="344" y="-182"/>
      <point x="265" y="-138"/>
      <point x="186" y="-138" type="curve" smooth="yes"/>
      <point x="146" y="-138"/>
      <point x="104" y="-148"/>
      <point x="69" y="-169" type="curve"/>
      <point x="59" y="-154" type="line"/>
      <point x="121" y="-109"/>
      <point x="178" y="-62"/>
      <point x="236" y="-12" type="curve"/>
      <point x="115" y="10"/>
      <point x="60" y="110"/>
      <point x="60" y="227" type="curve" smooth="yes"/>
      <point x="60" y="422"/>
      <point x="264" y="666"/>
      <point x="467" y="666" type="curve" smooth="yes"/>
      <point x="612" y="666"/>
      <point x="699" y="565"/>
    </contour>
    <contour>
      <point x="594" y="472" type="curve" smooth="yes"/>
      <point x="594" y="559"/>
      <point x="561" y="633"/>
      <point x="463" y="633" type="curve" smooth="yes"/>
      <point x="277" y="633"/>
      <point x="165" y="335"/>
      <point x="165" y="181" type="curve" smooth="yes"/>
      <point x="165" y="97"/>
      <point x="198" y="17"/>
      <point x="295" y="17" type="curve" smooth="yes"/>
      <point x="481" y="17"/>
      <point x="594" y="317"/>
    </contour>
  </outline>
</glyph>
<glyph name="V" format="1">
  <advance width="610"/>
  <unicode hex="0056"/>
  <outline>
    <contour>
      <point x="688" y="653" type="line"/>
      <point x="688" y="637" type="line"/>
      <point x="665" y="636"/>
      <point x="649" y="624"/>
      <point x="632" y="597" type="curve" smooth="yes"/>
      <point x="259" y="-18" type="line"/>
      <point x="240" y="-18" type="line"/>
      <point x="155" y="502" type="line" smooth="yes"/>
      <point x="134" y="627"/>
      <point x="132" y="630"/>
      <point x="76" y="637" type="curve"/>
      <point x="76" y="653" type="line"/>
      <point x="317" y="653" type="line"/>
      <point x="317" y="637" type="line"/>
      <point x="254" y="630"/>
      <point x="240" y="620"/>
      <point x="240" y="586" type="curve" smooth="yes"/>
      <point x="240" y="580"/>
      <point x="240" y="576"/>
      <point x="241" y="571" type="curve" smooth="yes"/>
      <point x="307" y="128" type="line"/>
      <point x="513" y="484" type="line" smooth="yes"/>
      <point x="546" y="541"/>
      <point x="565" y="584"/>
      <point x="565" y="603" type="curve" smooth="yes"/>
      <point x="565" y="622"/>
      <point x="547" y="632"/>
      <point x="502" y="637" type="curve"/>
      <point x="502" y="653" type="line"/>
    </contour>
  </outline>
</glyph>
<glyph name="Z" format="1">
  <advance width="555"/>
  <unicode hex="005A"/>
  <outline>
    <contour>
      <point x="606" y="653" type="line"/>
      <point x="606" y="639" type="line"/>
      <point x="123" y="36" type="line"/>
      <point x="284" y="36" type="line" smooth="yes"/>
      <point x="366" y="36"/>
      <point x="416" y="44"/>
      <point x="450" y="64" type="curve" smooth="yes"/>
      <point x="484" y="83"/>
      <point x="502" y="107"/>
      <point x="534" y="171" type="curve"/>
      <point x="553" y="168" type="line"/>
      <point x="499" y="0" type="line"/>
      <point x="-6" y="0" type="line"/>
      <point x="-6" y="14" type="line"/>
      <point x="473" y="617" type="line"/>
      <point x="302" y="617" type="line" smooth="yes"/>
      <point x="227" y="617"/>
      <point x="174" y="604"/>
      <point x="145" y="580" type="curve" smooth="yes"/>
      <point x="126" y="563"/>
      <point x="114" y="546"/>
      <point x="93" y="502" type="curve"/>
      <point x="74" y="507" type="line"/>
      <point x="120" y="653" type="line"/>
    </contour>
  </outline>
</glyph>
<glyph name="bracketleft" format="1">
  <advance width="388"/>
  <unicode hex="005B"/>
  <outline>
    <contour>
      <point x="384" y="636" type="line"/>
      <point x="322" y="636" type="line" smooth="yes"/>
      <point x="293" y="636"/>
      <point x="281" y="627"/>
      <point x="275" y="601" type="curve" smooth="yes"/>
      <point x="115" y="-77" type="line" smooth="yes"/>
      <point x="111" y="-93"/>
      <point x="111" y="-93"/>
      <point x="111" y="-98" type="curve" smooth="yes"/>
      <point x="111" y="-117"/>
      <point x="128" y="-126"/>
      <point x="160" y="-126" type="curve" smooth="yes"/>
      <point x="216" y="-126" type="line"/>
      <point x="209" y="-153" type="line"/>
      <point x="21" y="-153" type="line"/>
      <point x="218" y="663" type="line"/>
      <point x="391" y="663" type="line"/>
    </contour>
  </outline>
</glyph>
<glyph name="asciicircum" format="1">
  <advance width="421"/>
  <unicode hex="005E"/>
  <outline>
    <contour>
      <point x="68" y="301" type="line"/>
      <point x="0" y="301" type="line"/>
      <point x="181" y="666" type="line"/>
      <point x="241" y="666" type="line"/>
      <point x="422" y="301" type="line"/>
      <point x="354" y="301" type="line"/>
      <point x="211" y="590" type="line"/>
    </contour>
  </outline>
</glyph>
<glyph name="b" format="1">
  <advance width="500"/>
  <unicode hex="0062"/>
  <outline>
    <contour>
      <point x="473" y="320" type="curve" smooth="yes"/>
      <point x="473" y="166"/>
      <point x="310" y="-11"/>
      <point x="153" y="-11" type="curve" smooth="yes"/>
      <point x="110.034" y="-11"/>
      <point x="22.3969" y="9.96794"/>
      <point x="22.3969" y="41.4585" type="curve" smooth="yes"/>
      <point x="22.3969" y="42.9491"/>
      <point x="22.5932" y="44.4633"/>
      <point x="23" y="46" type="curve" smooth="yes"/>
      <point x="159" y="547" type="line" smooth="yes"/>
      <point x="164" y="565"/>
      <point x="174" y="595"/>
      <point x="174" y="614" type="curve" smooth="yes"/>
      <point x="174" y="640.273"/>
      <point x="150.713" y="643.258"/>
      <point x="128.593" y="643.258" type="curve" smooth="yes"/>
      <point x="122.087" y="643.258"/>
      <point x="115.682" y="643"/>
      <point x="110" y="643" type="curve"/>
      <point x="110" y="660" type="line"/>
      <point x="161" y="666"/>
      <point x="212" y="673"/>
      <point x="263" y="683" type="curve"/>
      <point x="268" y="678" type="line"/>
      <point x="166" y="297" type="line"/>
      <point x="168" y="296" type="line"/>
      <point x="209" y="361"/>
      <point x="269" y="441"/>
      <point x="354" y="441" type="curve" smooth="yes"/>
      <point x="426" y="441"/>
      <point x="473" y="391"/>
    </contour>
    <contour>
      <point x="388" y="307" type="curve" smooth="yes"/>
      <point x="388" y="354"/>
      <point x="367" y="392"/>
      <point x="315" y="392" type="curve" smooth="yes"/>
      <point x="200" y="392"/>
      <point x="109" y="140"/>
      <point x="109" y="45" type="curve" smooth="yes"/>
      <point x="109" y="19"/>
      <point x="133" y="12"/>
      <point x="156" y="12" type="curve" smooth="yes"/>
      <point x="277" y="12"/>
      <point x="388" y="198"/>
    </contour>
  </outline>
</glyph>
<glyph name="j" format="1">
  <advance width="277"/>
  <unicode hex="006A"/>
  <outline>
    <contour>
      <point x="277" y="602" type="curve" smooth="yes"/>
      <point x="277" y="575"/>
      <point x="256" y="554"/>
      <point x="229" y="554" type="curve" smooth="yes"/>
      <point x="202" y="554"/>
      <point x="181" y="575"/>
      <point x="181" y="602" type="curve" smooth="yes"/>
      <point x="181" y="629"/>
      <point x="202" y="650"/>
      <point x="229" y="650" type="curve" smooth="yes"/>
      <point x="256" y="650"/>
      <point x="277" y="629"/>
    </contour>
    <contour>
      <point x="-43" y="-141" type="curve" smooth="yes"/>
      <point x="-43" y="-160"/>
      <point x="-56" y="-162"/>
      <point x="-56" y="-173" type="curve" smooth="yes"/>
      <point x="-56" y="-180"/>
      <point x="-50" y="-184"/>
      <point x="-38" y="-184" type="curve" smooth="yes"/>
      <point x="2" y="-184"/>
      <point x="25" y="-140"/>
      <point x="59" y="-3" type="curve" smooth="yes"/>
      <point x="131" y="289" type="line" smooth="yes"/>
      <point x="142" y="332"/>
      <point x="147" y="359"/>
      <point x="147" y="369" type="curve" smooth="yes"/>
      <point x="147" y="379"/>
      <point x="144" y="388"/>
      <point x="140" y="392" type="curve" smooth="yes"/>
      <point x="134.929" y="396.226"/>
      <point x="122.715" y="400.452"/>
      <point x="108.188" y="400.452" type="curve" smooth="yes"/>
      <point x="105.526" y="400.452"/>
      <point x="102.787" y="400.31"/>
      <point x="100" y="400" type="curve" smooth="yes"/>
      <point x="73" y="400" type="line"/>
      <point x="73" y="416" type="line"/>
      <point x="104" y="417"/>
      <point x="154" y="425"/>
      <point x="243" y="441" type="curve"/>
      <point x="246" y="439" type="line"/>
      <point x="142" y="28" type="line" smooth="yes"/>
      <point x="102" y="-131"/>
      <point x="42" y="-207"/>
      <point x="-45" y="-207" type="curve" smooth="yes"/>
      <point x="-91" y="-207"/>
      <point x="-124" y="-181"/>
      <point x="-124" y="-146" type="curve" smooth="yes"/>
      <point x="-124" y="-122"/>
      <point x="-107" y="-104"/>
      <point x="-84" y="-104" type="curve" smooth="yes"/>
      <point x="-61" y="-104"/>
      <point x="-43" y="-120"/>
    </contour>
  </outline>
</glyph>
<glyph name="l" format="1">
  <advance width="277"/>
  <unicode hex="006C"/>
  <outline>
    <contour>
      <point x="228" y="123" type="curve"/>
      <point x="241" y="114" type="line"/>
      <point x="176" y="18"/>
      <point x="141" y="-11"/>
      <point x="89" y="-11" type="curve" smooth="yes"/>
      <point x="57" y="-11"/>
      <point x="40" y="9"/>
      <point x="40" y="45" type="curve" smooth="yes"/>
      <point x="40" y="50"/>
      <point x="42" y="60"/>
      <point x="45" y="71" type="curve" smooth="yes"/>
      <point x="182" y="599" type="line" smooth="yes"/>
      <point x="185" y="608"/>
      <point x="186" y="614"/>
      <point x="186" y="617" type="curve" smooth="yes"/>
      <point x="186" y="633"/>
      <point x="166" y="640"/>
      <point x="118" y="640" type="curve"/>
      <point x="118" y="656" type="line"/>
      <point x="177" y="663"/>
      <point x="215" y="670"/>
      <point x="274" y="683" type="curve"/>
      <point x="279" y="678" type="line"/>
      <point x="128" y="99" type="line" smooth="yes"/>
      <point x="127" y="97"/>
      <point x="117" y="60"/>
      <point x="117" y="50" type="curve" smooth="yes"/>
      <point x="117" y="39"/>
      <point x="122" y="32"/>
      <point x="132" y="32" type="curve" smooth="yes"/>
      <point x="150" y="32"/>
      <point x="169" y="47"/>
      <point x="201" y="89" type="curve" smooth="yes"/>
      <point x="210" y="101"/>
      <point x="219" y="112"/>
    </contour>
  </outline>
</glyph>
<glyph name="q" format="1">
  <advance width="500"/>
  <unicode hex="0071"/>
  <outline>
    <contour>
      <point x="391" y="-191" type="line"/>
      <point x="391" y="-209" type="line"/>
      <point x="150" y="-209" type="line"/>
      <point x="150" y="-193" type="line"/>
      <point x="215" y="-188"/>
      <point x="231" y="-180"/>
      <point x="244" y="-140" type="curve" smooth="yes"/>
      <point x="333" y="153" type="line"/>
      <point x="244" y="26"/>
      <point x="198" y="-11"/>
      <point x="127" y="-11" type="curve" smooth="yes"/>
      <point x="64" y="-11"/>
      <point x="25" y="34"/>
      <point x="25" y="105" type="curve" smooth="yes"/>
      <point x="25" y="257"/>
      <point x="186" y="441"/>
      <point x="318" y="441" type="curve" smooth="yes"/>
      <point x="359" y="441"/>
      <point x="379" y="425"/>
      <point x="395" y="379" type="curve"/>
      <point x="410" y="426" type="line"/>
      <point x="483" y="426" type="line"/>
      <point x="319" y="-151" type="line" smooth="yes"/>
      <point x="318" y="-155"/>
      <point x="317" y="-159"/>
      <point x="317" y="-162" type="curve" smooth="yes"/>
      <point x="317" y="-182"/>
      <point x="337" y="-191"/>
      <point x="374" y="-191" type="curve" smooth="yes"/>
    </contour>
    <contour>
      <point x="321" y="419" type="curve" smooth="yes"/>
      <point x="229" y="419"/>
      <point x="111" y="234"/>
      <point x="111" y="119" type="curve" smooth="yes"/>
      <point x="111" y="72"/>
      <point x="133" y="42"/>
      <point x="167" y="42" type="curve" smooth="yes"/>
      <point x="191" y="42"/>
      <point x="218" y="54"/>
      <point x="244" y="76" type="curve" smooth="yes"/>
      <point x="312" y="133"/>
      <point x="380" y="275"/>
      <point x="380" y="358" type="curve" smooth="yes"/>
      <point x="380" y="392"/>
      <point x="354" y="419"/>
    </contour>
  </outline>
</glyph>
<glyph name="braceleft" format="1">
  <advance width="399"/>
  <unicode hex="007B"/>
  <outline>
    <contour>
      <point x="407" y="687" type="curve"/>
      <point x="404" y="676" type="line"/>
      <point x="342" y="660"/>
      <point x="316" y="631"/>
      <point x="295" y="552" type="curve" smooth="yes"/>
      <point x="250" y="384" type="line" smooth="yes"/>
      <point x="228" y="301"/>
      <point x="202" y="272"/>
      <point x="137" y="255" type="curve"/>
      <point x="176" y="238"/>
      <point x="192" y="219"/>
      <point x="192" y="192" type="curve" smooth="yes"/>
      <point x="192" y="174"/>
      <point x="174" y="97"/>
      <point x="148" y="2" type="curve" smooth="yes"/>
      <point x="132" y="-58"/>
      <point x="126" y="-85"/>
      <point x="126" y="-100" type="curve" smooth="yes"/>
      <point x="126" y="-137"/>
      <point x="141" y="-155"/>
      <point x="179" y="-166" type="curve"/>
      <point x="176" y="-177" type="line"/>
      <point x="84" y="-174"/>
      <point x="51" y="-154"/>
      <point x="51" y="-99" type="curve" smooth="yes"/>
      <point x="51" y="-76"/>
      <point x="61" y="-30"/>
      <point x="83" y="45" type="curve" smooth="yes"/>
      <point x="105" y="121"/>
      <point x="117" y="174"/>
      <point x="117" y="198" type="curve" smooth="yes"/>
      <point x="117" y="227"/>
      <point x="104" y="241"/>
      <point x="65" y="255" type="curve"/>
      <point x="129" y="272"/>
      <point x="151" y="296"/>
      <point x="170" y="369" type="curve" smooth="yes"/>
      <point x="218" y="547" type="line" smooth="yes"/>
      <point x="249" y="653"/>
      <point x="294" y="687"/>
    </contour>
  </outline>
</glyph>
<glyph name="asciitilde" format="1">
  <advance width="540"/>
  <unicode hex="007E"/>
  <outline>
    <contour>
      <point x="448" y="303" type="curve"/>
      <point x="502" y="271" type="line"/>
      <point x="456" y="207"/>
      <point x="425" y="186"/>
      <point x="379" y="186" type="curve" smooth="yes"/>
      <point x="334" y="186"/>
      <point x="316" y="192"/>
      <point x="227" y="240" type="curve" smooth="yes"/>
      <point x="210" y="249"/>
      <point x="189" y="254"/>
      <point x="168" y="254" type="curve" smooth="yes"/>
      <point x="137" y="254"/>
      <point x="120" y="242"/>
      <point x="94" y="203" type="curve"/>
      <point x="40" y="235" type="line"/>
      <point x="86" y="299"/>
      <point x="117" y="320"/>
      <point x="163" y="320" type="curve" smooth="yes"/>
      <point x="208" y="320"/>
      <point x="226" y="314"/>
      <point x="315" y="266" type="curve" smooth="yes"/>
      <point x="332" y="257"/>
      <point x="353" y="252"/>
      <point x="374" y="252" type="curve" smooth="yes"/>
      <point x="405" y="252"/>
      <point x="422" y="264"/>
    </contour>
  </outline>
</glyph>
<glyph name="exclamdown" format="1">
  <advance width="388"/>
  <unicode hex="00A1"/>
  <outline>
    <contour>
      <point x="224" y="285" type="curve"/>
      <point x="241" y="281" type="line"/>
      <point x="205" y="118"/>
      <point x="188" y="29"/>
      <point x="169" y="-89" type="curve" smooth="yes"/>
      <point x="155" y="-172"/>
      <point x="135" y="-205"/>
      <point x="99" y="-205" type="curve" smooth="yes"/>
      <point x="73" y="-205"/>
      <point x="59" y="-188"/>
      <point x="59" y="-154" type="curve" smooth="yes"/>
      <point x="59" y="-124"/>
      <point x="69" y="-93"/>
      <point x="97" y="-31" type="curve" smooth="yes"/>
      <point x="135" y="52"/>
      <point x="171" y="140"/>
    </contour>
    <contour>
      <point x="270" y="474" type="curve" smooth="yes"/>
      <point x="299" y="474"/>
      <point x="321" y="451"/>
      <point x="321" y="419" type="curve" smooth="yes"/>
      <point x="321" y="393"/>
      <point x="296" y="368"/>
      <point x="269" y="368" type="curve" smooth="yes"/>
      <point x="240" y="368"/>
      <point x="215" y="393"/>
      <point x="215" y="422" type="curve" smooth="yes"/>
      <point x="215" y="450"/>
      <point x="240" y="474"/>
    </contour>
  </outline>
</glyph>
<glyph name="cent" format="1">
  <advance width="500"/>
  <unicode hex="00A2"/>
  <outline>
    <contour>
      <point x="414" y="560" type="line"/>
      <point x="372" y="440" type="line"/>
      <point x="407" y="437"/>
      <point x="423" y="432"/>
      <point x="442" y="418" type="curve" smooth="yes"/>
      <point x="460" y="404"/>
      <point x="472" y="382"/>
      <point x="472" y="360" type="curve" smooth="yes"/>
      <point x="472" y="334"/>
      <point x="452" y="314"/>
      <point x="424" y="314" type="curve" smooth="yes"/>
      <point x="400" y="314"/>
      <point x="385" y="328"/>
      <point x="385" y="352" type="curve" smooth="yes"/>
      <point x="385" y="361"/>
      <point x="387" y="368"/>
      <point x="394" y="381" type="curve" smooth="yes"/>
      <point x="398" y="390"/>
      <point x="400" y="395"/>
      <point x="400" y="400" type="curve" smooth="yes"/>
      <point x="400" y="412"/>
      <point x="388" y="419"/>
      <point x="365" y="420" type="curve"/>
      <point x="228" y="29" type="line"/>
      <point x="236" y="26"/>
      <point x="242" y="25"/>
      <point x="252" y="25" type="curve" smooth="yes"/>
      <point x="303" y="25"/>
      <point x="341" y="47"/>
      <point x="397" y="106" type="curve"/>
      <point x="413" y="96" type="line"/>
      <point x="353" y="21"/>
      <point x="299" y="-11"/>
      <point x="227" y="-11" type="curve" smooth="yes"/>
      <point x="222" y="-11"/>
      <point x="220" y="-11"/>
      <point x="215" y="-10" type="curve"/>
      <point x="168" y="-143" type="line"/>
      <point x="137" y="-143" type="line"/>
      <point x="185" y="-7" type="line"/>
      <point x="158" y="-1"/>
      <point x="144" y="5"/>
      <point x="129" y="17" type="curve" smooth="yes"/>
      <point x="96" y="42"/>
      <point x="77" y="86"/>
      <point x="77" y="140" type="curve" smooth="yes"/>
      <point x="77" y="240"/>
      <point x="135" y="339"/>
      <point x="228" y="399" type="curve" smooth="yes"/>
      <point x="265" y="423"/>
      <point x="290" y="432"/>
      <point x="342" y="440" type="curve"/>
      <point x="384" y="560" type="line"/>
    </contour>
    <contour>
      <point x="202" y="41" type="curve"/>
      <point x="334" y="417" type="line"/>
      <point x="282" y="402"/>
      <point x="254" y="380"/>
      <point x="219" y="328" type="curve" smooth="yes"/>
      <point x="184" y="275"/>
      <point x="163" y="203"/>
      <point x="163" y="139" type="curve" smooth="yes"/>
      <point x="163" y="94"/>
      <point x="175" y="64"/>
    </contour>
  </outline>
</glyph>
<glyph name="registered" format="1">
  <advance width="759"/>
  <unicode hex="00AE"/>
  <outline>
    <contour>
      <point x="221" y="496" type="curve"/>
      <point x="221" y="511" type="line"/>
      <point x="396" y="511" type="line" smooth="yes"/>
      <point x="466" y="511"/>
      <point x="510" y="475"/>
      <point x="510" y="420" type="curve" smooth="yes"/>
      <point x="510" y="373"/>
      <point x="483" y="338"/>
      <point x="431" y="317" type="curve"/>
      <point x="488" y="239" type="line" smooth="yes"/>
      <point x="519" y="197"/>
      <point x="543" y="170"/>
      <point x="563" y="155" type="curve"/>
      <point x="563" y="146" type="line"/>
      <point x="500" y="146" type="line" smooth="yes"/>
      <point x="483" y="146"/>
      <point x="466" y="165"/>
      <point x="431" y="225" type="curve" smooth="yes"/>
      <point x="414" y="255"/>
      <point x="404" y="271"/>
      <point x="380" y="307" type="curve"/>
      <point x="333" y="307" type="line"/>
      <point x="333" y="209" type="line" smooth="yes"/>
      <point x="333" y="166"/>
      <point x="333" y="166"/>
      <point x="381" y="161" type="curve"/>
      <point x="381" y="146" type="line"/>
      <point x="221" y="146" type="line"/>
      <point x="221" y="161" type="line"/>
      <point x="269" y="166"/>
      <point x="269" y="166"/>
      <point x="269" y="209" type="curve" smooth="yes"/>
      <point x="269" y="448" type="line" smooth="yes"/>
      <point x="269" y="491"/>
      <point x="269" y="491"/>
    </contour>
    <contour>
      <point x="333" y="492" type="line"/>
      <point x="333" y="325" type="line"/>
      <point x="375" y="325" type="line" smooth="yes"/>
      <point x="419" y="325"/>
      <point x="443" y="357"/>
      <point x="443" y="414" type="curve" smooth="yes"/>
      <point x="443" y="465"/>
      <point x="419" y="492"/>
      <point x="374" y="492" type="curve" smooth="yes"/>
    </contour>
    <contour>
      <point x="380" y="666" type="curve" smooth="yes"/>
      <point x="572" y="666"/>
      <point x="719" y="515"/>
      <point x="719" y="318" type="curve" smooth="yes"/>
      <point x="719" y="133"/>
      <point x="568" y="-18"/>
      <point x="382" y="-18" type="curve" smooth="yes"/>
      <point x="192" y="-18"/>
      <point x="41" y="133"/>
      <point x="41" y="323" type="curve" smooth="yes"/>
      <point x="41" y="513"/>
      <point x="192" y="666"/>
    </contour>
    <contour>
      <point x="381" y="624" type="curve" smooth="yes"/>
      <point x="226" y="624"/>
      <point x="96" y="487"/>
      <point x="96" y="323" type="curve" smooth="yes"/>
      <point x="96" y="160"/>
      <point x="226" y="24"/>
      <point x="381" y="24" type="curve" smooth="yes"/>
      <point x="534" y="24"/>
      <point x="664" y="160"/>
      <point x="664" y="319" type="curve" smooth="yes"/>
      <point x="664" y="488"/>
      <point x="538" y="624"/>
    </contour>
  </outline>
</glyph>
<glyph name="plusminus" format="1">
  <advance width="674"/>
  <unicode hex="00B1"/>
  <outline>
    <contour>
      <point x="86" y="0" type="line"/>
      <point x="86" y="66" type="line"/>
      <point x="590" y="66" type="line"/>
      <point x="590" y="0" type="line"/>
    </contour>
    <contour>
      <point x="305" y="348" type="line"/>
      <point x="305" y="568" type="line"/>
      <point x="371" y="568" type="line"/>
      <point x="371" y="348" type="line"/>
      <point x="590" y="348" type="line"/>
      <point x="590" y="282" type="line"/>
      <point x="371" y="282" type="line"/>
      <point x="371" y="122" type="line"/>
      <point x="305" y="122" type="line"/>
      <point x="305" y="282" type="line"/>
      <point x="86" y="282" type="line"/>
      <point x="86" y="348" type="line"/>
    </contour>
  </outline>
</glyph>
<glyph name="two.superior" format="1">
  <advance width="299"/>
  <unicode hex="00B2"/>
  <outline>
    <contour>
      <point x="213" y="676" type="curve" smooth="yes"/>
      <point x="274" y="676"/>
      <point x="324" y="630"/>
      <point x="324" y="575" type="curve" smooth="yes"/>
      <point x="324" y="540"/>
      <point x="312" y="523"/>
      <point x="225" y="439" type="curve" smooth="yes"/>
      <point x="111" y="329" type="line"/>
      <point x="113" y="324" type="line"/>
      <point x="221" y="324" type="line" smooth="yes"/>
      <point x="257" y="324"/>
      <point x="270" y="331"/>
      <point x="286" y="358" type="curve"/>
      <point x="297" y="350" type="line"/>
      <point x="264" y="271" type="line"/>
      <point x="33" y="271" type="line"/>
      <point x="33" y="289" type="line"/>
      <point x="166" y="419" type="line" smooth="yes"/>
      <point x="228" y="479"/>
      <point x="259" y="526"/>
      <point x="259" y="558" type="curve" smooth="yes"/>
      <point x="259" y="595"/>
      <point x="224" y="625"/>
      <point x="181" y="625" type="curve" smooth="yes"/>
      <point x="145" y="625"/>
      <point x="120" y="610"/>
      <point x="91" y="572" type="curve"/>
      <point x="78" y="580" type="line"/>
      <point x="92" y="613"/>
      <point x="131" y="676"/>
    </contour>
  </outline>
</glyph>
<glyph name="acute" format="1">
  <advance width="332"/>
  <unicode hex="00B4"/>
  <outline>
    <contour>
      <point x="180" y="494" type="line"/>
      <point x="342" y="654" type="line" smooth="yes"/>
      <point x="349" y="660"/>
      <point x="357" y="664"/>
      <point x="367" y="664" type="curve" smooth="yes"/>
      <point x="387" y="664"/>
      <point x="403" y="648"/>
      <point x="403" y="628" type="curve" smooth="yes"/>
      <point x="403" y="616"/>
      <point x="398" y="607"/>
      <point x="386" y="600" type="curve" smooth="yes"/>
      <point x="215" y="494" type="line"/>
    </contour>
  </outline>
</glyph>
<glyph name="paragraph" format="1">
  <advance width="522"/>
  <unicode hex="00B6"/>
  <outline>
    <contour>
      <point x="616" y="653" type="line"/>
      <point x="610" y="632" type="line"/>
      <point x="534" y="627"/>
      <point x="527" y="622"/>
      <point x="513" y="574" type="curve" smooth="yes"/>
      <point x="357" y="-11" type="line" smooth="yes"/>
      <point x="356" y="-14"/>
      <point x="355" y="-19"/>
      <point x="353" y="-26" type="curve" smooth="yes"/>
      <point x="345" y="-52"/>
      <point x="342" y="-64"/>
      <point x="342" y="-76" type="curve" smooth="yes"/>
      <point x="342" y="-90"/>
      <point x="356" y="-96"/>
      <point x="391" y="-100" type="curve" smooth="yes"/>
      <point x="394" y="-100"/>
      <point x="404" y="-101"/>
      <point x="414" y="-102" type="curve"/>
      <point x="409" y="-123" type="line"/>
      <point x="261" y="-123" type="line"/>
      <point x="461" y="632" type="line"/>
      <point x="403" y="632" type="line"/>
      <point x="203" y="-123" type="line"/>
      <point x="55" y="-123" type="line"/>
      <point x="60" y="-102" type="line"/>
      <point x="106" y="-98"/>
      <point x="122" y="-95"/>
      <point x="134" y="-89" type="curve" smooth="yes"/>
      <point x="147" y="-85"/>
      <point x="147" y="-85"/>
      <point x="215" y="171" type="curve" smooth="yes"/>
      <point x="226" y="216"/>
      <point x="233" y="239"/>
      <point x="245" y="283" type="curve"/>
      <point x="190" y="285"/>
      <point x="165" y="292"/>
      <point x="137" y="311" type="curve" smooth="yes"/>
      <point x="108" y="332"/>
      <point x="92" y="364"/>
      <point x="92" y="403" type="curve" smooth="yes"/>
      <point x="92" y="466"/>
      <point x="115" y="534"/>
      <point x="151" y="577" type="curve" smooth="yes"/>
      <point x="196" y="631"/>
      <point x="257" y="653"/>
      <point x="359" y="653" type="curve" smooth="yes"/>
    </contour>
    <contour>
      <point x="255" y="304" type="curve"/>
      <point x="334" y="632" type="line"/>
      <point x="291" y="629"/>
      <point x="263" y="616"/>
      <point x="235" y="585" type="curve" smooth="yes"/>
      <point x="197" y="544"/>
      <point x="169" y="468"/>
      <point x="169" y="406" type="curve" smooth="yes"/>
      <point x="169" y="373"/>
      <point x="181" y="343"/>
      <point x="202" y="323" type="curve" smooth="yes"/>
      <point x="214" y="311"/>
      <point x="227" y="307"/>
    </contour>
  </outline>
</glyph>
<glyph name="one.superior" format="1">
  <advance width="299"/>
  <unicode hex="00B9"/>
  <outline>
    <contour>
      <point x="148" y="654" type="line"/>
      <point x="248" y="670"/>
      <point x="251" y="675"/>
      <point x="273" y="675" type="curve" smooth="yes"/>
      <point x="274" y="675"/>
      <point x="276" y="676"/>
      <point x="276" y="676" type="curve"/>
      <point x="279" y="676" type="line" smooth="yes"/>
      <point x="281" y="676"/>
      <point x="284" y="673"/>
      <point x="284" y="671" type="curve" smooth="yes"/>
      <point x="284" y="669"/>
      <point x="283" y="663"/>
      <point x="280" y="655" type="curve" smooth="yes"/>
      <point x="194" y="381" type="line" smooth="yes"/>
      <point x="182" y="343"/>
      <point x="175" y="316"/>
      <point x="175" y="307" type="curve" smooth="yes"/>
      <point x="175" y="292"/>
      <point x="186" y="288"/>
      <point x="224" y="287" type="curve"/>
      <point x="224" y="271" type="line"/>
      <point x="43" y="271" type="line"/>
      <point x="43" y="287" type="line"/>
      <point x="90" y="292"/>
      <point x="103" y="297"/>
      <point x="108" y="312" type="curve" smooth="yes"/>
      <point x="198" y="597" type="line" smooth="yes"/>
      <point x="202" y="609"/>
      <point x="203" y="614"/>
      <point x="203" y="618" type="curve" smooth="yes"/>
      <point x="203" y="631"/>
      <point x="192" y="638"/>
      <point x="182" y="635" type="curve" smooth="yes"/>
      <point x="148" y="635" type="line"/>
    </contour>
  </outline>
</glyph>
<glyph name="ordmasculine" format="1">
  <advance width="309"/>
  <unicode hex="00BA"/>
  <outline>
    <contour>
      <point x="265" y="676" type="curve" smooth="yes"/>
      <point x="322" y="676"/>
      <point x="362" y="641"/>
      <point x="362" y="592" type="curve" smooth="yes"/>
      <point x="362" y="500"/>
      <point x="262" y="406"/>
      <point x="164" y="406" type="curve" smooth="yes"/>
      <point x="105" y="406"/>
      <point x="67" y="439"/>
      <point x="67" y="489" type="curve" smooth="yes"/>
      <point x="67" y="584"/>
      <point x="164" y="676"/>
    </contour>
    <contour>
      <point x="258" y="654" type="curve" smooth="yes"/>
      <point x="256.919" y="654.08"/>
      <point x="255.833" y="654.12"/>
      <point x="254.744" y="654.12" type="curve" smooth="yes"/>
      <point x="201.462" y="654.12"/>
      <point x="140" y="559.298"/>
      <point x="140" y="476" type="curve" smooth="yes"/>
      <point x="140" y="448"/>
      <point x="155" y="430"/>
      <point x="178" y="430" type="curve" smooth="yes"/>
      <point x="195" y="430"/>
      <point x="214" y="439"/>
      <point x="227" y="452" type="curve" smooth="yes"/>
      <point x="263" y="490"/>
      <point x="289" y="555"/>
      <point x="289" y="607" type="curve" smooth="yes"/>
      <point x="289" y="637"/>
      <point x="279" y="653"/>
    </contour>
  </outline>
</glyph>
<glyph name="onequarter" format="1">
  <advance width="750"/>
  <unicode hex="00BC"/>
  <outline>
    <contour>
      <point x="138" y="654" type="line"/>
      <point x="238" y="670"/>
      <point x="241" y="675"/>
      <point x="263" y="675" type="curve" smooth="yes"/>
      <point x="264" y="675"/>
      <point x="266" y="676"/>
      <point x="266" y="676" type="curve"/>
      <point x="269" y="676" type="line" smooth="yes"/>
      <point x="271" y="676"/>
      <point x="274" y="673"/>
      <point x="274" y="671" type="curve" smooth="yes"/>
      <point x="274" y="669"/>
      <point x="273" y="663"/>
      <point x="270" y="655" type="curve" smooth="yes"/>
      <point x="184" y="381" type="line" smooth="yes"/>
      <point x="172" y="343"/>
      <point x="165" y="316"/>
      <point x="165" y="307" type="curve" smooth="yes"/>
      <point x="165" y="292"/>
      <point x="176" y="288"/>
      <point x="214" y="287" type="curve"/>
      <point x="214" y="271" type="line"/>
      <point x="33" y="271" type="line"/>
      <point x="33" y="287" type="line"/>
      <point x="80" y="292"/>
      <point x="93" y="297"/>
      <point x="98" y="312" type="curve" smooth="yes"/>
      <point x="188" y="597" type="line" smooth="yes"/>
      <point x="192" y="609"/>
      <point x="193" y="614"/>
      <point x="193" y="618" type="curve" smooth="yes"/>
      <point x="193" y="631"/>
      <point x="182" y="638"/>
      <point x="172" y="635" type="curve" smooth="yes"/>
      <point x="138" y="635" type="line"/>
    </contour>
    <contour>
      <point x="649" y="676" type="line"/>
      <point x="194" y="-10" type="line"/>
      <point x="143" y="-10" type="line"/>
      <point x="598" y="676" type="line"/>
    </contour>
    <contour>
      <point x="712" y="147" type="line"/>
      <point x="703" y="104" type="line"/>
      <point x="645" y="104" type="line"/>
      <point x="615" y="0" type="line"/>
      <point x="552" y="0" type="line"/>
      <point x="584" y="105" type="line"/>
      <point x="416" y="105" type="line"/>
      <point x="429" y="147" type="line"/>
      <point x="700" y="406" type="line"/>
      <point x="736" y="406" type="line"/>
      <point x="657" y="147" type="line"/>
    </contour>
    <contour>
      <point x="653" y="333" type="line"/>
      <point x="464" y="147" type="line"/>
      <point x="593" y="147" type="line"/>
    </contour>
  </outline>
</glyph>
<glyph name="onehalf" format="1">
  <advance width="750"/>
  <unicode hex="00BD"/>
  <outline>
    <contour>
      <point x="638" y="405" type="curve" smooth="yes"/>
      <point x="699" y="405"/>
      <point x="749" y="359"/>
      <point x="749" y="304" type="curve" smooth="yes"/>
      <point x="749" y="269"/>
      <point x="737" y="252"/>
      <point x="650" y="168" type="curve" smooth="yes"/>
      <point x="536" y="58" type="line"/>
      <point x="538" y="53" type="line"/>
      <point x="646" y="53" type="line" smooth="yes"/>
      <point x="682" y="53"/>
      <point x="695" y="60"/>
      <point x="711" y="87" type="curve"/>
      <point x="722" y="79" type="line"/>
      <point x="689" y="0" type="line"/>
      <point x="458" y="0" type="line"/>
      <point x="458" y="18" type="line"/>
      <point x="591" y="148" type="line" smooth="yes"/>
      <point x="653" y="208"/>
      <point x="684" y="255"/>
      <point x="684" y="287" type="curve" smooth="yes"/>
      <point x="684" y="324"/>
      <point x="649" y="354"/>
      <point x="606" y="354" type="curve" smooth="yes"/>
      <point x="570" y="354"/>
      <point x="545" y="339"/>
      <point x="516" y="301" type="curve"/>
      <point x="503" y="309" type="line"/>
      <point x="517" y="342"/>
      <point x="556" y="405"/>
    </contour>
    <contour>
      <point x="139" y="654" type="line"/>
      <point x="239" y="670"/>
      <point x="242" y="675"/>
      <point x="264" y="675" type="curve" smooth="yes"/>
      <point x="265" y="675"/>
      <point x="267" y="676"/>
      <point x="267" y="676" type="curve"/>
      <point x="270" y="676" type="line" smooth="yes"/>
      <point x="272" y="676"/>
      <point x="275" y="673"/>
      <point x="275" y="671" type="curve" smooth="yes"/>
      <point x="275" y="669"/>
      <point x="274" y="663"/>
      <point x="271" y="655" type="curve" smooth="yes"/>
      <point x="185" y="381" type="line" smooth="yes"/>
      <point x="173" y="343"/>
      <point x="166" y="316"/>
      <point x="166" y="307" type="curve" smooth="yes"/>
      <point x="166" y="292"/>
      <point x="177" y="288"/>
      <point x="215" y="287" type="curve"/>
      <point x="215" y="271" type="line"/>
      <point x="34" y="271" type="line"/>
      <point x="34" y="287" type="line"/>
      <point x="81" y="292"/>
      <point x="94" y="297"/>
      <point x="99" y="312" type="curve" smooth="yes"/>
      <point x="189" y="597" type="line" smooth="yes"/>
      <point x="193" y="609"/>
      <point x="194" y="614"/>
      <point x="194" y="618" type="curve" smooth="yes"/>
      <point x="194" y="631"/>
      <point x="183" y="638"/>
      <point x="173" y="635" type="curve" smooth="yes"/>
      <point x="139" y="635" type="line"/>
    </contour>
    <contour>
      <point x="635" y="676" type="line"/>
      <point x="180" y="-10" type="line"/>
      <point x="129" y="-10" type="line"/>
      <point x="584" y="676" type="line"/>
    </contour>
  </outline>
</glyph>
<glyph name="Atilde" format="1">
  <advance width="630"/>
  <unicode hex="00C3"/>
  <outline>
    <contour>
      <point x="584" y="16" type="curve"/>
      <point x="584" y="0" type="line"/>
      <point x="338" y="0" type="line"/>
      <point x="338" y="16" type="line"/>
      <point x="402" y="22"/>
      <point x="416" y="31"/>
      <point x="416" y="69" type="curve" smooth="yes"/>
      <point x="416" y="77"/>
      <point x="415" y="86"/>
      <point x="414" y="95" type="curve" smooth="yes"/>
      <point x="393" y="226" type="line"/>
      <point x="179" y="226" type="line"/>
      <point x="117" y="113" type="line" smooth="yes"/>
      <point x="100" y="79"/>
      <point x="97" y="70"/>
      <point x="97" y="51" type="curve" smooth="yes"/>
      <point x="97" y="26"/>
      <point x="105" y="21"/>
      <point x="156" y="16" type="curve"/>
      <point x="156" y="0" type="line"/>
      <point x="-31" y="0" type="line"/>
      <point x="-31" y="16" type="line"/>
      <point x="8" y="32"/>
      <point x="34" y="47"/>
      <point x="103" y="168" type="curve" smooth="yes"/>
      <point x="388" y="668" type="line"/>
      <point x="414" y="668" type="line"/>
      <point x="508" y="102" type="line" smooth="yes"/>
      <point x="521" y="29"/>
      <point x="527" y="21"/>
    </contour>
    <contour>
      <point x="200" y="262" type="line"/>
      <point x="387" y="262" type="line"/>
      <point x="345" y="522" type="line"/>
    </contour>
    <contour>
      <point x="559" y="836" type="curve"/>
      <point x="587" y="836" type="line"/>
      <point x="573" y="769"/>
      <point x="540" y="732"/>
      <point x="492" y="732" type="curve" smooth="yes"/>
      <point x="480" y="732"/>
      <point x="461" y="737"/>
      <point x="435" y="747" type="curve" smooth="yes"/>
      <point x="381" y="769"/>
      <point x="357" y="776"/>
      <point x="340" y="776" type="curve" smooth="yes"/>
      <point x="315" y="776"/>
      <point x="299" y="761"/>
      <point x="289" y="729" type="curve"/>
      <point x="260" y="729" type="line"/>
      <point x="280" y="806"/>
      <point x="308" y="835"/>
      <point x="360" y="835" type="curve" smooth="yes"/>
      <point x="382" y="835"/>
      <point x="408" y="828"/>
      <point x="446" y="811" type="curve" smooth="yes"/>
      <point x="476" y="797"/>
      <point x="493" y="792"/>
      <point x="508" y="792" type="curve" smooth="yes"/>
      <point x="535" y="792"/>
      <point x="548" y="803"/>
    </contour>
  </outline>
</glyph>
<glyph name="Aring" format="1">
  <advance width="630"/>
  <unicode hex="00C5"/>
  <outline>
    <contour>
      <point x="584" y="16" type="curve"/>
      <point x="584" y="0" type="line"/>
      <point x="338" y="0" type="line"/>
      <point x="338" y="16" type="line"/>
      <point x="402" y="22"/>
      <point x="416" y="31"/>
      <point x="416" y="69" type="curve" smooth="yes"/>
      <point x="416" y="77"/>
      <point x="415" y="86"/>
      <point x="414" y="95" type="curve" smooth="yes"/>
      <point x="393" y="226" type="line"/>
      <point x="179" y="226" type="line"/>
      <point x="117" y="113" type="line" smooth="yes"/>
      <point x="100" y="79"/>
      <point x="97" y="70"/>
      <point x="97" y="51" type="curve" smooth="yes"/>
      <point x="97" y="26"/>
      <point x="105" y="21"/>
      <point x="156" y="16" type="curve"/>
      <point x="156" y="0" type="line"/>
      <point x="-31" y="0" type="line"/>
      <point x="-31" y="16" type="line"/>
      <point x="8" y="32"/>
      <point x="34" y="47"/>
      <point x="103" y="168" type="curve" smooth="yes"/>
      <point x="388" y="668" type="line"/>
      <point x="414" y="668" type="line"/>
      <point x="508" y="102" type="line" smooth="yes"/>
      <point x="521" y="29"/>
      <point x="527" y="21"/>
    </contour>
    <contour>
      <point x="200" y="262" type="line"/>
      <point x="387" y="262" type="line"/>
      <point x="345" y="522" type="line"/>
    </contour>
    <contour>
      <point x="411" y="903" type="curve" smooth="yes"/>
      <point x="466" y="903"/>
      <point x="512" y="858"/>
      <point x="512" y="803" type="curve" smooth="yes"/>
      <point x="512" y="749"/>
      <point x="467" y="704"/>
      <point x="412" y="704" type="curve" smooth="yes"/>
      <point x="356" y="704"/>
      <point x="312" y="748"/>
      <point x="312" y="804" type="curve" smooth="yes"/>
      <point x="312" y="858"/>
      <point x="357" y="903"/>
    </contour>
    <contour>
      <point x="411" y="869" type="curve" smooth="yes"/>
      <point x="376" y="869"/>
      <point x="346" y="839"/>
      <point x="346" y="804" type="curve" smooth="yes"/>
      <point x="346" y="767"/>
      <point x="375" y="738"/>
      <point x="411" y="738" type="curve" smooth="yes"/>
      <point x="449" y="738"/>
      <point x="478" y="766"/>
      <point x="478" y="803" type="curve" smooth="yes"/>
      <point x="478" y="839"/>
      <point x="448" y="869"/>
    </contour>
  </outline>
</glyph>
<glyph name="Ccedilla" format="1">
  <advance width="666"/>
  <unicode hex="00C7"/>
  <outline>
    <contour>
      <point x="277" y="-14" type="curve"/>
      <point x="242" y="-66" type="line"/>
      <point x="252" y="-64"/>
      <point x="259" y="-63"/>
      <point x="267" y="-63" type="curve" smooth="yes"/>
      <point x="317" y="-63"/>
      <point x="349" y="-90"/>
      <point x="349" y="-131" type="curve" smooth="yes"/>
      <point x="349" y="-181"/>
      <point x="299" y="-217"/>
      <point x="230" y="-217" type="curve" smooth="yes"/>
      <point x="202" y="-217"/>
      <point x="179" y="-212"/>
      <point x="137" y="-196" type="curve"/>
      <point x="154" y="-167" type="line"/>
      <point x="183" y="-178"/>
      <point x="201" y="-182"/>
      <point x="222" y="-182" type="curve" smooth="yes"/>
      <point x="256" y="-182"/>
      <point x="275" y="-167"/>
      <point x="275" y="-141" type="curve" smooth="yes"/>
      <point x="275" y="-115"/>
      <point x="256" y="-97"/>
      <point x="229" y="-97" type="curve" smooth="yes"/>
      <point x="219" y="-97"/>
      <point x="211" y="-99"/>
      <point x="197" y="-104" type="curve"/>
      <point x="188" y="-96" type="line"/>
      <point x="244" y="-6" type="line"/>
      <point x="135" y="26"/>
      <point x="66" y="122"/>
      <point x="66" y="243" type="curve" smooth="yes"/>
      <point x="66" y="465"/>
      <point x="259" y="666"/>
      <point x="472" y="666" type="curve" smooth="yes"/>
      <point x="504" y="666"/>
      <point x="544" y="660"/>
      <point x="589" y="649" type="curve" smooth="yes"/>
      <point x="610" y="644"/>
      <point x="622" y="642"/>
      <point x="630" y="642" type="curve" smooth="yes"/>
      <point x="650" y="642"/>
      <point x="660" y="648"/>
      <point x="668" y="664" type="curve"/>
      <point x="689" y="664" type="line"/>
      <point x="652" y="465" type="line"/>
      <point x="634" y="468" type="line"/>
      <point x="624" y="576"/>
      <point x="573" y="630"/>
      <point x="481" y="630" type="curve" smooth="yes"/>
      <point x="415" y="630"/>
      <point x="352" y="602"/>
      <point x="304" y="553" type="curve" smooth="yes"/>
      <point x="226" y="472"/>
      <point x="178" y="351"/>
      <point x="178" y="232" type="curve" smooth="yes"/>
      <point x="178" y="103"/>
      <point x="242" y="27"/>
      <point x="353" y="27" type="curve" smooth="yes"/>
      <point x="435" y="27"/>
      <point x="493" y="57"/>
      <point x="583" y="145" type="curve"/>
      <point x="600" y="131" type="line"/>
      <point x="510" y="26"/>
      <point x="430" y="-18"/>
      <point x="327" y="-18" type="curve" smooth="yes"/>
      <point x="311" y="-18"/>
      <point x="295" y="-17"/>
    </contour>
  </outline>
</glyph>
<glyph name="Idieresis" format="1">
  <advance width="338"/>
  <unicode hex="00CF"/>
  <outline>
    <contour>
      <point x="-8" y="0" type="line"/>
      <point x="-8" y="16" type="line"/>
      <point x="48" y="26"/>
      <point x="57" y="31"/>
      <point x="73" y="90" type="curve" smooth="yes"/>
      <point x="196" y="532" type="line" smooth="yes"/>
      <point x="203" y="557"/>
      <point x="207" y="580"/>
      <point x="207" y="594" type="curve" smooth="yes"/>
      <point x="207" y="622"/>
      <point x="195" y="630"/>
      <point x="137" y="637" type="curve"/>
      <point x="137" y="653" type="line"/>
      <point x="384" y="653" type="line"/>
      <point x="384" y="637" type="line"/>
      <point x="327" y="627"/>
      <point x="318" y="622"/>
      <point x="302" y="563" type="curve" smooth="yes"/>
      <point x="179" y="120" type="line" smooth="yes"/>
      <point x="170" y="88"/>
      <point x="168" y="76"/>
      <point x="168" y="57" type="curve" smooth="yes"/>
      <point x="168" y="29"/>
      <point x="179" y="23"/>
      <point x="236" y="16" type="curve"/>
      <point x="236" y="0" type="line"/>
    </contour>
    <contour>
      <point x="197" y="818" type="curve" smooth="yes"/>
      <point x="222" y="818"/>
      <point x="245" y="794"/>
      <point x="245" y="769" type="curve" smooth="yes"/>
      <point x="245" y="742"/>
      <point x="223" y="720"/>
      <point x="196" y="720" type="curve" smooth="yes"/>
      <point x="169" y="720"/>
      <point x="147" y="742"/>
      <point x="147" y="770" type="curve" smooth="yes"/>
      <point x="147" y="796"/>
      <point x="169" y="818"/>
    </contour>
    <contour>
      <point x="397" y="818" type="curve" smooth="yes"/>
      <point x="422" y="818"/>
      <point x="445" y="794"/>
      <point x="445" y="769" type="curve" smooth="yes"/>
      <point x="445" y="742"/>
      <point x="423" y="720"/>
      <point x="396" y="720" type="curve" smooth="yes"/>
      <point x="369" y="720"/>
      <point x="347" y="742"/>
      <point x="347" y="770" type="curve" smooth="yes"/>
      <point x="347" y="796"/>
      <point x="369" y="818"/>
    </contour>
  </outline>
</glyph>
<glyph name="Ntilde" format="1">
  <advance width="656"/>
  <unicode hex="00D1"/>
  <outline>
    <contour>
      <point x="600" y="586" type="curve" smooth="yes"/>
      <point x="600" y="622"/>
      <point x="587" y="632"/>
      <point x="530" y="637" type="curve"/>
      <point x="530" y="653" type="line"/>
      <point x="729" y="653" type="line"/>
      <point x="729" y="637" type="line"/>
      <point x="666" y="623"/>
      <point x="662" y="617"/>
      <point x="625" y="488" type="curve" smooth="yes"/>
      <point x="481" y="-15" type="line"/>
      <point x="463" y="-15" type="line"/>
      <point x="233" y="535" type="line"/>
      <point x="119" y="113" type="line" smooth="yes"/>
      <point x="113" y="92"/>
      <point x="110" y="72"/>
      <point x="110" y="59" type="curve" smooth="yes"/>
      <point x="110" y="31"/>
      <point x="129" y="20"/>
      <point x="180" y="16" type="curve"/>
      <point x="180" y="0" type="line"/>
      <point x="-18" y="0" type="line"/>
      <point x="-18" y="16" type="line"/>
      <point x="39" y="24"/>
      <point x="47" y="36"/>
      <point x="85" y="164" type="curve" smooth="yes"/>
      <point x="204" y="581" type="line"/>
      <point x="186" y="620"/>
      <point x="165" y="633"/>
      <point x="118" y="637" type="curve"/>
      <point x="118" y="653" type="line"/>
      <point x="279" y="653" type="line"/>
      <point x="487" y="154" type="line"/>
      <point x="589" y="534" type="line" smooth="yes"/>
      <point x="589" y="535"/>
      <point x="600" y="574"/>
    </contour>
    <contour>
      <point x="607" y="836" type="curve"/>
      <point x="635" y="836" type="line"/>
      <point x="621" y="769"/>
      <point x="588" y="732"/>
      <point x="540" y="732" type="curve" smooth="yes"/>
      <point x="528" y="732"/>
      <point x="509" y="737"/>
      <point x="483" y="747" type="curve" smooth="yes"/>
      <point x="429" y="769"/>
      <point x="405" y="776"/>
      <point x="388" y="776" type="curve" smooth="yes"/>
      <point x="363" y="776"/>
      <point x="347" y="761"/>
      <point x="337" y="729" type="curve"/>
      <point x="308" y="729" type="line"/>
      <point x="328" y="806"/>
      <point x="356" y="835"/>
      <point x="408" y="835" type="curve" smooth="yes"/>
      <point x="430" y="835"/>
      <point x="456" y="828"/>
      <point x="494" y="811" type="curve" smooth="yes"/>
      <point x="524" y="797"/>
      <point x="541" y="792"/>
      <point x="556" y="792" type="curve" smooth="yes"/>
      <point x="583" y="792"/>
      <point x="596" y="803"/>
    </contour>
  </outline>
</glyph>
<glyph name="Otilde" format="1">
  <advance width="721"/>
  <unicode hex="00D5"/>
  <outline>
    <contour>
      <point x="699" y="423" type="curve" smooth="yes"/>
      <point x="699" y="213"/>
      <point x="495" y="-18"/>
      <point x="279" y="-18" type="curve" smooth="yes"/>
      <point x="138" y="-18"/>
      <point x="60" y="94"/>
      <point x="60" y="227" type="curve" smooth="yes"/>
      <point x="60" y="422"/>
      <point x="264" y="666"/>
      <point x="467" y="666" type="curve" smooth="yes"/>
      <point x="612" y="666"/>
      <point x="699" y="565"/>
    </contour>
    <contour>
      <point x="594" y="472" type="curve" smooth="yes"/>
      <point x="594" y="559"/>
      <point x="561" y="633"/>
      <point x="463" y="633" type="curve" smooth="yes"/>
      <point x="277" y="633"/>
      <point x="165" y="335"/>
      <point x="165" y="181" type="curve" smooth="yes"/>
      <point x="165" y="97"/>
      <point x="197" y="15"/>
      <point x="295" y="15" type="curve" smooth="yes"/>
      <point x="482" y="15"/>
      <point x="594" y="317"/>
    </contour>
    <contour>
      <point x="655" y="836" type="curve"/>
      <point x="683" y="836" type="line"/>
      <point x="669" y="769"/>
      <point x="636" y="732"/>
      <point x="588" y="732" type="curve" smooth="yes"/>
      <point x="576" y="732"/>
      <point x="557" y="737"/>
      <point x="531" y="747" type="curve" smooth="yes"/>
      <point x="477" y="769"/>
      <point x="453" y="776"/>
      <point x="436" y="776" type="curve" smooth="yes"/>
      <point x="411" y="776"/>
      <point x="395" y="761"/>
      <point x="385" y="729" type="curve"/>
      <point x="356" y="729" type="line"/>
      <point x="376" y="806"/>
      <point x="404" y="835"/>
      <point x="456" y="835" type="curve" smooth="yes"/>
      <point x="478" y="835"/>
      <point x="504" y="828"/>
      <point x="542" y="811" type="curve" smooth="yes"/>
      <point x="572" y="797"/>
      <point x="589" y="792"/>
      <point x="604" y="792" type="curve" smooth="yes"/>
      <point x="631" y="792"/>
      <point x="644" y="803"/>
    </contour>
  </outline>
</glyph>
<glyph name="Oslash" format="1">
  <advance width="721"/>
  <unicode hex="00D8"/>
  <outline>
    <contour>
      <point x="669" y="722" type="line"/>
      <point x="605" y="626" type="line"/>
      <point x="638" y="600"/>
      <point x="650" y="587"/>
      <point x="665" y="562" type="curve" smooth="yes"/>
      <point x="687" y="524"/>
      <point x="699" y="477"/>
      <point x="699" y="431" type="curve" smooth="yes"/>
      <point x="699" y="205"/>
      <point x="491" y="-18"/>
      <point x="281" y="-18" type="curve" smooth="yes"/>
      <point x="250" y="-18"/>
      <point x="225" y="-12"/>
      <point x="187" y="3" type="curve"/>
      <point x="113" y="-105" type="line"/>
      <point x="69" y="-105" type="line"/>
      <point x="155" y="22" type="line"/>
      <point x="89" y="70"/>
      <point x="60" y="132"/>
      <point x="60" y="222" type="curve" smooth="yes"/>
      <point x="60" y="339"/>
      <point x="119" y="460"/>
      <point x="220" y="553" type="curve" smooth="yes"/>
      <point x="300" y="625"/>
      <point x="390" y="666"/>
      <point x="468" y="666" type="curve" smooth="yes"/>
      <point x="505" y="666"/>
      <point x="536" y="660"/>
      <point x="573" y="644" type="curve"/>
      <point x="625" y="722" type="line"/>
    </contour>
    <contour>
      <point x="190" y="74" type="curve"/>
      <point x="546" y="607" type="line"/>
      <point x="521" y="625"/>
      <point x="497" y="633"/>
      <point x="464" y="633" type="curve" smooth="yes"/>
      <point x="393" y="633"/>
      <point x="330" y="594"/>
      <point x="275" y="514" type="curve" smooth="yes"/>
      <point x="212" y="423"/>
      <point x="165" y="279"/>
      <point x="165" y="176" type="curve" smooth="yes"/>
      <point x="165" y="138"/>
      <point x="172" y="108"/>
    </contour>
    <contour>
      <point x="570" y="574" type="curve"/>
      <point x="215" y="44" type="line"/>
      <point x="237" y="23"/>
      <point x="261" y="15"/>
      <point x="295" y="15" type="curve" smooth="yes"/>
      <point x="366" y="15"/>
      <point x="428" y="53"/>
      <point x="483" y="132" type="curve" smooth="yes"/>
      <point x="545" y="222"/>
      <point x="594" y="373"/>
      <point x="594" y="475" type="curve" smooth="yes"/>
      <point x="594" y="514"/>
      <point x="586" y="545"/>
    </contour>
  </outline>
</glyph>
<glyph name="Ugrave" format="1">
  <advance width="722"/>
  <unicode hex="00D9"/>
  <outline>
    <contour>
      <point x="765" y="637" type="line"/>
      <point x="683" y="620"/>
      <point x="682" y="560"/>
      <point x="661" y="488" type="curve" smooth="yes"/>
      <point x="578" y="203" type="line" smooth="yes"/>
      <point x="538" y="67"/>
      <point x="465" y="-18"/>
      <point x="315" y="-18" type="curve" smooth="yes"/>
      <point x="214" y="-18"/>
      <point x="102" y="37"/>
      <point x="102" y="151" type="curve" smooth="yes"/>
      <point x="102" y="228"/>
      <point x="154" y="394"/>
      <point x="176" y="473" type="curve" smooth="yes"/>
      <point x="184" y="499"/>
      <point x="205" y="569"/>
      <point x="205" y="594" type="curve" smooth="yes"/>
      <point x="205" y="637"/>
      <point x="159" y="635"/>
      <point x="127" y="637" type="curve"/>
      <point x="127" y="653" type="line"/>
      <point x="400" y="653" type="line"/>
      <point x="400" y="637" type="line"/>
      <point x="340" y="631"/>
      <point x="318" y="618"/>
      <point x="299" y="559" type="curve" smooth="yes"/>
      <point x="276" y="491"/>
      <point x="192" y="198"/>
      <point x="192" y="144" type="curve" smooth="yes"/>
      <point x="192" y="63"/>
      <point x="256" y="23"/>
      <point x="331" y="23" type="curve" smooth="yes"/>
      <point x="464" y="23"/>
      <point x="515" y="130"/>
      <point x="546" y="241" type="curve" smooth="yes"/>
      <point x="561" y="293"/>
      <point x="637" y="556"/>
      <point x="637" y="586" type="curve" smooth="yes"/>
      <point x="637" y="630"/>
      <point x="601" y="635"/>
      <point x="566" y="637" type="curve"/>
      <point x="566" y="653" type="line"/>
      <point x="765" y="653" type="line"/>
    </contour>
    <contour>
      <point x="524" y="704" type="line"/>
      <point x="384" y="810" type="line" smooth="yes"/>
      <point x="371" y="820"/>
      <point x="365" y="830"/>
      <point x="365" y="842" type="curve" smooth="yes"/>
      <point x="365" y="861"/>
      <point x="380" y="876"/>
      <point x="400" y="876" type="curve" smooth="yes"/>
      <point x="415" y="876"/>
      <point x="426" y="869"/>
      <point x="439" y="853" type="curve" smooth="yes"/>
      <point x="555" y="704" type="line"/>
    </contour>
  </outline>
</glyph>
<glyph name="germandbls" format="1">
  <advance width="500"/>
  <unicode hex="00DF"/>
  <outline>
    <contour>
      <point x="-89" y="-139" type="curve" smooth="yes"/>
      <point x="-89" y="-157"/>
      <point x="-101" y="-167"/>
      <point x="-101" y="-175" type="curve" smooth="yes"/>
      <point x="-101" y="-180"/>
      <point x="-94" y="-183"/>
      <point x="-83" y="-183" type="curve" smooth="yes"/>
      <point x="-34" y="-183"/>
      <point x="-7" y="-139"/>
      <point x="23" y="-4" type="curve" smooth="yes"/>
      <point x="95" y="315" type="line" smooth="yes"/>
      <point x="153" y="571"/>
      <point x="230" y="679"/>
      <point x="354" y="679" type="curve" smooth="yes"/>
      <point x="437" y="679"/>
      <point x="493" y="626"/>
      <point x="493" y="548" type="curve" smooth="yes"/>
      <point x="493" y="475"/>
      <point x="448" y="428"/>
      <point x="338" y="387" type="curve" smooth="yes"/>
      <point x="330" y="384" type="line"/>
      <point x="330" y="381" type="line"/>
      <point x="361" y="377"/>
      <point x="377" y="372"/>
      <point x="395" y="360" type="curve" smooth="yes"/>
      <point x="430" y="336"/>
      <point x="454" y="290"/>
      <point x="454" y="244" type="curve" smooth="yes"/>
      <point x="454" y="133"/>
      <point x="369" y="-13"/>
      <point x="241" y="-13" type="curve" smooth="yes"/>
      <point x="193" y="-13"/>
      <point x="161" y="14"/>
      <point x="161" y="53" type="curve" smooth="yes"/>
      <point x="161" y="81"/>
      <point x="179" y="100"/>
      <point x="205" y="100" type="curve" smooth="yes"/>
      <point x="228" y="100"/>
      <point x="243" y="84"/>
      <point x="243" y="60" type="curve" smooth="yes"/>
      <point x="243" y="40"/>
      <point x="231" y="30"/>
      <point x="231" y="22" type="curve" smooth="yes"/>
      <point x="231" y="15"/>
      <point x="240" y="9"/>
      <point x="249" y="9" type="curve" smooth="yes"/>
      <point x="275" y="9"/>
      <point x="300" y="28"/>
      <point x="320" y="63" type="curve" smooth="yes"/>
      <point x="348" y="113"/>
      <point x="367" y="194"/>
      <point x="367" y="262" type="curve" smooth="yes"/>
      <point x="367" y="332"/>
      <point x="341" y="367"/>
      <point x="286" y="369" type="curve" smooth="yes"/>
      <point x="266" y="370"/>
      <point x="260" y="374"/>
      <point x="260" y="384" type="curve" smooth="yes"/>
      <point x="260" y="394"/>
      <point x="264" y="397"/>
      <point x="277" y="397" type="curve" smooth="yes"/>
      <point x="358" y="397"/>
      <point x="413" y="470"/>
      <point x="413" y="577" type="curve" smooth="yes"/>
      <point x="413" y="628"/>
      <point x="391" y="656"/>
      <point x="351" y="656" type="curve" smooth="yes"/>
      <point x="293" y="656"/>
      <point x="244" y="582"/>
      <point x="206" y="438" type="curve" smooth="yes"/>
      <point x="95" y="12" type="line" smooth="yes"/>
      <point x="59" y="-125"/>
      <point x="-10" y="-207"/>
      <point x="-90" y="-207" type="curve" smooth="yes"/>
      <point x="-137" y="-207"/>
      <point x="-168" y="-182"/>
      <point x="-168" y="-145" type="curve" smooth="yes"/>
      <point x="-168" y="-119"/>
      <point x="-153" y="-103"/>
      <point x="-129" y="-103" type="curve" smooth="yes"/>
      <point x="-106" y="-103"/>
      <point x="-89" y="-118"/>
    </contour>
  </outline>
</glyph>
<glyph name="ntilde" format="1">
  <advance width="500"/>
  <unicode hex="00F1"/>
  <outline>
    <contour>
      <point x="460" y="117" type="line"/>
      <point x="474" y="104" type="line"/>
      <point x="405" y="12"/>
      <point x="379" y="-9"/>
      <point x="334" y="-9" type="curve" smooth="yes"/>
      <point x="301" y="-9"/>
      <point x="287" y="7"/>
      <point x="287" y="45" type="curve" smooth="yes"/>
      <point x="287" y="55"/>
      <point x="290" y="69"/>
      <point x="303" y="120" type="curve" smooth="yes"/>
      <point x="347" y="285" type="line" smooth="yes"/>
      <point x="355" y="316"/>
      <point x="361" y="349"/>
      <point x="361" y="361" type="curve" smooth="yes"/>
      <point x="361" y="379"/>
      <point x="352" y="390"/>
      <point x="337" y="390" type="curve" smooth="yes"/>
      <point x="300" y="390"/>
      <point x="249" y="340"/>
      <point x="189" y="248" type="curve" smooth="yes"/>
      <point x="145" y="180"/>
      <point x="136" y="158"/>
      <point x="89" y="0" type="curve"/>
      <point x="14" y="0" type="line"/>
      <point x="110" y="350" type="line" smooth="yes"/>
      <point x="111" y="355"/>
      <point x="112" y="361"/>
      <point x="112" y="367" type="curve" smooth="yes"/>
      <point x="112" y="387"/>
      <point x="99" y="393"/>
      <point x="48" y="394" type="curve"/>
      <point x="48" y="410" type="line"/>
      <point x="135" y="426"/>
      <point x="156" y="430"/>
      <point x="210" y="441" type="curve"/>
      <point x="213" y="439" type="line"/>
      <point x="146" y="221" type="line"/>
      <point x="249" y="381"/>
      <point x="312" y="441"/>
      <point x="376" y="441" type="curve" smooth="yes"/>
      <point x="415" y="441"/>
      <point x="442" y="416"/>
      <point x="442" y="380" type="curve" smooth="yes"/>
      <point x="442" y="366"/>
      <point x="438" y="344"/>
      <point x="433" y="323" type="curve" smooth="yes"/>
      <point x="376" y="117" type="line" smooth="yes"/>
      <point x="362" y="61"/>
      <point x="362" y="61"/>
      <point x="362" y="54" type="curve" smooth="yes"/>
      <point x="362" y="46"/>
      <point x="370" y="38"/>
      <point x="378" y="38" type="curve" smooth="yes"/>
      <point x="392" y="38"/>
      <point x="410" y="54"/>
      <point x="439" y="91" type="curve" smooth="yes"/>
    </contour>
    <contour>
      <point x="455" y="624" type="curve"/>
      <point x="483" y="624" type="line"/>
      <point x="469" y="557"/>
      <point x="436" y="520"/>
      <point x="388" y="520" type="curve" smooth="yes"/>
      <point x="376" y="520"/>
      <point x="357" y="525"/>
      <point x="331" y="535" type="curve" smooth="yes"/>
      <point x="277" y="557"/>
      <point x="253" y="564"/>
      <point x="236" y="564" type="curve" smooth="yes"/>
      <point x="211" y="564"/>
      <point x="195" y="549"/>
      <point x="185" y="517" type="curve"/>
      <point x="156" y="517" type="line"/>
      <point x="176" y="594"/>
      <point x="204" y="623"/>
      <point x="256" y="623" type="curve" smooth="yes"/>
      <point x="278" y="623"/>
      <point x="304" y="616"/>
      <point x="342" y="599" type="curve" smooth="yes"/>
      <point x="372" y="585"/>
      <point x="389" y="580"/>
      <point x="404" y="580" type="curve" smooth="yes"/>
      <point x="431" y="580"/>
      <point x="444" y="591"/>
    </contour>
  </outline>
</glyph>
<glyph name="ograve" format="1">
  <advance width="500"/>
  <unicode hex="00F2"/>
  <outline>
    <contour>
      <point x="468" y="293" type="curve" smooth="yes"/>
      <point x="468" y="156"/>
      <point x="318" y="-11"/>
      <point x="178" y="-11" type="curve" smooth="yes"/>
      <point x="85" y="-11"/>
      <point x="27" y="38"/>
      <point x="27" y="133" type="curve" smooth="yes"/>
      <point x="27" y="278"/>
      <point x="173" y="441"/>
      <point x="321" y="441" type="curve" smooth="yes"/>
      <point x="414" y="441"/>
      <point x="468" y="385"/>
    </contour>
    <contour>
      <point x="384" y="324" type="curve" smooth="yes"/>
      <point x="384" y="368"/>
      <point x="366" y="420"/>
      <point x="314" y="420" type="curve" smooth="yes"/>
      <point x="193" y="420"/>
      <point x="111" y="203"/>
      <point x="111" y="103" type="curve" smooth="yes"/>
      <point x="111" y="53"/>
      <point x="136" y="10"/>
      <point x="191" y="10" type="curve" smooth="yes"/>
      <point x="310" y="10"/>
      <point x="384" y="227"/>
    </contour>
    <contour>
      <point x="382" y="492" type="line"/>
      <point x="242" y="598" type="line" smooth="yes"/>
      <point x="229" y="608"/>
      <point x="223" y="618"/>
      <point x="223" y="630" type="curve" smooth="yes"/>
      <point x="223" y="649"/>
      <point x="238" y="664"/>
      <point x="258" y="664" type="curve" smooth="yes"/>
      <point x="273" y="664"/>
      <point x="284" y="657"/>
      <point x="297" y="641" type="curve" smooth="yes"/>
      <point x="413" y="492" type="line"/>
    </contour>
  </outline>
</glyph>
<glyph name="thorn" format="1">
  <advance width="500"/>
  <unicode hex="00FE"/>
  <outline>
    <contour>
      <point x="469" y="310" type="curve" smooth="yes"/>
      <point x="469" y="167"/>
      <point x="320" y="-11"/>
      <point x="171" y="-11" type="curve" smooth="yes"/>
      <point x="147" y="-11"/>
      <point x="124" y="-5"/>
      <point x="103" y="6" type="curve"/>
      <point x="94" y="-27"/>
      <point x="66" y="-130"/>
      <point x="66" y="-158" type="curve" smooth="yes"/>
      <point x="66" y="-185.868"/>
      <point x="97.0955" y="-190.225"/>
      <point x="120.317" y="-190.225" type="curve" smooth="yes"/>
      <point x="123.76" y="-190.225"/>
      <point x="127.03" y="-190.129"/>
      <point x="130" y="-190" type="curve"/>
      <point x="130" y="-205" type="line"/>
      <point x="-75" y="-205" type="line"/>
      <point x="-75" y="-189" type="line"/>
      <point x="-73.8803" y="-189.024"/>
      <point x="-72.7816" y="-189.036"/>
      <point x="-71.7034" y="-189.036" type="curve" smooth="yes"/>
      <point x="-27.5235" y="-189.036"/>
      <point x="-17.7618" y="-169.047"/>
      <point x="-8" y="-130" type="curve" smooth="yes"/>
      <point x="49" y="96"/>
      <point x="110" y="322"/>
      <point x="172" y="547" type="curve" smooth="yes"/>
      <point x="177" y="565"/>
      <point x="188" y="596"/>
      <point x="188" y="614" type="curve" smooth="yes"/>
      <point x="188" y="640.273"/>
      <point x="163.519" y="643.258"/>
      <point x="141.317" y="643.258" type="curve" smooth="yes"/>
      <point x="134.787" y="643.258"/>
      <point x="128.455" y="643"/>
      <point x="123" y="643" type="curve"/>
      <point x="123" y="660" type="line"/>
      <point x="174" y="666"/>
      <point x="225" y="673"/>
      <point x="275" y="683" type="curve"/>
      <point x="280" y="678" type="line"/>
      <point x="251" y="564"/>
      <point x="226" y="446"/>
      <point x="189" y="335" type="curve"/>
      <point x="191" y="333" type="line"/>
      <point x="223" y="389"/>
      <point x="282" y="441"/>
      <point x="350" y="441" type="curve" smooth="yes"/>
      <point x="433" y="441"/>
      <point x="469" y="388"/>
    </contour>
    <contour>
      <point x="379" y="313" type="curve" smooth="yes"/>
      <point x="379" y="359"/>
      <point x="368" y="398"/>
      <point x="313" y="398" type="curve" smooth="yes"/>
      <point x="253" y="398"/>
      <point x="203" y="335"/>
      <point x="182" y="284" type="curve" smooth="yes"/>
      <point x="164" y="239"/>
      <point x="117" y="90"/>
      <point x="117" y="45" type="curve" smooth="yes"/>
      <point x="117" y="18"/>
      <point x="144" y="8"/>
      <point x="167" y="8" type="curve" smooth="yes"/>
      <point x="295" y="8"/>
      <point x="379" y="205"/>
    </contour>
  </outline>
</glyph>
<glyph name="Abreve" format="1">
  <advance width="630"/>
  <unicode hex="0102"/>
  <outline>
    <contour>
      <point x="584" y="16" type="curve"/>
      <point x="584" y="0" type="line"/>
      <point x="338" y="0" type="line"/>
      <point x="338" y="16" type="line"/>
      <point x="402" y="22"/>
      <point x="416" y="31"/>
      <point x="416" y="69" type="curve" smooth="yes"/>
      <point x="416" y="77"/>
      <point x="415" y="86"/>
      <point x="414" y="95" type="curve" smooth="yes"/>
      <point x="393" y="226" type="line"/>
      <point x="179" y="226" type="line"/>
      <point x="117" y="113" type="line" smooth="yes"/>
      <point x="100" y="79"/>
      <point x="97" y="70"/>
      <point x="97" y="51" type="curve" smooth="yes"/>
      <point x="97" y="26"/>
      <point x="105" y="21"/>
      <point x="156" y="16" type="curve"/>
      <point x="156" y="0" type="line"/>
      <point x="-31" y="0" type="line"/>
      <point x="-31" y="16" type="line"/>
      <point x="8" y="32"/>
      <point x="34" y="47"/>
      <point x="103" y="168" type="curve" smooth="yes"/>
      <point x="388" y="668" type="line"/>
      <point x="414" y="668" type="line"/>
      <point x="508" y="102" type="line" smooth="yes"/>
      <point x="521" y="29"/>
      <point x="527" y="21"/>
    </contour>
    <contour>
      <point x="200" y="262" type="line"/>
      <point x="387" y="262" type="line"/>
      <point x="345" y="522" type="line"/>
    </contour>
    <contour>
      <point x="588" y="861" type="line"/>
      <point x="558" y="777"/>
      <point x="502" y="705"/>
      <point x="405" y="705" type="curve" smooth="yes"/>
      <point x="340" y="705"/>
      <point x="298" y="742"/>
      <point x="298" y="808" type="curve" smooth="yes"/>
      <point x="298" y="821"/>
      <point x="301" y="850"/>
      <point x="307" y="861" type="curve"/>
      <point x="336" y="861" type="line"/>
      <point x="335" y="847" type="line" smooth="yes"/>
      <point x="334.886" y="844.914"/>
      <point x="334.83" y="842.868"/>
      <point x="334.83" y="840.862" type="curve" smooth="yes"/>
      <point x="334.83" y="789.991"/>
      <point x="371.01" y="765"/>
      <point x="422" y="765" type="curve" smooth="yes"/>
      <point x="494" y="765"/>
      <point x="524" y="806"/>
      <point x="559" y="861" type="curve"/>
    </contour>
  </outline>
</glyph>
<glyph name="aogonek" format="1">
  <advance width="500"/>
  <unicode hex="0105"/>
  <outline>
    <contour>
      <point x="365" y="352" type="curve" smooth="yes"/>
      <point x="365" y="388"/>
      <point x="347" y="419"/>
      <point x="308" y="419" type="curve" smooth="yes"/>
      <point x="194" y="419"/>
      <point x="101" y="205"/>
      <point x="101" y="109" type="curve" smooth="yes"/>
      <point x="101" y="72"/>
      <point x="120" y="38"/>
      <point x="161" y="38" type="curve" smooth="yes"/>
      <point x="270" y="38"/>
      <point x="365" y="260"/>
    </contour>
    <contour>
      <point x="464" y="110" type="curve"/>
      <point x="476" y="100" type="line"/>
      <point x="428" y="41"/>
      <point x="399" y="12"/>
      <point x="372" y="-4" type="curve" smooth="yes"/>
      <point x="348" y="-17"/>
      <point x="341" y="-28"/>
      <point x="341" y="-52" type="curve" smooth="yes"/>
      <point x="341" y="-85"/>
      <point x="364" y="-106"/>
      <point x="400" y="-106" type="curve" smooth="yes"/>
      <point x="431" y="-106"/>
      <point x="456" y="-96"/>
      <point x="483" y="-74" type="curve"/>
      <point x="500" y="-92" type="line"/>
      <point x="465" y="-143"/>
      <point x="423" y="-169"/>
      <point x="375" y="-169" type="curve" smooth="yes"/>
      <point x="323" y="-169"/>
      <point x="280" y="-126"/>
      <point x="280" y="-74" type="curve" smooth="yes"/>
      <point x="280" y="-48"/>
      <point x="288" y="-26"/>
      <point x="306" y="0" type="curve"/>
      <point x="299" y="8"/>
      <point x="297" y="15"/>
      <point x="297" y="31" type="curve" smooth="yes"/>
      <point x="297" y="55"/>
      <point x="300" y="68"/>
      <point x="320" y="146" type="curve"/>
      <point x="232" y="22"/>
      <point x="189" y="-11"/>
      <point x="119" y="-11" type="curve" smooth="yes"/>
      <point x="55" y="-11"/>
      <point x="17" y="30"/>
      <point x="17" y="100" type="curve" smooth="yes"/>
      <point x="17" y="258"/>
      <point x="171" y="441"/>
      <point x="303" y="441" type="curve" smooth="yes"/>
      <point x="346" y="441"/>
      <point x="375" y="420"/>
      <point x="383" y="383" type="curve"/>
      <point x="394" y="431" type="line"/>
      <point x="397" y="434" type="line"/>
      <point x="458" y="441" type="line"/>
      <point x="465" y="438" type="line"/>
      <point x="463" y="429"/>
      <point x="462" y="427"/>
      <point x="459" y="417" type="curve" smooth="yes"/>
      <point x="412" y="245"/>
      <point x="370" y="74"/>
      <point x="370" y="54" type="curve" smooth="yes"/>
      <point x="370" y="47"/>
      <point x="376" y="41"/>
      <point x="384" y="41" type="curve" smooth="yes"/>
      <point x="393" y="41"/>
      <point x="406" y="51"/>
      <point x="436" y="82" type="curve" smooth="yes"/>
      <point x="443" y="90"/>
      <point x="449" y="95"/>
    </contour>
  </outline>
</glyph>
<glyph name="ccircumflex" format="1">
  <advance width="443"/>
  <unicode hex="0109"/>
  <outline>
    <contour>
      <point x="425" y="360" type="curve" smooth="yes"/>
      <point x="425" y="333"/>
      <point x="404" y="314"/>
      <point x="378" y="314" type="curve" smooth="yes"/>
      <point x="355" y="314"/>
      <point x="338" y="327"/>
      <point x="338" y="351" type="curve" smooth="yes"/>
      <point x="338" y="375"/>
      <point x="353" y="384"/>
      <point x="353" y="400" type="curve" smooth="yes"/>
      <point x="353" y="417"/>
      <point x="327" y="420"/>
      <point x="315" y="420" type="curve" smooth="yes"/>
      <point x="191" y="420"/>
      <point x="116" y="253"/>
      <point x="116" y="147" type="curve" smooth="yes"/>
      <point x="116" y="86"/>
      <point x="136" y="25"/>
      <point x="207" y="25" type="curve" smooth="yes"/>
      <point x="265" y="25"/>
      <point x="313" y="65"/>
      <point x="350" y="106" type="curve"/>
      <point x="366" y="96" type="line"/>
      <point x="317" y="34"/>
      <point x="261" y="-11"/>
      <point x="178" y="-11" type="curve" smooth="yes"/>
      <point x="77" y="-11"/>
      <point x="30" y="48"/>
      <point x="30" y="147" type="curve" smooth="yes"/>
      <point x="30" y="291"/>
      <point x="170" y="441"/>
      <point x="316" y="441" type="curve" smooth="yes"/>
      <point x="365" y="441"/>
      <point x="425" y="418"/>
    </contour>
    <contour>
      <point x="391" y="660" type="line"/>
      <point x="479" y="491" type="line"/>
      <point x="443" y="491" type="line"/>
      <point x="361" y="595" type="line"/>
      <point x="224" y="491" type="line"/>
      <point x="185" y="491" type="line"/>
      <point x="342" y="660" type="line"/>
    </contour>
  </outline>
</glyph>
<glyph name="dcaron" format="1">
  <advance width="600"/>
  <unicode hex="010F"/>
  <outline>
    <contour>
      <point x="529" y="457" type="curve"/>
      <point x="520" y="474" type="line"/>
      <point x="569" y="493"/>
      <point x="591" y="513"/>
      <point x="591" y="540" type="curve" smooth="yes"/>
      <point x="591" y="550"/>
      <point x="584" y="557"/>
      <point x="575" y="564" type="curve" smooth="yes"/>
      <point x="554" y="580"/>
      <point x="546" y="595"/>
      <point x="546" y="619" type="curve" smooth="yes"/>
      <point x="546" y="646"/>
      <point x="568" y="666"/>
      <point x="597" y="666" type="curve" smooth="yes"/>
      <point x="630" y="666"/>
      <point x="655" y="635"/>
      <point x="655" y="595" type="curve" smooth="yes"/>
      <point x="655" y="539"/>
      <point x="615" y="491"/>
    </contour>
    <contour>
      <point x="527" y="678" type="line"/>
      <point x="506" y="592"/>
      <point x="363" y="100"/>
      <point x="363" y="62" type="curve" smooth="yes"/>
      <point x="363" y="51"/>
      <point x="369" y="40"/>
      <point x="381" y="40" type="curve" smooth="yes"/>
      <point x="407" y="40"/>
      <point x="448" y="94"/>
      <point x="463" y="111" type="curve"/>
      <point x="475" y="101" type="line"/>
      <point x="451" y="64"/>
      <point x="383" y="-13"/>
      <point x="334" y="-13" type="curve" smooth="yes"/>
      <point x="304" y="-13"/>
      <point x="287" y="3"/>
      <point x="287" y="33" type="curve" smooth="yes"/>
      <point x="287" y="60"/>
      <point x="293" y="87"/>
      <point x="299" y="114" type="curve"/>
      <point x="297" y="116" type="line"/>
      <point x="255" y="51"/>
      <point x="202" y="-11"/>
      <point x="119" y="-11" type="curve" smooth="yes"/>
      <point x="47" y="-11"/>
      <point x="15" y="41"/>
      <point x="15" y="107" type="curve" smooth="yes"/>
      <point x="15" y="236"/>
      <point x="167" y="441"/>
      <point x="304" y="441" type="curve" smooth="yes"/>
      <point x="344" y="441"/>
      <point x="365" y="425"/>
      <point x="371" y="386" type="curve"/>
      <point x="373" y="388" type="line"/>
      <point x="382" y="421"/>
      <point x="431" y="581"/>
      <point x="431" y="614" type="curve" smooth="yes"/>
      <point x="431" y="640.561"/>
      <point x="407.03" y="643.152"/>
      <point x="384.641" y="643.152" type="curve" smooth="yes"/>
      <point x="379.213" y="643.152"/>
      <point x="373.878" y="643"/>
      <point x="369" y="643" type="curve"/>
      <point x="369" y="660" type="line"/>
      <point x="420" y="665"/>
      <point x="472" y="672"/>
      <point x="522" y="683" type="curve"/>
    </contour>
    <contour>
      <point x="356" y="351" type="curve" smooth="yes"/>
      <point x="356" y="384"/>
      <point x="351" y="418"/>
      <point x="309" y="418" type="curve" smooth="yes"/>
      <point x="199" y="418"/>
      <point x="102" y="205"/>
      <point x="102" y="111" type="curve" smooth="yes"/>
      <point x="102" y="70"/>
      <point x="116" y="37"/>
      <point x="163" y="37" type="curve" smooth="yes"/>
      <point x="275" y="37"/>
      <point x="356" y="260"/>
    </contour>
  </outline>
</glyph>
<glyph name="dcroat" format="1">
  <advance width="500"/>
  <unicode hex="0111"/>
  <outline>
    <contour>
      <point x="356" y="351" type="curve" smooth="yes"/>
      <point x="356" y="384"/>
      <point x="351" y="418"/>
      <point x="309" y="418" type="curve" smooth="yes"/>
      <point x="199" y="418"/>
      <point x="102" y="205"/>
      <point x="102" y="111" type="curve" smooth="yes"/>
      <point x="102" y="70"/>
      <point x="116" y="37"/>
      <point x="163" y="37" type="curve" smooth="yes"/>
      <point x="275" y="37"/>
      <point x="356" y="260"/>
    </contour>
    <contour>
      <point x="363" y="60" type="curve" smooth="yes"/>
      <point x="363" y="49"/>
      <point x="371" y="40"/>
      <point x="381" y="40" type="curve" smooth="yes"/>
      <point x="398" y="40"/>
      <point x="409" y="49"/>
      <point x="463" y="111" type="curve"/>
      <point x="475" y="101" type="line"/>
      <point x="423" y="28"/>
      <point x="371" y="-13"/>
      <point x="329" y="-13" type="curve" smooth="yes"/>
      <point x="304" y="-13"/>
      <point x="287" y="5"/>
      <point x="287" y="32" type="curve" smooth="yes"/>
      <point x="287" y="55"/>
      <point x="289" y="70"/>
      <point x="300" y="121" type="curve"/>
      <point x="232" y="21"/>
      <point x="188" y="-11"/>
      <point x="120" y="-11" type="curve" smooth="yes"/>
      <point x="55" y="-11"/>
      <point x="15" y="32"/>
      <point x="15" y="103" type="curve" smooth="yes"/>
      <point x="15" y="253"/>
      <point x="177" y="441"/>
      <point x="307" y="441" type="curve" smooth="yes"/>
      <point x="346" y="441"/>
      <point x="364" y="425"/>
      <point x="372" y="383" type="curve"/>
      <point x="415" y="544" type="line"/>
      <point x="249" y="544" type="line"/>
      <point x="257" y="579" type="line"/>
      <point x="425" y="579" type="line"/>
      <point x="430" y="598"/>
      <point x="431" y="606"/>
      <point x="431" y="616" type="curve" smooth="yes"/>
      <point x="431" y="638"/>
      <point x="424" y="641"/>
      <point x="369" y="643" type="curve"/>
      <point x="369" y="660" type="line"/>
      <point x="433" y="666"/>
      <point x="469" y="672"/>
      <point x="522" y="683" type="curve"/>
      <point x="527" y="678" type="line"/>
      <point x="501" y="579" type="line"/>
      <point x="558" y="579" type="line"/>
      <point x="550" y="544" type="line"/>
      <point x="492" y="544" type="line"/>
      <point x="457" y="407"/>
      <point x="363" y="86"/>
    </contour>
  </outline>
</glyph>
<glyph name="ebreve" format="1">
  <advance width="443"/>
  <unicode hex="0115"/>
  <outline>
    <contour>
      <point x="358" y="109" type="curve"/>
      <point x="370" y="97" type="line"/>
      <point x="311" y="30"/>
      <point x="234" y="-11"/>
      <point x="163" y="-11" type="curve" smooth="yes"/>
      <point x="85" y="-11"/>
      <point x="31" y="45"/>
      <point x="31" y="126" type="curve" smooth="yes"/>
      <point x="31" y="276"/>
      <point x="188" y="441"/>
      <point x="332" y="441" type="curve" smooth="yes"/>
      <point x="382" y="441"/>
      <point x="412" y="415"/>
      <point x="412" y="373" type="curve" smooth="yes"/>
      <point x="412" y="287"/>
      <point x="306" y="211"/>
      <point x="156" y="190" type="curve" smooth="yes"/>
      <point x="128" y="186" type="line"/>
      <point x="120" y="154"/>
      <point x="118" y="139"/>
      <point x="118" y="124" type="curve" smooth="yes"/>
      <point x="118" y="70"/>
      <point x="155" y="34"/>
      <point x="212" y="34" type="curve" smooth="yes"/>
      <point x="255" y="34"/>
      <point x="286" y="50"/>
    </contour>
    <contour>
      <point x="152" y="252" type="curve" smooth="yes"/>
      <point x="135" y="208" type="line"/>
      <point x="221" y="229"/>
      <point x="259" y="247"/>
      <point x="296" y="282" type="curve" smooth="yes"/>
      <point x="327" y="312"/>
      <point x="346" y="348"/>
      <point x="346" y="379" type="curve" smooth="yes"/>
      <point x="346" y="402"/>
      <point x="332" y="418"/>
      <point x="311" y="418" type="curve" smooth="yes"/>
      <point x="260" y="418"/>
      <point x="186" y="341"/>
    </contour>
    <contour>
      <point x="516" y="649" type="line"/>
      <point x="486" y="565"/>
      <point x="430" y="493"/>
      <point x="333" y="493" type="curve" smooth="yes"/>
      <point x="268" y="493"/>
      <point x="226" y="530"/>
      <point x="226" y="596" type="curve" smooth="yes"/>
      <point x="226" y="609"/>
      <point x="229" y="638"/>
      <point x="235" y="649" type="curve"/>
      <point x="264" y="649" type="line"/>
      <point x="263" y="635" type="line" smooth="yes"/>
      <point x="262.886" y="632.914"/>
      <point x="262.83" y="630.868"/>
      <point x="262.83" y="628.862" type="curve" smooth="yes"/>
      <point x="262.83" y="577.991"/>
      <point x="299.01" y="553"/>
      <point x="350" y="553" type="curve" smooth="yes"/>
      <point x="422" y="553"/>
      <point x="452" y="594"/>
      <point x="487" y="649" type="curve"/>
    </contour>
  </outline>
</glyph>
<glyph name="Eogonek" format="1">
  <advance width="610"/>
  <unicode hex="0118"/>
  <outline>
    <contour>
      <point x="322" y="325" type="curve" smooth="yes"/>
      <point x="310" y="325"/>
      <point x="279" y="326"/>
      <point x="244" y="328" type="curve"/>
      <point x="234" y="290"/>
      <point x="176" y="90"/>
      <point x="176" y="67" type="curve" smooth="yes"/>
      <point x="176" y="43"/>
      <point x="200" y="33"/>
      <point x="256" y="33" type="curve" smooth="yes"/>
      <point x="331" y="33"/>
      <point x="399" y="43"/>
      <point x="436" y="60" type="curve" smooth="yes"/>
      <point x="479" y="80"/>
      <point x="505" y="106"/>
      <point x="552" y="170" type="curve"/>
      <point x="568" y="162" type="line"/>
      <point x="506" y="0" type="line" smooth="yes"/>
      <point x="497" y="-23"/>
      <point x="492" y="-44"/>
      <point x="492" y="-56" type="curve" smooth="yes"/>
      <point x="492" y="-85"/>
      <point x="517" y="-106"/>
      <point x="551" y="-106" type="curve" smooth="yes"/>
      <point x="582" y="-106"/>
      <point x="607" y="-96"/>
      <point x="634" y="-74" type="curve"/>
      <point x="651" y="-92" type="line"/>
      <point x="616" y="-143"/>
      <point x="574" y="-169"/>
      <point x="526" y="-169" type="curve" smooth="yes"/>
      <point x="473" y="-169"/>
      <point x="431" y="-126"/>
      <point x="431" y="-72" type="curve" smooth="yes"/>
      <point x="431" y="-45"/>
      <point x="438" y="-27"/>
      <point x="459" y="0" type="curve"/>
      <point x="-1" y="0" type="line"/>
      <point x="-1" y="16" type="line"/>
      <point x="55" y="26"/>
      <point x="63" y="33"/>
      <point x="80" y="90" type="curve" smooth="yes"/>
      <point x="203" y="532" type="line" smooth="yes"/>
      <point x="208" y="550"/>
      <point x="214" y="585"/>
      <point x="214" y="596" type="curve" smooth="yes"/>
      <point x="214" y="623"/>
      <point x="199" y="631"/>
      <point x="137" y="637" type="curve"/>
      <point x="137" y="653" type="line"/>
      <point x="634" y="653" type="line"/>
      <point x="603" y="500" type="line"/>
      <point x="582" y="502" type="line"/>
      <point x="583" y="519"/>
      <point x="584" y="534"/>
      <point x="584" y="547" type="curve" smooth="yes"/>
      <point x="584" y="607"/>
      <point x="549" y="620"/>
      <point x="392" y="620" type="curve" smooth="yes"/>
      <point x="336" y="620"/>
      <point x="325" y="616"/>
      <point x="319" y="594" type="curve" smooth="yes"/>
      <point x="253" y="361" type="line"/>
      <point x="288" y="362"/>
      <point x="320" y="363"/>
      <point x="332" y="363" type="curve" smooth="yes"/>
      <point x="423" y="367"/>
      <point x="432" y="373"/>
      <point x="470" y="458" type="curve"/>
      <point x="488" y="454" type="line"/>
      <point x="420" y="222" type="line"/>
      <point x="400" y="227" type="line"/>
      <point x="405" y="249"/>
      <point x="407" y="262"/>
      <point x="407" y="279" type="curve" smooth="yes"/>
      <point x="407" y="319"/>
      <point x="384" y="325"/>
    </contour>
  </outline>
</glyph>
<glyph name="Gdotaccent" format="1">
  <advance width="721"/>
  <unicode hex="0120"/>
  <outline>
    <contour>
      <point x="722" y="303" type="line"/>
      <point x="664" y="300"/>
      <point x="641" y="290"/>
      <point x="625" y="231" type="curve" smooth="yes"/>
      <point x="576" y="44" type="line"/>
      <point x="512" y="4"/>
      <point x="421" y="-18"/>
      <point x="345" y="-18" type="curve" smooth="yes"/>
      <point x="192" y="-18"/>
      <point x="52" y="76"/>
      <point x="52" y="240" type="curve" smooth="yes"/>
      <point x="52" y="458"/>
      <point x="233" y="666"/>
      <point x="457" y="666" type="curve" smooth="yes"/>
      <point x="525" y="666"/>
      <point x="591" y="632"/>
      <point x="630" y="632" type="curve" smooth="yes"/>
      <point x="657" y="632"/>
      <point x="679" y="643"/>
      <point x="693" y="666" type="curve"/>
      <point x="708" y="662" type="line"/>
      <point x="659" y="465" type="line"/>
      <point x="641" y="468" type="line"/>
      <point x="634" y="573"/>
      <point x="563" y="632"/>
      <point x="461" y="632" type="curve" smooth="yes"/>
      <point x="263" y="632"/>
      <point x="162" y="390"/>
      <point x="162" y="221" type="curve" smooth="yes"/>
      <point x="162" y="94"/>
      <point x="235" y="19"/>
      <point x="364" y="19" type="curve" smooth="yes"/>
      <point x="403" y="19"/>
      <point x="439" y="27"/>
      <point x="469" y="53" type="curve" smooth="yes"/>
      <point x="493" y="74"/>
      <point x="534" y="231"/>
      <point x="534" y="266" type="curve" smooth="yes"/>
      <point x="534" y="302"/>
      <point x="481" y="301"/>
      <point x="456" y="303" type="curve"/>
      <point x="456" y="319" type="line"/>
      <point x="722" y="319" type="line"/>
    </contour>
    <contour>
      <point x="554" y="768" type="curve" smooth="yes"/>
      <point x="554" y="741"/>
      <point x="533" y="720"/>
      <point x="506" y="720" type="curve" smooth="yes"/>
      <point x="479" y="720"/>
      <point x="458" y="741"/>
      <point x="458" y="768" type="curve" smooth="yes"/>
      <point x="458" y="795"/>
      <point x="479" y="816"/>
      <point x="506" y="816" type="curve" smooth="yes"/>
      <point x="533" y="816"/>
      <point x="554" y="795"/>
    </contour>
  </outline>
</glyph>
<glyph name="Hbar" format="1">
  <advance width="722"/>
  <unicode hex="0126"/>
  <outline>
    <contour>
      <point x="767" y="637" type="line"/>
      <point x="682" y="622"/>
      <point x="690" y="583"/>
      <point x="668" y="502" type="curve"/>
      <point x="718" y="502" type="line"/>
      <point x="706" y="460" type="line"/>
      <point x="657" y="460" type="line"/>
      <point x="640" y="398"/>
      <point x="549" y="102"/>
      <point x="549" y="58" type="curve" smooth="yes"/>
      <point x="549" y="18"/>
      <point x="599" y="19"/>
      <point x="628" y="16" type="curve"/>
      <point x="628" y="0" type="line"/>
      <point x="355" y="0" type="line"/>
      <point x="355" y="16" type="line"/>
      <point x="410" y="23"/>
      <point x="440" y="31"/>
      <point x="456" y="90" type="curve" smooth="yes"/>
      <point x="521" y="326" type="line"/>
      <point x="236" y="326" type="line"/>
      <point x="222" y="273"/>
      <point x="166" y="102"/>
      <point x="166" y="58" type="curve" smooth="yes"/>
      <point x="166" y="21"/>
      <point x="211" y="20"/>
      <point x="238" y="16" type="curve"/>
      <point x="238" y="0" type="line"/>
      <point x="-8" y="0" type="line"/>
      <point x="-8" y="16" type="line"/>
      <point x="47" y="26"/>
      <point x="57" y="34"/>
      <point x="73" y="90" type="curve" smooth="yes"/>
      <point x="176" y="460" type="line"/>
      <point x="126" y="460" type="line"/>
      <point x="138" y="502" type="line"/>
      <point x="188" y="502" type="line"/>
      <point x="195" y="530"/>
      <point x="207" y="565"/>
      <point x="207" y="594" type="curve" smooth="yes"/>
      <point x="207" y="635"/>
      <point x="160" y="635"/>
      <point x="130" y="637" type="curve"/>
      <point x="130" y="653" type="line"/>
      <point x="403" y="653" type="line"/>
      <point x="403" y="637" type="line"/>
      <point x="310" y="629"/>
      <point x="308" y="586"/>
      <point x="285" y="502" type="curve"/>
      <point x="571" y="502" type="line"/>
      <point x="578" y="530"/>
      <point x="590" y="565"/>
      <point x="590" y="594" type="curve" smooth="yes"/>
      <point x="590" y="633"/>
      <point x="550" y="634"/>
      <point x="520" y="637" type="curve"/>
      <point x="520" y="653" type="line"/>
      <point x="767" y="653" type="line"/>
    </contour>
    <contour>
      <point x="559" y="460" type="line"/>
      <point x="273" y="460" type="line"/>
      <point x="248" y="368" type="line"/>
      <point x="533" y="368" type="line"/>
    </contour>
  </outline>
</glyph>
<glyph name="Itilde" format="1">
  <advance width="338"/>
  <unicode hex="0128"/>
  <outline>
    <contour>
      <point x="-8" y="0" type="line"/>
      <point x="-8" y="16" type="line"/>
      <point x="48" y="26"/>
      <point x="57" y="31"/>
      <point x="73" y="90" type="curve" smooth="yes"/>
      <point x="196" y="532" type="line" smooth="yes"/>
      <point x="203" y="557"/>
      <point x="207" y="580"/>
      <point x="207" y="594" type="curve" smooth="yes"/>
      <point x="207" y="622"/>
      <point x="195" y="630"/>
      <point x="137" y="637" type="curve"/>
      <point x="137" y="653" type="line"/>
      <point x="384" y="653" type="line"/>
      <point x="384" y="637" type="line"/>
      <point x="327" y="627"/>
      <point x="318" y="622"/>
      <point x="302" y="563" type="curve" smooth="yes"/>
      <point x="179" y="120" type="line" smooth="yes"/>
      <point x="170" y="88"/>
      <point x="168" y="76"/>
      <point x="168" y="57" type="curve" smooth="yes"/>
      <point x="168" y="29"/>
      <point x="179" y="23"/>
      <point x="236" y="16" type="curve"/>
      <point x="236" y="0" type="line"/>
    </contour>
    <contour>
      <point x="439" y="836" type="curve"/>
      <point x="467" y="836" type="line"/>
      <point x="453" y="769"/>
      <point x="420" y="732"/>
      <point x="372" y="732" type="curve" smooth="yes"/>
      <point x="360" y="732"/>
      <point x="341" y="737"/>
      <point x="315" y="747" type="curve" smooth="yes"/>
      <point x="261" y="769"/>
      <point x="237" y="776"/>
      <point x="220" y="776" type="curve" smooth="yes"/>
      <point x="195" y="776"/>
      <point x="179" y="761"/>
      <point x="169" y="729" type="curve"/>
      <point x="140" y="729" type="line"/>
      <point x="160" y="806"/>
      <point x="188" y="835"/>
      <point x="240" y="835" type="curve" smooth="yes"/>
      <point x="262" y="835"/>
      <point x="288" y="828"/>
      <point x="326" y="811" type="curve" smooth="yes"/>
      <point x="356" y="797"/>
      <point x="373" y="792"/>
      <point x="388" y="792" type="curve" smooth="yes"/>
      <point x="415" y="792"/>
      <point x="428" y="803"/>
    </contour>
  </outline>
</glyph>
<glyph name="Ibreve" format="1">
  <advance width="338"/>
  <unicode hex="012C"/>
  <outline>
    <contour>
      <point x="-8" y="0" type="line"/>
      <point x="-8" y="16" type="line"/>
      <point x="48" y="26"/>
      <point x="57" y="31"/>
      <point x="73" y="90" type="curve" smooth="yes"/>
      <point x="196" y="532" type="line" smooth="yes"/>
      <point x="203" y="557"/>
      <point x="207" y="580"/>
      <point x="207" y="594" type="curve" smooth="yes"/>
      <point x="207" y="622"/>
      <point x="195" y="630"/>
      <point x="137" y="637" type="curve"/>
      <point x="137" y="653" type="line"/>
      <point x="384" y="653" type="line"/>
      <point x="384" y="637" type="line"/>
      <point x="327" y="627"/>
      <point x="318" y="622"/>
      <point x="302" y="563" type="curve" smooth="yes"/>
      <point x="179" y="120" type="line" smooth="yes"/>
      <point x="170" y="88"/>
      <point x="168" y="76"/>
      <point x="168" y="57" type="curve" smooth="yes"/>
      <point x="168" y="29"/>
      <point x="179" y="23"/>
      <point x="236" y="16" type="curve"/>
      <point x="236" y="0" type="line"/>
    </contour>
    <contour>
      <point x="468" y="861" type="line"/>
      <point x="438" y="777"/>
      <point x="382" y="705"/>
      <point x="285" y="705" type="curve" smooth="yes"/>
      <point x="220" y="705"/>
      <point x="178" y="742"/>
      <point x="178" y="808" type="curve" smooth="yes"/>
      <point x="178" y="821"/>
      <point x="181" y="850"/>
      <point x="187" y="861" type="curve"/>
      <point x="216" y="861" type="line"/>
      <point x="215" y="847" type="line" smooth="yes"/>
      <point x="214.886" y="844.914"/>
      <point x="214.83" y="842.868"/>
      <point x="214.83" y="840.862" type="curve" smooth="yes"/>
      <point x="214.83" y="789.991"/>
      <point x="251.01" y="765"/>
      <point x="302" y="765" type="curve" smooth="yes"/>
      <point x="374" y="765"/>
      <point x="404" y="806"/>
      <point x="439" y="861" type="curve"/>
    </contour>
  </outline>
</glyph>
<glyph name="ibreve" format="1">
  <advance width="277"/>
  <unicode hex="012D"/>
  <outline>
    <contour>
      <point x="124" y="51" type="curve" smooth="yes"/>
      <point x="124" y="44"/>
      <point x="132" y="36"/>
      <point x="140" y="36" type="curve" smooth="yes"/>
      <point x="149" y="36"/>
      <point x="164" y="46"/>
      <point x="181" y="63" type="curve" smooth="yes"/>
      <point x="191" y="74"/>
      <point x="198" y="82"/>
      <point x="222" y="114" type="curve"/>
      <point x="235" y="103" type="line"/>
      <point x="178" y="19"/>
      <point x="141" y="-11"/>
      <point x="95" y="-11" type="curve" smooth="yes"/>
      <point x="65" y="-11"/>
      <point x="49" y="9"/>
      <point x="49" y="46" type="curve" smooth="yes"/>
      <point x="49" y="66"/>
      <point x="55" y="97"/>
      <point x="71" y="155" type="curve" smooth="yes"/>
      <point x="119" y="332" type="line" smooth="yes"/>
      <point x="125" y="352"/>
      <point x="128" y="368"/>
      <point x="128" y="376" type="curve" smooth="yes"/>
      <point x="128" y="396"/>
      <point x="118" y="399"/>
      <point x="65" y="400" type="curve"/>
      <point x="65" y="416" type="line"/>
      <point x="104" y="419"/>
      <point x="124" y="422"/>
      <point x="225" y="441" type="curve"/>
      <point x="228" y="439" type="line"/>
      <point x="140" y="117" type="line" smooth="yes"/>
      <point x="120" y="44"/>
      <point x="124" y="61"/>
    </contour>
    <contour>
      <point x="376" y="649" type="line"/>
      <point x="346" y="565"/>
      <point x="290" y="493"/>
      <point x="193" y="493" type="curve" smooth="yes"/>
      <point x="128" y="493"/>
      <point x="86" y="530"/>
      <point x="86" y="596" type="curve" smooth="yes"/>
      <point x="86" y="609"/>
      <point x="89" y="638"/>
      <point x="95" y="649" type="curve"/>
      <point x="124" y="649" type="line"/>
      <point x="123" y="635" type="line" smooth="yes"/>
      <point x="122.886" y="632.914"/>
      <point x="122.83" y="630.868"/>
      <point x="122.83" y="628.862" type="curve" smooth="yes"/>
      <point x="122.83" y="577.991"/>
      <point x="159.01" y="553"/>
      <point x="210" y="553" type="curve" smooth="yes"/>
      <point x="282" y="553"/>
      <point x="312" y="594"/>
      <point x="347" y="649" type="curve"/>
    </contour>
  </outline>
</glyph>
<glyph name="Iogonek" format="1">
  <advance width="332"/>
  <unicode hex="012E"/>
  <outline>
    <contour>
      <point x="137" y="653" type="line"/>
      <point x="384" y="653" type="line"/>
      <point x="384" y="637" type="line"/>
      <point x="327" y="627"/>
      <point x="318" y="622"/>
      <point x="302" y="563" type="curve" smooth="yes"/>
      <point x="179" y="120" type="line" smooth="yes"/>
      <point x="170" y="88"/>
      <point x="168" y="76"/>
      <point x="168" y="57" type="curve" smooth="yes"/>
      <point x="168" y="29"/>
      <point x="179" y="23"/>
      <point x="236" y="16" type="curve"/>
      <point x="236" y="0" type="line"/>
      <point x="225" y="-14"/>
      <point x="220" y="-29"/>
      <point x="220" y="-49" type="curve" smooth="yes"/>
      <point x="220" y="-85"/>
      <point x="242" y="-106"/>
      <point x="279" y="-106" type="curve" smooth="yes"/>
      <point x="310" y="-106"/>
      <point x="335" y="-96"/>
      <point x="362" y="-74" type="curve"/>
      <point x="379" y="-92" type="line"/>
      <point x="344" y="-143"/>
      <point x="302" y="-169"/>
      <point x="254" y="-169" type="curve" smooth="yes"/>
      <point x="202" y="-169"/>
      <point x="159" y="-126"/>
      <point x="159" y="-73" type="curve" smooth="yes"/>
      <point x="159" y="-46"/>
      <point x="165" y="-31"/>
      <point x="186" y="0" type="curve"/>
      <point x="-8" y="0" type="line"/>
      <point x="-8" y="16" type="line"/>
      <point x="48" y="26"/>
      <point x="57" y="31"/>
      <point x="73" y="90" type="curve" smooth="yes"/>
      <point x="196" y="532" type="line" smooth="yes"/>
      <point x="203" y="557"/>
      <point x="207" y="580"/>
      <point x="207" y="594" type="curve" smooth="yes"/>
      <point x="207" y="622"/>
      <point x="195" y="630"/>
      <point x="137" y="637" type="curve"/>
    </contour>
  </outline>
</glyph>
<glyph name="Idotaccent" format="1">
  <advance width="338"/>
  <unicode hex="0130"/>
  <outline>
    <contour>
      <point x="-8" y="0" type="line"/>
      <point x="-8" y="16" type="line"/>
      <point x="48" y="26"/>
      <point x="57" y="31"/>
      <point x="73" y="90" type="curve" smooth="yes"/>
      <point x="196" y="532" type="line" smooth="yes"/>
      <point x="203" y="557"/>
      <point x="207" y="580"/>
      <point x="207" y="594" type="curve" smooth="yes"/>
      <point x="207" y="622"/>
      <point x="195" y="630"/>
      <point x="137" y="637" type="curve"/>
      <point x="137" y="653" type="line"/>
      <point x="384" y="653" type="line"/>
      <point x="384" y="637" type="line"/>
      <point x="327" y="627"/>
      <point x="318" y="622"/>
      <point x="302" y="563" type="curve" smooth="yes"/>
      <point x="179" y="120" type="line" smooth="yes"/>
      <point x="170" y="88"/>
      <point x="168" y="76"/>
      <point x="168" y="57" type="curve" smooth="yes"/>
      <point x="168" y="29"/>
      <point x="179" y="23"/>
      <point x="236" y="16" type="curve"/>
      <point x="236" y="0" type="line"/>
    </contour>
    <contour>
      <point x="344" y="768" type="curve" smooth="yes"/>
      <point x="344" y="741"/>
      <point x="323" y="720"/>
      <point x="296" y="720" type="curve" smooth="yes"/>
      <point x="269" y="720"/>
      <point x="248" y="741"/>
      <point x="248" y="768" type="curve" smooth="yes"/>
      <point x="248" y="795"/>
      <point x="269" y="816"/>
      <point x="296" y="816" type="curve" smooth="yes"/>
      <point x="323" y="816"/>
      <point x="344" y="795"/>
    </contour>
  </outline>
</glyph>
<glyph name="IJ" format="1">
  <advance width="706"/>
  <unicode hex="0132"/>
  <outline>
    <contour>
      <point x="754" y="653" type="line"/>
      <point x="754" y="637" type="line"/>
      <point x="697" y="629"/>
      <point x="690" y="623"/>
      <point x="672" y="563" type="curve" smooth="yes"/>
      <point x="569" y="192" type="line" smooth="yes"/>
      <point x="548" y="116"/>
      <point x="528" y="71"/>
      <point x="501" y="39" type="curve" smooth="yes"/>
      <point x="470" y="2"/>
      <point x="425" y="-18"/>
      <point x="374" y="-18" type="curve" smooth="yes"/>
      <point x="304" y="-18"/>
      <point x="257" y="18"/>
      <point x="257" y="70" type="curve" smooth="yes"/>
      <point x="257" y="102"/>
      <point x="276" y="124"/>
      <point x="303" y="124" type="curve" smooth="yes"/>
      <point x="328" y="124"/>
      <point x="351" y="102"/>
      <point x="351" y="77" type="curve" smooth="yes"/>
      <point x="351" y="68" type="line" smooth="yes"/>
      <point x="350" y="62"/>
      <point x="350" y="58"/>
      <point x="350" y="53" type="curve" smooth="yes"/>
      <point x="350" y="26"/>
      <point x="361" y="13"/>
      <point x="385" y="13" type="curve" smooth="yes"/>
      <point x="409" y="13"/>
      <point x="423" y="28"/>
      <point x="434" y="67" type="curve" smooth="yes"/>
      <point x="565" y="532" type="line" smooth="yes"/>
      <point x="573" y="560"/>
      <point x="577" y="582"/>
      <point x="577" y="596" type="curve" smooth="yes"/>
      <point x="577" y="623"/>
      <point x="563" y="631"/>
      <point x="500" y="637" type="curve"/>
      <point x="500" y="653" type="line"/>
    </contour>
    <contour>
      <point x="-8" y="0" type="line"/>
      <point x="-8" y="16" type="line"/>
      <point x="48" y="26"/>
      <point x="57" y="31"/>
      <point x="73" y="90" type="curve" smooth="yes"/>
      <point x="196" y="532" type="line" smooth="yes"/>
      <point x="203" y="557"/>
      <point x="207" y="580"/>
      <point x="207" y="594" type="curve" smooth="yes"/>
      <point x="207" y="622"/>
      <point x="195" y="630"/>
      <point x="137" y="637" type="curve"/>
      <point x="137" y="653" type="line"/>
      <point x="384" y="653" type="line"/>
      <point x="384" y="637" type="line"/>
      <point x="327" y="627"/>
      <point x="318" y="622"/>
      <point x="302" y="563" type="curve" smooth="yes"/>
      <point x="179" y="120" type="line" smooth="yes"/>
      <point x="170" y="88"/>
      <point x="168" y="76"/>
      <point x="168" y="57" type="curve" smooth="yes"/>
      <point x="168" y="29"/>
      <point x="179" y="23"/>
      <point x="236" y="16" type="curve"/>
      <point x="236" y="0" type="line"/>
    </contour>
  </outline>
</glyph>
<glyph name="kgreenlandic" format="1">
  <advance width="443"/>
  <unicode hex="0138"/>
  <outline>
    <contour>
      <point x="206" y="439" type="line"/>
      <point x="147" y="221" type="line"/>
      <point x="164" y="233"/>
      <point x="176" y="243"/>
      <point x="190" y="254" type="curve" smooth="yes"/>
      <point x="283" y="325"/>
      <point x="333" y="374"/>
      <point x="333" y="394" type="curve" smooth="yes"/>
      <point x="333" y="405"/>
      <point x="319" y="412"/>
      <point x="294" y="412" type="curve" smooth="yes"/>
      <point x="278" y="412" type="line"/>
      <point x="278" y="428" type="line"/>
      <point x="461" y="428" type="line"/>
      <point x="461" y="412" type="line"/>
      <point x="414" y="409"/>
      <point x="383" y="389"/>
      <point x="236" y="258" type="curve"/>
      <point x="253" y="219"/>
      <point x="268" y="183"/>
      <point x="273" y="170" type="curve" smooth="yes"/>
      <point x="312" y="74"/>
      <point x="333" y="41"/>
      <point x="354" y="41" type="curve" smooth="yes"/>
      <point x="369" y="41"/>
      <point x="381" y="52"/>
      <point x="399" y="83" type="curve" smooth="yes"/>
      <point x="414" y="109" type="line"/>
      <point x="429" y="98" type="line"/>
      <point x="384" y="14"/>
      <point x="358" y="-11"/>
      <point x="318" y="-11" type="curve" smooth="yes"/>
      <point x="289" y="-11"/>
      <point x="271" y="8"/>
      <point x="239" y="71" type="curve" smooth="yes"/>
      <point x="221" y="107"/>
      <point x="195" y="168"/>
      <point x="179" y="212" type="curve"/>
      <point x="137" y="180" type="line"/>
      <point x="89" y="0" type="line"/>
      <point x="14" y="0" type="line"/>
      <point x="105" y="350" type="line" smooth="yes"/>
      <point x="106" y="355"/>
      <point x="107" y="361"/>
      <point x="107" y="367" type="curve" smooth="yes"/>
      <point x="107" y="387"/>
      <point x="94" y="393"/>
      <point x="43" y="394" type="curve"/>
      <point x="43" y="410" type="line"/>
      <point x="130" y="426"/>
      <point x="149" y="430"/>
      <point x="203" y="441" type="curve"/>
    </contour>
  </outline>
</glyph>
<glyph name="Lcedilla" format="1">
  <advance width="555"/>
  <unicode hex="013B"/>
  <outline>
    <contour>
      <point x="166" y="-212" type="curve"/>
      <point x="158" y="-197" type="line"/>
      <point x="198" y="-186"/>
      <point x="223" y="-167"/>
      <point x="223" y="-143" type="curve" smooth="yes"/>
      <point x="223" y="-139"/>
      <point x="223" y="-130"/>
      <point x="214" y="-125" type="curve" smooth="yes"/>
      <point x="196" y="-116"/>
      <point x="184" y="-106"/>
      <point x="184" y="-82" type="curve" smooth="yes"/>
      <point x="184" y="-58"/>
      <point x="204" y="-40"/>
      <point x="230" y="-40" type="curve" smooth="yes"/>
      <point x="260" y="-40"/>
      <point x="279" y="-67"/>
      <point x="279" y="-102" type="curve" smooth="yes"/>
      <point x="279" y="-155"/>
      <point x="236" y="-190"/>
    </contour>
    <contour>
      <point x="403" y="653" type="line"/>
      <point x="403" y="637" type="line"/>
      <point x="343" y="633"/>
      <point x="317" y="614"/>
      <point x="302" y="563" type="curve" smooth="yes"/>
      <point x="179" y="120" type="line" smooth="yes"/>
      <point x="174" y="101"/>
      <point x="169" y="77"/>
      <point x="169" y="70" type="curve" smooth="yes"/>
      <point x="169" y="44"/>
      <point x="194" y="36"/>
      <point x="270" y="36" type="curve" smooth="yes"/>
      <point x="357" y="36"/>
      <point x="398" y="42"/>
      <point x="433" y="59" type="curve" smooth="yes"/>
      <point x="477" y="81"/>
      <point x="504" y="113"/>
      <point x="539" y="185" type="curve"/>
      <point x="559" y="179" type="line"/>
      <point x="501" y="0" type="line"/>
      <point x="-8" y="0" type="line"/>
      <point x="-8" y="16" type="line"/>
      <point x="48" y="26"/>
      <point x="57" y="31"/>
      <point x="73" y="90" type="curve" smooth="yes"/>
      <point x="196" y="532" type="line" smooth="yes"/>
      <point x="203" y="557"/>
      <point x="207" y="580"/>
      <point x="207" y="594" type="curve" smooth="yes"/>
      <point x="207" y="623"/>
      <point x="192" y="631"/>
      <point x="130" y="637" type="curve"/>
      <point x="130" y="653" type="line"/>
    </contour>
  </outline>
</glyph>
<glyph name="Lcaron" format="1">
  <advance width="555"/>
  <unicode hex="013D"/>
  <outline>
    <contour>
      <point x="470" y="456" type="curve"/>
      <point x="461" y="473" type="line"/>
      <point x="510" y="492"/>
      <point x="532" y="512"/>
      <point x="532" y="539" type="curve" smooth="yes"/>
      <point x="532" y="549"/>
      <point x="525" y="556"/>
      <point x="516" y="563" type="curve" smooth="yes"/>
      <point x="495" y="579"/>
      <point x="487" y="594"/>
      <point x="487" y="618" type="curve" smooth="yes"/>
      <point x="487" y="645"/>
      <point x="509" y="665"/>
      <point x="538" y="665" type="curve" smooth="yes"/>
      <point x="571" y="665"/>
      <point x="596" y="634"/>
      <point x="596" y="594" type="curve" smooth="yes"/>
      <point x="596" y="538"/>
      <point x="556" y="490"/>
    </contour>
    <contour>
      <point x="403" y="653" type="line"/>
      <point x="403" y="637" type="line"/>
      <point x="343" y="633"/>
      <point x="317" y="614"/>
      <point x="302" y="563" type="curve" smooth="yes"/>
      <point x="179" y="120" type="line" smooth="yes"/>
      <point x="174" y="101"/>
      <point x="169" y="77"/>
      <point x="169" y="70" type="curve" smooth="yes"/>
      <point x="169" y="44"/>
      <point x="194" y="36"/>
      <point x="270" y="36" type="curve" smooth="yes"/>
      <point x="357" y="36"/>
      <point x="398" y="42"/>
      <point x="433" y="59" type="curve" smooth="yes"/>
      <point x="477" y="81"/>
      <point x="504" y="113"/>
      <point x="539" y="185" type="curve"/>
      <point x="559" y="179" type="line"/>
      <point x="501" y="0" type="line"/>
      <point x="-8" y="0" type="line"/>
      <point x="-8" y="16" type="line"/>
      <point x="48" y="26"/>
      <point x="57" y="31"/>
      <point x="73" y="90" type="curve" smooth="yes"/>
      <point x="196" y="532" type="line" smooth="yes"/>
      <point x="203" y="557"/>
      <point x="207" y="580"/>
      <point x="207" y="594" type="curve" smooth="yes"/>
      <point x="207" y="623"/>
      <point x="192" y="631"/>
      <point x="130" y="637" type="curve"/>
      <point x="130" y="653" type="line"/>
    </contour>
  </outline>
</glyph>
<glyph name="Ldot" format="1">
  <advance width="555"/>
  <unicode hex="013F"/>
  <outline>
    <contour>
      <point x="401" y="382" type="curve" smooth="yes"/>
      <point x="431" y="382"/>
      <point x="457" y="356"/>
      <point x="457" y="325" type="curve" smooth="yes"/>
      <point x="457" y="296"/>
      <point x="431" y="271"/>
      <point x="400" y="271" type="curve" smooth="yes"/>
      <point x="371" y="271"/>
      <point x="346" y="296"/>
      <point x="346" y="325" type="curve" smooth="yes"/>
      <point x="346" y="356"/>
      <point x="371" y="382"/>
    </contour>
    <contour>
      <point x="403" y="653" type="line"/>
      <point x="403" y="637" type="line"/>
      <point x="343" y="633"/>
      <point x="317" y="614"/>
      <point x="302" y="563" type="curve" smooth="yes"/>
      <point x="179" y="120" type="line" smooth="yes"/>
      <point x="174" y="101"/>
      <point x="169" y="77"/>
      <point x="169" y="70" type="curve" smooth="yes"/>
      <point x="169" y="44"/>
      <point x="194" y="36"/>
      <point x="270" y="36" type="curve" smooth="yes"/>
      <point x="357" y="36"/>
      <point x="398" y="42"/>
      <point x="433" y="59" type="curve" smooth="yes"/>
      <point x="477" y="81"/>
      <point x="504" y="113"/>
      <point x="539" y="185" type="curve"/>
      <point x="559" y="179" type="line"/>
      <point x="501" y="0" type="line"/>
      <point x="-8" y="0" type="line"/>
      <point x="-8" y="16" type="line"/>
      <point x="48" y="26"/>
      <point x="57" y="31"/>
      <point x="73" y="90" type="curve" smooth="yes"/>
      <point x="196" y="532" type="line" smooth="yes"/>
      <point x="203" y="557"/>
      <point x="207" y="580"/>
      <point x="207" y="594" type="curve" smooth="yes"/>
      <point x="207" y="623"/>
      <point x="192" y="631"/>
      <point x="130" y="637" type="curve"/>
      <point x="130" y="653" type="line"/>
    </contour>
  </outline>
</glyph>
<glyph name="ldot" format="1">
  <advance width="527"/>
  <unicode hex="0140"/>
  <outline>
    <contour>
      <point x="403" y="310" type="curve" smooth="yes"/>
      <point x="433" y="310"/>
      <point x="459" y="284"/>
      <point x="459" y="253" type="curve" smooth="yes"/>
      <point x="459" y="224"/>
      <point x="433" y="199"/>
      <point x="402" y="199" type="curve" smooth="yes"/>
      <point x="373" y="199"/>
      <point x="348" y="224"/>
      <point x="348" y="253" type="curve" smooth="yes"/>
      <point x="348" y="284"/>
      <point x="373" y="310"/>
    </contour>
    <contour>
      <point x="228" y="123" type="curve"/>
      <point x="241" y="114" type="line"/>
      <point x="176" y="18"/>
      <point x="141" y="-11"/>
      <point x="89" y="-11" type="curve" smooth="yes"/>
      <point x="57" y="-11"/>
      <point x="40" y="9"/>
      <point x="40" y="45" type="curve" smooth="yes"/>
      <point x="40" y="50"/>
      <point x="42" y="60"/>
      <point x="45" y="71" type="curve" smooth="yes"/>
      <point x="182" y="599" type="line" smooth="yes"/>
      <point x="185" y="608"/>
      <point x="186" y="614"/>
      <point x="186" y="617" type="curve" smooth="yes"/>
      <point x="186" y="633"/>
      <point x="166" y="640"/>
      <point x="118" y="640" type="curve"/>
      <point x="118" y="656" type="line"/>
      <point x="177" y="663"/>
      <point x="215" y="670"/>
      <point x="274" y="683" type="curve"/>
      <point x="279" y="678" type="line"/>
      <point x="128" y="99" type="line" smooth="yes"/>
      <point x="127" y="97"/>
      <point x="117" y="60"/>
      <point x="117" y="50" type="curve" smooth="yes"/>
      <point x="117" y="39"/>
      <point x="122" y="32"/>
      <point x="132" y="32" type="curve" smooth="yes"/>
      <point x="150" y="32"/>
      <point x="169" y="47"/>
      <point x="201" y="89" type="curve" smooth="yes"/>
      <point x="210" y="101"/>
      <point x="219" y="112"/>
    </contour>
  </outline>
</glyph>
<glyph name="nacute" format="1">
  <advance width="500"/>
  <unicode hex="0144"/>
  <outline>
    <contour>
      <point x="460" y="117" type="line"/>
      <point x="474" y="104" type="line"/>
      <point x="405" y="12"/>
      <point x="379" y="-9"/>
      <point x="334" y="-9" type="curve" smooth="yes"/>
      <point x="301" y="-9"/>
      <point x="287" y="7"/>
      <point x="287" y="45" type="curve" smooth="yes"/>
      <point x="287" y="55"/>
      <point x="290" y="69"/>
      <point x="303" y="120" type="curve" smooth="yes"/>
      <point x="347" y="285" type="line" smooth="yes"/>
      <point x="355" y="316"/>
      <point x="361" y="349"/>
      <point x="361" y="361" type="curve" smooth="yes"/>
      <point x="361" y="379"/>
      <point x="352" y="390"/>
      <point x="337" y="390" type="curve" smooth="yes"/>
      <point x="300" y="390"/>
      <point x="249" y="340"/>
      <point x="189" y="248" type="curve" smooth="yes"/>
      <point x="145" y="180"/>
      <point x="136" y="158"/>
      <point x="89" y="0" type="curve"/>
      <point x="14" y="0" type="line"/>
      <point x="110" y="350" type="line" smooth="yes"/>
      <point x="111" y="355"/>
      <point x="112" y="361"/>
      <point x="112" y="367" type="curve" smooth="yes"/>
      <point x="112" y="387"/>
      <point x="99" y="393"/>
      <point x="48" y="394" type="curve"/>
      <point x="48" y="410" type="line"/>
      <point x="135" y="426"/>
      <point x="156" y="430"/>
      <point x="210" y="441" type="curve"/>
      <point x="213" y="439" type="line"/>
      <point x="146" y="221" type="line"/>
      <point x="249" y="381"/>
      <point x="312" y="441"/>
      <point x="376" y="441" type="curve" smooth="yes"/>
      <point x="415" y="441"/>
      <point x="442" y="416"/>
      <point x="442" y="380" type="curve" smooth="yes"/>
      <point x="442" y="366"/>
      <point x="438" y="344"/>
      <point x="433" y="323" type="curve" smooth="yes"/>
      <point x="376" y="117" type="line" smooth="yes"/>
      <point x="362" y="61"/>
      <point x="362" y="61"/>
      <point x="362" y="54" type="curve" smooth="yes"/>
      <point x="362" y="46"/>
      <point x="370" y="38"/>
      <point x="378" y="38" type="curve" smooth="yes"/>
      <point x="392" y="38"/>
      <point x="410" y="54"/>
      <point x="439" y="91" type="curve" smooth="yes"/>
    </contour>
    <contour>
      <point x="236" y="494" type="line"/>
      <point x="398" y="654" type="line" smooth="yes"/>
      <point x="405" y="660"/>
      <point x="413" y="664"/>
      <point x="423" y="664" type="curve" smooth="yes"/>
      <point x="443" y="664"/>
      <point x="459" y="648"/>
      <point x="459" y="628" type="curve" smooth="yes"/>
      <point x="459" y="616"/>
      <point x="454" y="607"/>
      <point x="442" y="600" type="curve" smooth="yes"/>
      <point x="271" y="494" type="line"/>
    </contour>
  </outline>
</glyph>
<glyph name="Ncedilla" format="1">
  <advance width="656"/>
  <unicode hex="0145"/>
  <outline>
    <contour>
      <point x="198" y="-212" type="curve"/>
      <point x="190" y="-197" type="line"/>
      <point x="230" y="-186"/>
      <point x="255" y="-167"/>
      <point x="255" y="-143" type="curve" smooth="yes"/>
      <point x="255" y="-139"/>
      <point x="255" y="-130"/>
      <point x="246" y="-125" type="curve" smooth="yes"/>
      <point x="228" y="-116"/>
      <point x="216" y="-106"/>
      <point x="216" y="-82" type="curve" smooth="yes"/>
      <point x="216" y="-58"/>
      <point x="236" y="-40"/>
      <point x="262" y="-40" type="curve" smooth="yes"/>
      <point x="292" y="-40"/>
      <point x="311" y="-67"/>
      <point x="311" y="-102" type="curve" smooth="yes"/>
      <point x="311" y="-155"/>
      <point x="268" y="-190"/>
    </contour>
    <contour>
      <point x="600" y="586" type="curve" smooth="yes"/>
      <point x="600" y="622"/>
      <point x="587" y="632"/>
      <point x="530" y="637" type="curve"/>
      <point x="530" y="653" type="line"/>
      <point x="729" y="653" type="line"/>
      <point x="729" y="637" type="line"/>
      <point x="666" y="623"/>
      <point x="662" y="617"/>
      <point x="625" y="488" type="curve" smooth="yes"/>
      <point x="481" y="-15" type="line"/>
      <point x="463" y="-15" type="line"/>
      <point x="233" y="535" type="line"/>
      <point x="119" y="113" type="line" smooth="yes"/>
      <point x="113" y="92"/>
      <point x="110" y="72"/>
      <point x="110" y="59" type="curve" smooth="yes"/>
      <point x="110" y="31"/>
      <point x="129" y="20"/>
      <point x="180" y="16" type="curve"/>
      <point x="180" y="0" type="line"/>
      <point x="-18" y="0" type="line"/>
      <point x="-18" y="16" type="line"/>
      <point x="39" y="24"/>
      <point x="47" y="36"/>
      <point x="85" y="164" type="curve" smooth="yes"/>
      <point x="204" y="581" type="line"/>
      <point x="186" y="620"/>
      <point x="165" y="633"/>
      <point x="118" y="637" type="curve"/>
      <point x="118" y="653" type="line"/>
      <point x="279" y="653" type="line"/>
      <point x="487" y="154" type="line"/>
      <point x="589" y="534" type="line" smooth="yes"/>
      <point x="589" y="535"/>
      <point x="600" y="574"/>
    </contour>
  </outline>
</glyph>
<glyph name="Ncaron" format="1">
  <advance width="656"/>
  <unicode hex="0147"/>
  <outline>
    <contour>
      <point x="600" y="586" type="curve" smooth="yes"/>
      <point x="600" y="622"/>
      <point x="587" y="632"/>
      <point x="530" y="637" type="curve"/>
      <point x="530" y="653" type="line"/>
      <point x="729" y="653" type="line"/>
      <point x="729" y="637" type="line"/>
      <point x="666" y="623"/>
      <point x="662" y="617"/>
      <point x="625" y="488" type="curve" smooth="yes"/>
      <point x="481" y="-15" type="line"/>
      <point x="463" y="-15" type="line"/>
      <point x="233" y="535" type="line"/>
      <point x="119" y="113" type="line" smooth="yes"/>
      <point x="113" y="92"/>
      <point x="110" y="72"/>
      <point x="110" y="59" type="curve" smooth="yes"/>
      <point x="110" y="31"/>
      <point x="129" y="20"/>
      <point x="180" y="16" type="curve"/>
      <point x="180" y="0" type="line"/>
      <point x="-18" y="0" type="line"/>
      <point x="-18" y="16" type="line"/>
      <point x="39" y="24"/>
      <point x="47" y="36"/>
      <point x="85" y="164" type="curve" smooth="yes"/>
      <point x="204" y="581" type="line"/>
      <point x="186" y="620"/>
      <point x="165" y="633"/>
      <point x="118" y="637" type="curve"/>
      <point x="118" y="653" type="line"/>
      <point x="279" y="653" type="line"/>
      <point x="487" y="154" type="line"/>
      <point x="589" y="534" type="line" smooth="yes"/>
      <point x="589" y="535"/>
      <point x="600" y="574"/>
    </contour>
    <contour>
      <point x="634" y="873" type="line"/>
      <point x="471" y="704" type="line"/>
      <point x="425" y="704" type="line"/>
      <point x="329" y="873" type="line"/>
      <point x="366" y="873" type="line"/>
      <point x="456" y="768" type="line"/>
      <point x="598" y="873" type="line"/>
    </contour>
  </outline>
</glyph>
<glyph name="napostrophe" format="1">
  <advance width="513"/>
  <unicode hex="0149"/>
  <outline>
    <contour>
      <point x="31" y="492" type="curve"/>
      <point x="22" y="509" type="line"/>
      <point x="71" y="528"/>
      <point x="93" y="548"/>
      <point x="93" y="575" type="curve" smooth="yes"/>
      <point x="93" y="585"/>
      <point x="86" y="592"/>
      <point x="77" y="599" type="curve" smooth="yes"/>
      <point x="56" y="615"/>
      <point x="48" y="630"/>
      <point x="48" y="654" type="curve" smooth="yes"/>
      <point x="48" y="681"/>
      <point x="70" y="701"/>
      <point x="99" y="701" type="curve" smooth="yes"/>
      <point x="132" y="701"/>
      <point x="157" y="670"/>
      <point x="157" y="630" type="curve" smooth="yes"/>
      <point x="157" y="574"/>
      <point x="117" y="526"/>
    </contour>
    <contour>
      <point x="473" y="117" type="line"/>
      <point x="487" y="104" type="line"/>
      <point x="418" y="12"/>
      <point x="392" y="-9"/>
      <point x="347" y="-9" type="curve" smooth="yes"/>
      <point x="314" y="-9"/>
      <point x="300" y="7"/>
      <point x="300" y="45" type="curve" smooth="yes"/>
      <point x="300" y="55"/>
      <point x="303" y="69"/>
      <point x="316" y="120" type="curve" smooth="yes"/>
      <point x="360" y="285" type="line" smooth="yes"/>
      <point x="368" y="316"/>
      <point x="374" y="349"/>
      <point x="374" y="361" type="curve" smooth="yes"/>
      <point x="374" y="379"/>
      <point x="365" y="390"/>
      <point x="350" y="390" type="curve" smooth="yes"/>
      <point x="313" y="390"/>
      <point x="262" y="340"/>
      <point x="202" y="248" type="curve" smooth="yes"/>
      <point x="158" y="180"/>
      <point x="149" y="158"/>
      <point x="102" y="0" type="curve"/>
      <point x="27" y="0" type="line"/>
      <point x="123" y="350" type="line" smooth="yes"/>
      <point x="124" y="355"/>
      <point x="125" y="361"/>
      <point x="125" y="367" type="curve" smooth="yes"/>
      <point x="125" y="387"/>
      <point x="112" y="393"/>
      <point x="61" y="394" type="curve"/>
      <point x="61" y="410" type="line"/>
      <point x="148" y="426"/>
      <point x="169" y="430"/>
      <point x="223" y="441" type="curve"/>
      <point x="226" y="439" type="line"/>
      <point x="159" y="221" type="line"/>
      <point x="262" y="381"/>
      <point x="325" y="441"/>
      <point x="389" y="441" type="curve" smooth="yes"/>
      <point x="428" y="441"/>
      <point x="455" y="416"/>
      <point x="455" y="380" type="curve" smooth="yes"/>
      <point x="455" y="366"/>
      <point x="451" y="344"/>
      <point x="446" y="323" type="curve" smooth="yes"/>
      <point x="389" y="117" type="line" smooth="yes"/>
      <point x="375" y="61"/>
      <point x="375" y="61"/>
      <point x="375" y="54" type="curve" smooth="yes"/>
      <point x="375" y="46"/>
      <point x="383" y="38"/>
      <point x="391" y="38" type="curve" smooth="yes"/>
      <point x="405" y="38"/>
      <point x="423" y="54"/>
      <point x="452" y="91" type="curve" smooth="yes"/>
    </contour>
  </outline>
</glyph>
<glyph name="Eng" format="1">
  <advance width="667"/>
  <unicode hex="014A"/>
  <outline>
    <contour>
      <point x="727" y="637" type="line"/>
      <point x="645" y="620"/>
      <point x="644" y="561"/>
      <point x="623" y="488" type="curve" smooth="yes"/>
      <point x="491" y="28" type="line" smooth="yes"/>
      <point x="465" y="-63"/>
      <point x="420" y="-207"/>
      <point x="303" y="-207" type="curve" smooth="yes"/>
      <point x="263" y="-207"/>
      <point x="225" y="-187"/>
      <point x="225" y="-143" type="curve" smooth="yes"/>
      <point x="225" y="-122"/>
      <point x="246" y="-104"/>
      <point x="266" y="-104" type="curve" smooth="yes"/>
      <point x="286" y="-104"/>
      <point x="306" y="-119"/>
      <point x="306" y="-140" type="curve" smooth="yes"/>
      <point x="306" y="-159"/>
      <point x="293" y="-162"/>
      <point x="293" y="-173" type="curve" smooth="yes"/>
      <point x="293" y="-184"/>
      <point x="306" y="-184"/>
      <point x="313" y="-184" type="curve" smooth="yes"/>
      <point x="382" y="-184"/>
      <point x="429" y="-25"/>
      <point x="444" y="26" type="curve"/>
      <point x="233" y="529" type="line"/>
      <point x="229" y="529" type="line"/>
      <point x="117" y="113" type="line" smooth="yes"/>
      <point x="113" y="96"/>
      <point x="108" y="78"/>
      <point x="108" y="61" type="curve" smooth="yes"/>
      <point x="108" y="22"/>
      <point x="148" y="18"/>
      <point x="178" y="16" type="curve"/>
      <point x="178" y="0" type="line"/>
      <point x="-20" y="0" type="line"/>
      <point x="-20" y="16" type="line"/>
      <point x="58" y="27"/>
      <point x="64" y="97"/>
      <point x="83" y="164" type="curve" smooth="yes"/>
      <point x="202" y="581" type="line"/>
      <point x="184" y="621"/>
      <point x="159" y="634"/>
      <point x="116" y="637" type="curve"/>
      <point x="116" y="653" type="line"/>
      <point x="277" y="653" type="line"/>
      <point x="483" y="158" type="line"/>
      <point x="486" y="158" type="line"/>
      <point x="587" y="534" type="line" smooth="yes"/>
      <point x="591" y="550"/>
      <point x="598" y="567"/>
      <point x="598" y="584" type="curve" smooth="yes"/>
      <point x="598" y="631"/>
      <point x="568" y="634"/>
      <point x="528" y="637" type="curve"/>
      <point x="528" y="653" type="line"/>
      <point x="727" y="653" type="line"/>
    </contour>
  </outline>
</glyph>
<glyph name="eng" format="1">
  <advance width="500"/>
  <unicode hex="014B"/>
  <outline>
    <contour>
      <point x="442" y="375" type="curve" smooth="yes"/>
      <point x="442" y="336"/>
      <point x="400" y="197"/>
      <point x="387" y="155" type="curve" smooth="yes"/>
      <point x="356" y="53"/>
      <point x="310" y="-207"/>
      <point x="161" y="-207" type="curve" smooth="yes"/>
      <point x="121" y="-207"/>
      <point x="83" y="-187"/>
      <point x="83" y="-143" type="curve" smooth="yes"/>
      <point x="83" y="-122"/>
      <point x="104" y="-104"/>
      <point x="124" y="-104" type="curve" smooth="yes"/>
      <point x="144" y="-104"/>
      <point x="164" y="-119"/>
      <point x="164" y="-140" type="curve" smooth="yes"/>
      <point x="164" y="-160"/>
      <point x="151" y="-161"/>
      <point x="151" y="-173" type="curve" smooth="yes"/>
      <point x="151" y="-184"/>
      <point x="164" y="-184"/>
      <point x="171" y="-184" type="curve" smooth="yes"/>
      <point x="226" y="-184"/>
      <point x="254" y="-44"/>
      <point x="266" y="-3" type="curve" smooth="yes"/>
      <point x="277" y="34"/>
      <point x="361" y="307"/>
      <point x="361" y="358" type="curve" smooth="yes"/>
      <point x="361" y="375"/>
      <point x="355" y="390"/>
      <point x="336" y="390" type="curve" smooth="yes"/>
      <point x="284" y="390"/>
      <point x="215" y="288"/>
      <point x="189" y="248" type="curve" smooth="yes"/>
      <point x="139" y="171"/>
      <point x="115" y="87"/>
      <point x="89" y="0" type="curve"/>
      <point x="14" y="0" type="line"/>
      <point x="29" y="55"/>
      <point x="112" y="333"/>
      <point x="112" y="368" type="curve" smooth="yes"/>
      <point x="112" y="393.138"/>
      <point x="72.126" y="394.005"/>
      <point x="52.0994" y="394.005" type="curve" smooth="yes"/>
      <point x="50.6159" y="394.005"/>
      <point x="49.2414" y="394"/>
      <point x="48" y="394" type="curve"/>
      <point x="48" y="410" type="line"/>
      <point x="102" y="420"/>
      <point x="156" y="430"/>
      <point x="210" y="441" type="curve"/>
      <point x="213" y="439" type="line"/>
      <point x="149" y="230" type="line"/>
      <point x="151" y="228" type="line"/>
      <point x="192" y="293"/>
      <point x="287" y="441"/>
      <point x="373" y="441" type="curve" smooth="yes"/>
      <point x="416" y="441"/>
      <point x="442" y="419"/>
    </contour>
  </outline>
</glyph>
<glyph name="obreve" format="1">
  <advance width="500"/>
  <unicode hex="014F"/>
  <outline>
    <contour>
      <point x="468" y="293" type="curve" smooth="yes"/>
      <point x="468" y="156"/>
      <point x="318" y="-11"/>
      <point x="178" y="-11" type="curve" smooth="yes"/>
      <point x="85" y="-11"/>
      <point x="27" y="38"/>
      <point x="27" y="133" type="curve" smooth="yes"/>
      <point x="27" y="278"/>
      <point x="173" y="441"/>
      <point x="321" y="441" type="curve" smooth="yes"/>
      <point x="414" y="441"/>
      <point x="468" y="385"/>
    </contour>
    <contour>
      <point x="384" y="324" type="curve" smooth="yes"/>
      <point x="384" y="368"/>
      <point x="366" y="420"/>
      <point x="314" y="420" type="curve" smooth="yes"/>
      <point x="193" y="420"/>
      <point x="111" y="203"/>
      <point x="111" y="103" type="curve" smooth="yes"/>
      <point x="111" y="53"/>
      <point x="136" y="10"/>
      <point x="191" y="10" type="curve" smooth="yes"/>
      <point x="310" y="10"/>
      <point x="384" y="227"/>
    </contour>
    <contour>
      <point x="530" y="649" type="line"/>
      <point x="500" y="565"/>
      <point x="444" y="493"/>
      <point x="347" y="493" type="curve" smooth="yes"/>
      <point x="282" y="493"/>
      <point x="240" y="530"/>
      <point x="240" y="596" type="curve" smooth="yes"/>
      <point x="240" y="609"/>
      <point x="243" y="638"/>
      <point x="249" y="649" type="curve"/>
      <point x="278" y="649" type="line"/>
      <point x="277" y="635" type="line" smooth="yes"/>
      <point x="276.886" y="632.914"/>
      <point x="276.83" y="630.868"/>
      <point x="276.83" y="628.862" type="curve" smooth="yes"/>
      <point x="276.83" y="577.991"/>
      <point x="313.01" y="553"/>
      <point x="364" y="553" type="curve" smooth="yes"/>
      <point x="436" y="553"/>
      <point x="466" y="594"/>
      <point x="501" y="649" type="curve"/>
    </contour>
  </outline>
</glyph>
<glyph name="Ohungarumlaut" format="1">
  <advance width="721"/>
  <unicode hex="0150"/>
  <outline>
    <contour>
      <point x="699" y="423" type="curve" smooth="yes"/>
      <point x="699" y="213"/>
      <point x="495" y="-18"/>
      <point x="279" y="-18" type="curve" smooth="yes"/>
      <point x="138" y="-18"/>
      <point x="60" y="94"/>
      <point x="60" y="227" type="curve" smooth="yes"/>
      <point x="60" y="422"/>
      <point x="264" y="666"/>
      <point x="467" y="666" type="curve" smooth="yes"/>
      <point x="612" y="666"/>
      <point x="699" y="565"/>
    </contour>
    <contour>
      <point x="594" y="472" type="curve" smooth="yes"/>
      <point x="594" y="559"/>
      <point x="561" y="633"/>
      <point x="463" y="633" type="curve" smooth="yes"/>
      <point x="277" y="633"/>
      <point x="165" y="335"/>
      <point x="165" y="181" type="curve" smooth="yes"/>
      <point x="165" y="97"/>
      <point x="197" y="15"/>
      <point x="295" y="15" type="curve" smooth="yes"/>
      <point x="482" y="15"/>
      <point x="594" y="317"/>
    </contour>
    <contour>
      <point x="369" y="706" type="line"/>
      <point x="531" y="866" type="line" smooth="yes"/>
      <point x="538" y="872"/>
      <point x="546" y="876"/>
      <point x="556" y="876" type="curve" smooth="yes"/>
      <point x="576" y="876"/>
      <point x="592" y="860"/>
      <point x="592" y="840" type="curve" smooth="yes"/>
      <point x="592" y="828"/>
      <point x="587" y="819"/>
      <point x="575" y="812" type="curve" smooth="yes"/>
      <point x="404" y="706" type="line"/>
    </contour>
    <contour>
      <point x="539" y="706" type="line"/>
      <point x="701" y="866" type="line" smooth="yes"/>
      <point x="708" y="872"/>
      <point x="716" y="876"/>
      <point x="726" y="876" type="curve" smooth="yes"/>
      <point x="746" y="876"/>
      <point x="762" y="860"/>
      <point x="762" y="840" type="curve" smooth="yes"/>
      <point x="762" y="828"/>
      <point x="757" y="819"/>
      <point x="745" y="812" type="curve" smooth="yes"/>
      <point x="574" y="706" type="line"/>
    </contour>
  </outline>
</glyph>
<glyph name="oe" format="1">
  <advance width="666"/>
  <unicode hex="0153"/>
  <outline>
    <contour>
      <point x="593" y="105" type="curve"/>
      <point x="604" y="94" type="line"/>
      <point x="530" y="20"/>
      <point x="470" y="-12"/>
      <point x="407" y="-12" type="curve" smooth="yes"/>
      <point x="362" y="-12"/>
      <point x="327" y="11"/>
      <point x="303" y="56" type="curve"/>
      <point x="252" y="6"/>
      <point x="216" y="-11"/>
      <point x="165" y="-11" type="curve" smooth="yes"/>
      <point x="81" y="-11"/>
      <point x="20" y="51"/>
      <point x="20" y="135" type="curve" smooth="yes"/>
      <point x="20" y="279"/>
      <point x="165" y="441"/>
      <point x="294" y="441" type="curve" smooth="yes"/>
      <point x="347" y="441"/>
      <point x="389" y="411"/>
      <point x="406" y="361" type="curve"/>
      <point x="474" y="423"/>
      <point x="511" y="441"/>
      <point x="565" y="441" type="curve" smooth="yes"/>
      <point x="616" y="441"/>
      <point x="646" y="415"/>
      <point x="646" y="373" type="curve" smooth="yes"/>
      <point x="646" y="265"/>
      <point x="469" y="208"/>
      <point x="419" y="203" type="curve" smooth="yes"/>
      <point x="395" y="201"/>
      <point x="387" y="197"/>
      <point x="383" y="185" type="curve" smooth="yes"/>
      <point x="378" y="169"/>
      <point x="373" y="135"/>
      <point x="373" y="114" type="curve" smooth="yes"/>
      <point x="373" y="65"/>
      <point x="404" y="30"/>
      <point x="448" y="30" type="curve" smooth="yes"/>
      <point x="486" y="30"/>
      <point x="515" y="45"/>
    </contour>
    <contour>
      <point x="343" y="352" type="curve" smooth="yes"/>
      <point x="343" y="392"/>
      <point x="320" y="418"/>
      <point x="284" y="418" type="curve" smooth="yes"/>
      <point x="258" y="418"/>
      <point x="233" y="406"/>
      <point x="211" y="383" type="curve" smooth="yes"/>
      <point x="148" y="314"/>
      <point x="103" y="198"/>
      <point x="103" y="100" type="curve" smooth="yes"/>
      <point x="103" y="44"/>
      <point x="129" y="9"/>
      <point x="170" y="9" type="curve" smooth="yes"/>
      <point x="203" y="9"/>
      <point x="230" y="27"/>
      <point x="257" y="66" type="curve" smooth="yes"/>
      <point x="292" y="116"/>
      <point x="343" y="276"/>
    </contour>
    <contour>
      <point x="392" y="215" type="curve"/>
      <point x="474" y="241"/>
      <point x="485" y="245"/>
      <point x="511" y="264" type="curve" smooth="yes"/>
      <point x="554" y="296"/>
      <point x="580" y="339"/>
      <point x="580" y="377" type="curve" smooth="yes"/>
      <point x="580" y="401"/>
      <point x="567" y="416"/>
      <point x="546" y="416" type="curve" smooth="yes"/>
      <point x="525" y="416"/>
      <point x="499" y="402"/>
      <point x="476" y="377" type="curve" smooth="yes"/>
      <point x="437" y="335"/>
      <point x="418" y="299"/>
    </contour>
  </outline>
</glyph>
<glyph name="rcedilla" format="1">
  <advance width="388"/>
  <unicode hex="0157"/>
  <outline>
    <contour>
      <point x="10" y="-212" type="curve"/>
      <point x="2" y="-197" type="line"/>
      <point x="42" y="-186"/>
      <point x="67" y="-167"/>
      <point x="67" y="-143" type="curve" smooth="yes"/>
      <point x="67" y="-139"/>
      <point x="67" y="-130"/>
      <point x="58" y="-125" type="curve" smooth="yes"/>
      <point x="40" y="-116"/>
      <point x="28" y="-106"/>
      <point x="28" y="-82" type="curve" smooth="yes"/>
      <point x="28" y="-58"/>
      <point x="48" y="-40"/>
      <point x="74" y="-40" type="curve" smooth="yes"/>
      <point x="104" y="-40"/>
      <point x="123" y="-67"/>
      <point x="123" y="-102" type="curve" smooth="yes"/>
      <point x="123" y="-155"/>
      <point x="80" y="-190"/>
    </contour>
    <contour>
      <point x="366" y="340" type="curve" smooth="yes"/>
      <point x="322" y="340"/>
      <point x="336" y="376"/>
      <point x="314" y="376" type="curve" smooth="yes"/>
      <point x="297" y="376"/>
      <point x="269" y="345"/>
      <point x="236" y="289" type="curve" smooth="yes"/>
      <point x="190" y="213"/>
      <point x="173" y="170"/>
      <point x="121" y="0" type="curve"/>
      <point x="45" y="0" type="line"/>
      <point x="126" y="292" type="line" smooth="yes"/>
      <point x="140.44" y="342.92"/>
      <point x="142.173" y="355.718"/>
      <point x="142.173" y="365.074" type="curve" smooth="yes"/>
      <point x="142.173" y="368.029"/>
      <point x="142" y="370.64"/>
      <point x="142" y="374" type="curve" smooth="yes"/>
      <point x="142" y="392"/>
      <point x="129" y="402"/>
      <point x="107" y="402" type="curve" smooth="yes"/>
      <point x="100" y="402"/>
      <point x="97" y="402"/>
      <point x="73" y="397" type="curve"/>
      <point x="73" y="414" type="line"/>
      <point x="146" y="426"/>
      <point x="155" y="428"/>
      <point x="228" y="441" type="curve"/>
      <point x="231" y="439" type="line"/>
      <point x="178" y="222" type="line"/>
      <point x="192" y="258" type="line" smooth="yes"/>
      <point x="209" y="301"/>
      <point x="296" y="441"/>
      <point x="365" y="441" type="curve" smooth="yes"/>
      <point x="393" y="441"/>
      <point x="412" y="420"/>
      <point x="412" y="389" type="curve" smooth="yes"/>
      <point x="412" y="358"/>
      <point x="395" y="340"/>
    </contour>
  </outline>
</glyph>
<glyph name="Sacute" format="1">
  <advance width="500"/>
  <unicode hex="015A"/>
  <outline>
    <contour>
      <point x="508" y="667" type="line"/>
      <point x="468" y="468" type="line"/>
      <point x="450" y="471" type="line"/>
      <point x="449" y="558"/>
      <point x="430" y="633"/>
      <point x="325" y="633" type="curve" smooth="yes"/>
      <point x="265" y="633"/>
      <point x="219" y="595"/>
      <point x="219" y="533" type="curve" smooth="yes"/>
      <point x="219" y="403"/>
      <point x="431" y="346"/>
      <point x="431" y="180" type="curve" smooth="yes"/>
      <point x="431" y="66"/>
      <point x="341" y="-18"/>
      <point x="228" y="-18" type="curve" smooth="yes"/>
      <point x="171" y="-18"/>
      <point x="121" y="18"/>
      <point x="74" y="18" type="curve" smooth="yes"/>
      <point x="52" y="18"/>
      <point x="40" y="5"/>
      <point x="35" y="-15" type="curve"/>
      <point x="17" y="-15" type="line"/>
      <point x="51" y="208" type="line"/>
      <point x="71" y="206" type="line"/>
      <point x="70" y="199"/>
      <point x="69" y="192"/>
      <point x="69" y="185" type="curve" smooth="yes"/>
      <point x="69" y="99"/>
      <point x="123" y="17"/>
      <point x="215" y="17" type="curve" smooth="yes"/>
      <point x="289" y="17"/>
      <point x="344" y="76"/>
      <point x="344" y="149" type="curve" smooth="yes"/>
      <point x="344" y="285"/>
      <point x="131" y="348"/>
      <point x="131" y="502" type="curve" smooth="yes"/>
      <point x="131" y="598"/>
      <point x="209" y="666"/>
      <point x="303" y="666" type="curve" smooth="yes"/>
      <point x="364" y="666"/>
      <point x="405" y="641"/>
      <point x="441" y="641" type="curve" smooth="yes"/>
      <point x="463" y="641"/>
      <point x="474" y="649"/>
      <point x="485" y="667" type="curve"/>
    </contour>
    <contour>
      <point x="294" y="706" type="line"/>
      <point x="456" y="866" type="line" smooth="yes"/>
      <point x="463" y="872"/>
      <point x="471" y="876"/>
      <point x="481" y="876" type="curve" smooth="yes"/>
      <point x="501" y="876"/>
      <point x="517" y="860"/>
      <point x="517" y="840" type="curve" smooth="yes"/>
      <point x="517" y="828"/>
      <point x="512" y="819"/>
      <point x="500" y="812" type="curve" smooth="yes"/>
      <point x="329" y="706" type="line"/>
    </contour>
  </outline>
</glyph>
<glyph name="scircumflex" format="1">
  <advance width="388"/>
  <unicode hex="015D"/>
  <outline>
    <contour>
      <point x="160" y="-11" type="curve" smooth="yes"/>
      <point x="121" y="-11"/>
      <point x="89" y="8"/>
      <point x="56" y="8" type="curve" smooth="yes"/>
      <point x="46" y="8"/>
      <point x="40" y="3"/>
      <point x="32" y="-13" type="curve"/>
      <point x="16" y="-13" type="line"/>
      <point x="36" y="146" type="line"/>
      <point x="52" y="146" type="line"/>
      <point x="68" y="51"/>
      <point x="99" y="10"/>
      <point x="154" y="10" type="curve" smooth="yes"/>
      <point x="198" y="10"/>
      <point x="228" y="42"/>
      <point x="228" y="87" type="curve" smooth="yes"/>
      <point x="228" y="116"/>
      <point x="211" y="151"/>
      <point x="172" y="202" type="curve" smooth="yes"/>
      <point x="130" y="256"/>
      <point x="109" y="299"/>
      <point x="109" y="331" type="curve" smooth="yes"/>
      <point x="109" y="398"/>
      <point x="157" y="441"/>
      <point x="230" y="441" type="curve" smooth="yes"/>
      <point x="267" y="441"/>
      <point x="300" y="424"/>
      <point x="322" y="424" type="curve" smooth="yes"/>
      <point x="336" y="424"/>
      <point x="344" y="428"/>
      <point x="352" y="442" type="curve"/>
      <point x="366" y="442" type="line"/>
      <point x="346" y="303" type="line"/>
      <point x="330" y="303" type="line"/>
      <point x="320" y="381"/>
      <point x="290" y="418"/>
      <point x="238" y="418" type="curve" smooth="yes"/>
      <point x="203" y="418"/>
      <point x="182" y="397"/>
      <point x="182" y="364" type="curve" smooth="yes"/>
      <point x="182" y="290"/>
      <point x="304" y="215"/>
      <point x="304" y="119" type="curve" smooth="yes"/>
      <point x="304" y="43"/>
      <point x="244" y="-11"/>
    </contour>
    <contour>
      <point x="325" y="661" type="line"/>
      <point x="413" y="492" type="line"/>
      <point x="377" y="492" type="line"/>
      <point x="295" y="596" type="line"/>
      <point x="158" y="492" type="line"/>
      <point x="119" y="492" type="line"/>
      <point x="276" y="661" type="line"/>
    </contour>
  </outline>
</glyph>
<glyph name="scedilla" format="1">
  <advance width="388"/>
  <unicode hex="015F"/>
  <outline>
    <contour>
      <point x="141" y="-10" type="curve"/>
      <point x="103" y="-66" type="line"/>
      <point x="113" y="-64"/>
      <point x="120" y="-63"/>
      <point x="128" y="-63" type="curve" smooth="yes"/>
      <point x="178" y="-63"/>
      <point x="210" y="-90"/>
      <point x="210" y="-131" type="curve" smooth="yes"/>
      <point x="210" y="-181"/>
      <point x="160" y="-217"/>
      <point x="91" y="-217" type="curve" smooth="yes"/>
      <point x="63" y="-217"/>
      <point x="40" y="-212"/>
      <point x="-2" y="-196" type="curve"/>
      <point x="15" y="-167" type="line"/>
      <point x="45" y="-178"/>
      <point x="62" y="-182"/>
      <point x="83" y="-182" type="curve" smooth="yes"/>
      <point x="117" y="-182"/>
      <point x="136" y="-167"/>
      <point x="136" y="-141" type="curve" smooth="yes"/>
      <point x="136" y="-115"/>
      <point x="117" y="-97"/>
      <point x="90" y="-97" type="curve" smooth="yes"/>
      <point x="80" y="-97"/>
      <point x="72" y="-99"/>
      <point x="58" y="-104" type="curve"/>
      <point x="49" y="-96" type="line"/>
      <point x="108" y="-2" type="line"/>
      <point x="78" y="6"/>
      <point x="69" y="8"/>
      <point x="56" y="8" type="curve" smooth="yes"/>
      <point x="46" y="8"/>
      <point x="40" y="3"/>
      <point x="32" y="-13" type="curve"/>
      <point x="16" y="-13" type="line"/>
      <point x="36" y="146" type="line"/>
      <point x="52" y="146" type="line"/>
      <point x="68" y="51"/>
      <point x="99" y="10"/>
      <point x="154" y="10" type="curve" smooth="yes"/>
      <point x="198" y="10"/>
      <point x="228" y="42"/>
      <point x="228" y="87" type="curve" smooth="yes"/>
      <point x="228" y="116"/>
      <point x="211" y="151"/>
      <point x="172" y="202" type="curve" smooth="yes"/>
      <point x="130" y="256"/>
      <point x="109" y="299"/>
      <point x="109" y="331" type="curve" smooth="yes"/>
      <point x="109" y="398"/>
      <point x="157" y="441"/>
      <point x="230" y="441" type="curve" smooth="yes"/>
      <point x="246" y="441"/>
      <point x="261" y="439"/>
      <point x="286" y="431" type="curve" smooth="yes"/>
      <point x="305" y="426"/>
      <point x="315" y="424"/>
      <point x="322" y="424" type="curve" smooth="yes"/>
      <point x="336" y="424"/>
      <point x="344" y="428"/>
      <point x="352" y="442" type="curve"/>
      <point x="366" y="442" type="line"/>
      <point x="346" y="303" type="line"/>
      <point x="330" y="303" type="line"/>
      <point x="320" y="381"/>
      <point x="290" y="418"/>
      <point x="238" y="418" type="curve" smooth="yes"/>
      <point x="203" y="418"/>
      <point x="182" y="397"/>
      <point x="182" y="364" type="curve" smooth="yes"/>
      <point x="182" y="337"/>
      <point x="198" y="306"/>
      <point x="236" y="259" type="curve" smooth="yes"/>
      <point x="283" y="201"/>
      <point x="304" y="157"/>
      <point x="304" y="119" type="curve" smooth="yes"/>
      <point x="304" y="43"/>
      <point x="244" y="-11"/>
      <point x="159" y="-11" type="curve" smooth="yes"/>
      <point x="154" y="-11"/>
      <point x="149" y="-11"/>
    </contour>
  </outline>
</glyph>
<glyph name="uni0163" format="1">
  <advance width="277"/>
  <unicode hex="0163"/>
  <outline>
    <contour>
      <point x="216" y="428" type="curve"/>
      <point x="296" y="428" type="line"/>
      <point x="291" y="396" type="line"/>
      <point x="207" y="396" type="line"/>
      <point x="119" y="63" type="line" smooth="yes"/>
      <point x="118" y="60"/>
      <point x="115" y="38"/>
      <point x="133" y="38" type="curve" smooth="yes"/>
      <point x="149" y="38"/>
      <point x="165" y="54"/>
      <point x="214" y="117" type="curve"/>
      <point x="227" y="110" type="line"/>
      <point x="178" y="38"/>
      <point x="148" y="5"/>
      <point x="115" y="-6" type="curve"/>
      <point x="75" y="-66" type="line"/>
      <point x="85" y="-64"/>
      <point x="92" y="-63"/>
      <point x="100" y="-63" type="curve" smooth="yes"/>
      <point x="150" y="-63"/>
      <point x="182" y="-90"/>
      <point x="182" y="-131" type="curve" smooth="yes"/>
      <point x="182" y="-181"/>
      <point x="132" y="-217"/>
      <point x="63" y="-217" type="curve" smooth="yes"/>
      <point x="35" y="-217"/>
      <point x="12" y="-212"/>
      <point x="-30" y="-196" type="curve"/>
      <point x="-13" y="-167" type="line"/>
      <point x="17" y="-178"/>
      <point x="34" y="-182"/>
      <point x="55" y="-182" type="curve" smooth="yes"/>
      <point x="89" y="-182"/>
      <point x="108" y="-167"/>
      <point x="108" y="-141" type="curve" smooth="yes"/>
      <point x="108" y="-115"/>
      <point x="89" y="-97"/>
      <point x="62" y="-97" type="curve" smooth="yes"/>
      <point x="52" y="-97"/>
      <point x="44" y="-99"/>
      <point x="30" y="-104" type="curve"/>
      <point x="21" y="-96" type="line"/>
      <point x="75" y="-10" type="line"/>
      <point x="53" y="-7"/>
      <point x="37" y="8"/>
      <point x="37" y="27" type="curve" smooth="yes"/>
      <point x="37" y="35"/>
      <point x="45" y="70"/>
      <point x="54" y="100" type="curve" smooth="yes"/>
      <point x="132" y="396" type="line"/>
      <point x="58" y="396" type="line" smooth="yes"/>
      <point x="57" y="399"/>
      <point x="57" y="401"/>
      <point x="57" y="402" type="curve" smooth="yes"/>
      <point x="57" y="413"/>
      <point x="64" y="419"/>
      <point x="89" y="427" type="curve" smooth="yes"/>
      <point x="121" y="436"/>
      <point x="183" y="486"/>
      <point x="222" y="537" type="curve" smooth="yes"/>
      <point x="228" y="545"/>
      <point x="231" y="546"/>
      <point x="237" y="546" type="curve" smooth="yes"/>
      <point x="242" y="546"/>
      <point x="245" y="543"/>
      <point x="245" y="536" type="curve" smooth="yes"/>
      <point x="245" y="535"/>
      <point x="216" y="428"/>
    </contour>
  </outline>
</glyph>
<glyph name="tcaron" format="1">
  <advance width="323"/>
  <unicode hex="0165"/>
  <outline>
    <contour>
      <point x="253" y="457" type="curve"/>
      <point x="244" y="474" type="line"/>
      <point x="293" y="493"/>
      <point x="315" y="513"/>
      <point x="315" y="540" type="curve" smooth="yes"/>
      <point x="315" y="550"/>
      <point x="308" y="557"/>
      <point x="299" y="564" type="curve" smooth="yes"/>
      <point x="278" y="580"/>
      <point x="270" y="595"/>
      <point x="270" y="619" type="curve" smooth="yes"/>
      <point x="270" y="646"/>
      <point x="292" y="666"/>
      <point x="321" y="666" type="curve" smooth="yes"/>
      <point x="354" y="666"/>
      <point x="379" y="635"/>
      <point x="379" y="595" type="curve" smooth="yes"/>
      <point x="379" y="539"/>
      <point x="339" y="491"/>
    </contour>
    <contour>
      <point x="216" y="428" type="curve"/>
      <point x="296" y="428" type="line"/>
      <point x="291" y="396" type="line"/>
      <point x="207" y="396" type="line"/>
      <point x="119" y="63" type="line" smooth="yes"/>
      <point x="118" y="60"/>
      <point x="115" y="38"/>
      <point x="133" y="38" type="curve" smooth="yes"/>
      <point x="149" y="38"/>
      <point x="165" y="54"/>
      <point x="214" y="117" type="curve"/>
      <point x="227" y="110" type="line"/>
      <point x="164" y="17"/>
      <point x="131" y="-11"/>
      <point x="85" y="-11" type="curve" smooth="yes"/>
      <point x="58" y="-11"/>
      <point x="37" y="5"/>
      <point x="37" y="27" type="curve" smooth="yes"/>
      <point x="37" y="35"/>
      <point x="45" y="70"/>
      <point x="54" y="100" type="curve" smooth="yes"/>
      <point x="132" y="396" type="line"/>
      <point x="58" y="396" type="line" smooth="yes"/>
      <point x="57" y="399"/>
      <point x="57" y="401"/>
      <point x="57" y="402" type="curve" smooth="yes"/>
      <point x="57" y="413"/>
      <point x="64" y="419"/>
      <point x="89" y="427" type="curve" smooth="yes"/>
      <point x="121" y="436"/>
      <point x="183" y="486"/>
      <point x="222" y="537" type="curve" smooth="yes"/>
      <point x="228" y="545"/>
      <point x="231" y="546"/>
      <point x="237" y="546" type="curve" smooth="yes"/>
      <point x="242" y="546"/>
      <point x="245" y="543"/>
      <point x="245" y="536" type="curve" smooth="yes"/>
      <point x="245" y="535"/>
      <point x="216" y="428"/>
    </contour>
  </outline>
</glyph>
<glyph name="tbar" format="1">
  <advance width="278"/>
  <unicode hex="0167"/>
  <outline>
    <contour>
      <point x="296" y="428" type="line"/>
      <point x="291" y="396" type="line"/>
      <point x="207" y="396" type="line"/>
      <point x="189" y="326" type="line"/>
      <point x="269" y="326" type="line"/>
      <point x="262" y="285" type="line"/>
      <point x="178" y="285" type="line"/>
      <point x="171" y="258"/>
      <point x="118" y="69"/>
      <point x="118" y="55" type="curve" smooth="yes"/>
      <point x="118" y="46"/>
      <point x="124" y="38"/>
      <point x="134" y="38" type="curve" smooth="yes"/>
      <point x="156" y="38"/>
      <point x="201" y="100"/>
      <point x="214" y="117" type="curve"/>
      <point x="227" y="110" type="line"/>
      <point x="196" y="63"/>
      <point x="149" y="-11"/>
      <point x="85" y="-11" type="curve" smooth="yes"/>
      <point x="61" y="-11"/>
      <point x="37" y="2"/>
      <point x="37" y="29" type="curve" smooth="yes"/>
      <point x="37" y="47"/>
      <point x="55" y="100"/>
      <point x="60" y="121" type="curve" smooth="yes"/>
      <point x="103" y="285" type="line"/>
      <point x="20" y="285" type="line"/>
      <point x="27" y="326" type="line"/>
      <point x="114" y="326" type="line"/>
      <point x="132" y="396" type="line"/>
      <point x="58" y="396" type="line" smooth="yes"/>
      <point x="58" y="398"/>
      <point x="57" y="401"/>
      <point x="57" y="402" type="curve" smooth="yes"/>
      <point x="64" y="425"/>
      <point x="92" y="427"/>
      <point x="111" y="437" type="curve" smooth="yes"/>
      <point x="145" y="455"/>
      <point x="197" y="503"/>
      <point x="220" y="534" type="curve" smooth="yes"/>
      <point x="224" y="540"/>
      <point x="228" y="548"/>
      <point x="237" y="546" type="curve" smooth="yes"/>
      <point x="243" y="548"/>
      <point x="245" y="541"/>
      <point x="245" y="537" type="curve" smooth="yes"/>
      <point x="245" y="529"/>
      <point x="220" y="442"/>
      <point x="216" y="428" type="curve"/>
    </contour>
  </outline>
</glyph>
<glyph name="Utilde" format="1">
  <advance width="722"/>
  <unicode hex="0168"/>
  <outline>
    <contour>
      <point x="765" y="637" type="line"/>
      <point x="683" y="620"/>
      <point x="682" y="560"/>
      <point x="661" y="488" type="curve" smooth="yes"/>
      <point x="578" y="203" type="line" smooth="yes"/>
      <point x="538" y="67"/>
      <point x="465" y="-18"/>
      <point x="315" y="-18" type="curve" smooth="yes"/>
      <point x="214" y="-18"/>
      <point x="102" y="37"/>
      <point x="102" y="151" type="curve" smooth="yes"/>
      <point x="102" y="228"/>
      <point x="154" y="394"/>
      <point x="176" y="473" type="curve" smooth="yes"/>
      <point x="184" y="499"/>
      <point x="205" y="569"/>
      <point x="205" y="594" type="curve" smooth="yes"/>
      <point x="205" y="637"/>
      <point x="159" y="635"/>
      <point x="127" y="637" type="curve"/>
      <point x="127" y="653" type="line"/>
      <point x="400" y="653" type="line"/>
      <point x="400" y="637" type="line"/>
      <point x="340" y="631"/>
      <point x="318" y="618"/>
      <point x="299" y="559" type="curve" smooth="yes"/>
      <point x="276" y="491"/>
      <point x="192" y="198"/>
      <point x="192" y="144" type="curve" smooth="yes"/>
      <point x="192" y="63"/>
      <point x="256" y="23"/>
      <point x="331" y="23" type="curve" smooth="yes"/>
      <point x="464" y="23"/>
      <point x="515" y="130"/>
      <point x="546" y="241" type="curve" smooth="yes"/>
      <point x="561" y="293"/>
      <point x="637" y="556"/>
      <point x="637" y="586" type="curve" smooth="yes"/>
      <point x="637" y="630"/>
      <point x="601" y="635"/>
      <point x="566" y="637" type="curve"/>
      <point x="566" y="653" type="line"/>
      <point x="765" y="653" type="line"/>
    </contour>
    <contour>
      <point x="643" y="836" type="curve"/>
      <point x="671" y="836" type="line"/>
      <point x="657" y="769"/>
      <point x="624" y="732"/>
      <point x="576" y="732" type="curve" smooth="yes"/>
      <point x="564" y="732"/>
      <point x="545" y="737"/>
      <point x="519" y="747" type="curve" smooth="yes"/>
      <point x="465" y="769"/>
      <point x="441" y="776"/>
      <point x="424" y="776" type="curve" smooth="yes"/>
      <point x="399" y="776"/>
      <point x="383" y="761"/>
      <point x="373" y="729" type="curve"/>
      <point x="344" y="729" type="line"/>
      <point x="364" y="806"/>
      <point x="392" y="835"/>
      <point x="444" y="835" type="curve" smooth="yes"/>
      <point x="466" y="835"/>
      <point x="492" y="828"/>
      <point x="530" y="811" type="curve" smooth="yes"/>
      <point x="560" y="797"/>
      <point x="577" y="792"/>
      <point x="592" y="792" type="curve" smooth="yes"/>
      <point x="619" y="792"/>
      <point x="632" y="803"/>
    </contour>
  </outline>
</glyph>
<glyph name="uring" format="1">
  <advance width="500"/>
  <unicode hex="016F"/>
  <outline>
    <contour>
      <point x="118" y="376" type="curve" smooth="yes"/>
      <point x="118" y="396"/>
      <point x="99" y="400"/>
      <point x="58" y="400" type="curve"/>
      <point x="58" y="414" type="line"/>
      <point x="115" y="421"/>
      <point x="151" y="428"/>
      <point x="208" y="441" type="curve"/>
      <point x="211" y="439" type="line"/>
      <point x="120" y="76" type="line" smooth="yes"/>
      <point x="119" y="73"/>
      <point x="119" y="71"/>
      <point x="119" y="67" type="curve" smooth="yes"/>
      <point x="119" y="52"/>
      <point x="128" y="42"/>
      <point x="140" y="42" type="curve" smooth="yes"/>
      <point x="172" y="42"/>
      <point x="221" y="93"/>
      <point x="281" y="188" type="curve" smooth="yes"/>
      <point x="327" y="261"/>
      <point x="334" y="277"/>
      <point x="391" y="432" type="curve"/>
      <point x="465" y="432" type="line"/>
      <point x="386" y="133" type="line" smooth="yes"/>
      <point x="367" y="61"/>
      <point x="367" y="61"/>
      <point x="367" y="55" type="curve" smooth="yes"/>
      <point x="367" y="44"/>
      <point x="371" y="38"/>
      <point x="378" y="38" type="curve" smooth="yes"/>
      <point x="394" y="38"/>
      <point x="409" y="52"/>
      <point x="461" y="117" type="curve"/>
      <point x="475" y="108" type="line"/>
      <point x="407" y="11"/>
      <point x="384" y="-9"/>
      <point x="337" y="-9" type="curve" smooth="yes"/>
      <point x="307" y="-9"/>
      <point x="289" y="9"/>
      <point x="289" y="39" type="curve" smooth="yes"/>
      <point x="289" y="60"/>
      <point x="305" y="129"/>
      <point x="334" y="236" type="curve"/>
      <point x="219" y="43"/>
      <point x="166" y="-11"/>
      <point x="95" y="-11" type="curve" smooth="yes"/>
      <point x="60" y="-11"/>
      <point x="42" y="8"/>
      <point x="42" y="44" type="curve" smooth="yes"/>
      <point x="42" y="62"/>
      <point x="49" y="96"/>
      <point x="67" y="167" type="curve" smooth="yes"/>
      <point x="104" y="309" type="line" smooth="yes"/>
      <point x="113" y="343"/>
      <point x="118" y="368"/>
    </contour>
    <contour>
      <point x="333" y="707" type="curve" smooth="yes"/>
      <point x="388" y="707"/>
      <point x="434" y="662"/>
      <point x="434" y="607" type="curve" smooth="yes"/>
      <point x="434" y="553"/>
      <point x="389" y="508"/>
      <point x="334" y="508" type="curve" smooth="yes"/>
      <point x="278" y="508"/>
      <point x="234" y="552"/>
      <point x="234" y="608" type="curve" smooth="yes"/>
      <point x="234" y="662"/>
      <point x="279" y="707"/>
    </contour>
    <contour>
      <point x="333" y="673" type="curve" smooth="yes"/>
      <point x="298" y="673"/>
      <point x="268" y="643"/>
      <point x="268" y="608" type="curve" smooth="yes"/>
      <point x="268" y="571"/>
      <point x="297" y="542"/>
      <point x="333" y="542" type="curve" smooth="yes"/>
      <point x="371" y="542"/>
      <point x="400" y="570"/>
      <point x="400" y="607" type="curve" smooth="yes"/>
      <point x="400" y="643"/>
      <point x="370" y="673"/>
    </contour>
  </outline>
</glyph>
<glyph name="Uhungarumlaut" format="1">
  <advance width="722"/>
  <unicode hex="0170"/>
  <outline>
    <contour>
      <point x="765" y="637" type="line"/>
      <point x="683" y="620"/>
      <point x="682" y="560"/>
      <point x="661" y="488" type="curve" smooth="yes"/>
      <point x="578" y="203" type="line" smooth="yes"/>
      <point x="538" y="67"/>
      <point x="465" y="-18"/>
      <point x="315" y="-18" type="curve" smooth="yes"/>
      <point x="214" y="-18"/>
      <point x="102" y="37"/>
      <point x="102" y="151" type="curve" smooth="yes"/>
      <point x="102" y="228"/>
      <point x="154" y="394"/>
      <point x="176" y="473" type="curve" smooth="yes"/>
      <point x="184" y="499"/>
      <point x="205" y="569"/>
      <point x="205" y="594" type="curve" smooth="yes"/>
      <point x="205" y="637"/>
      <point x="159" y="635"/>
      <point x="127" y="637" type="curve"/>
      <point x="127" y="653" type="line"/>
      <point x="400" y="653" type="line"/>
      <point x="400" y="637" type="line"/>
      <point x="340" y="631"/>
      <point x="318" y="618"/>
      <point x="299" y="559" type="curve" smooth="yes"/>
      <point x="276" y="491"/>
      <point x="192" y="198"/>
      <point x="192" y="144" type="curve" smooth="yes"/>
      <point x="192" y="63"/>
      <point x="256" y="23"/>
      <point x="331" y="23" type="curve" smooth="yes"/>
      <point x="464" y="23"/>
      <point x="515" y="130"/>
      <point x="546" y="241" type="curve" smooth="yes"/>
      <point x="561" y="293"/>
      <point x="637" y="556"/>
      <point x="637" y="586" type="curve" smooth="yes"/>
      <point x="637" y="630"/>
      <point x="601" y="635"/>
      <point x="566" y="637" type="curve"/>
      <point x="566" y="653" type="line"/>
      <point x="765" y="653" type="line"/>
    </contour>
    <contour>
      <point x="357" y="706" type="line"/>
      <point x="519" y="866" type="line" smooth="yes"/>
      <point x="526" y="872"/>
      <point x="534" y="876"/>
      <point x="544" y="876" type="curve" smooth="yes"/>
      <point x="564" y="876"/>
      <point x="580" y="860"/>
      <point x="580" y="840" type="curve" smooth="yes"/>
      <point x="580" y="828"/>
      <point x="575" y="819"/>
      <point x="563" y="812" type="curve" smooth="yes"/>
      <point x="392" y="706" type="line"/>
    </contour>
    <contour>
      <point x="527" y="706" type="line"/>
      <point x="689" y="866" type="line" smooth="yes"/>
      <point x="696" y="872"/>
      <point x="704" y="876"/>
      <point x="714" y="876" type="curve" smooth="yes"/>
      <point x="734" y="876"/>
      <point x="750" y="860"/>
      <point x="750" y="840" type="curve" smooth="yes"/>
      <point x="750" y="828"/>
      <point x="745" y="819"/>
      <point x="733" y="812" type="curve" smooth="yes"/>
      <point x="562" y="706" type="line"/>
    </contour>
  </outline>
</glyph>
<glyph name="Uogonek" format="1">
  <advance width="722"/>
  <unicode hex="0172"/>
  <outline>
    <contour>
      <point x="765" y="637" type="line"/>
      <point x="683" y="620"/>
      <point x="682" y="560"/>
      <point x="661" y="488" type="curve" smooth="yes"/>
      <point x="578" y="203" type="line" smooth="yes"/>
      <point x="557" y="131"/>
      <point x="526" y="73"/>
      <point x="480" y="34" type="curve"/>
      <point x="460" y="2"/>
      <point x="450" y="-27"/>
      <point x="450" y="-55" type="curve" smooth="yes"/>
      <point x="450" y="-85"/>
      <point x="475" y="-106"/>
      <point x="509" y="-106" type="curve" smooth="yes"/>
      <point x="540" y="-106"/>
      <point x="565" y="-96"/>
      <point x="592" y="-74" type="curve"/>
      <point x="609" y="-92" type="line"/>
      <point x="574" y="-143"/>
      <point x="532" y="-169"/>
      <point x="484" y="-169" type="curve" smooth="yes"/>
      <point x="432" y="-169"/>
      <point x="389" y="-126"/>
      <point x="389" y="-74" type="curve" smooth="yes"/>
      <point x="389" y="-47"/>
      <point x="396" y="-25"/>
      <point x="414" y="-3" type="curve"/>
      <point x="385" y="-13"/>
      <point x="352" y="-18"/>
      <point x="315" y="-18" type="curve" smooth="yes"/>
      <point x="214" y="-18"/>
      <point x="102" y="37"/>
      <point x="102" y="151" type="curve" smooth="yes"/>
      <point x="102" y="228"/>
      <point x="154" y="394"/>
      <point x="176" y="473" type="curve" smooth="yes"/>
      <point x="184" y="499"/>
      <point x="205" y="569"/>
      <point x="205" y="594" type="curve" smooth="yes"/>
      <point x="205" y="637"/>
      <point x="159" y="635"/>
      <point x="127" y="637" type="curve"/>
      <point x="127" y="653" type="line"/>
      <point x="400" y="653" type="line"/>
      <point x="400" y="637" type="line"/>
      <point x="340" y="631"/>
      <point x="318" y="618"/>
      <point x="299" y="559" type="curve" smooth="yes"/>
      <point x="276" y="491"/>
      <point x="192" y="198"/>
      <point x="192" y="144" type="curve" smooth="yes"/>
      <point x="192" y="63"/>
      <point x="256" y="23"/>
      <point x="331" y="23" type="curve" smooth="yes"/>
      <point x="464" y="23"/>
      <point x="515" y="130"/>
      <point x="546" y="241" type="curve" smooth="yes"/>
      <point x="561" y="293"/>
      <point x="637" y="556"/>
      <point x="637" y="586" type="curve" smooth="yes"/>
      <point x="637" y="630"/>
      <point x="601" y="635"/>
      <point x="566" y="637" type="curve"/>
      <point x="566" y="653" type="line"/>
      <point x="765" y="653" type="line"/>
    </contour>
  </outline>
</glyph>
<glyph name="ycircumflex" format="1">
  <advance width="443"/>
  <unicode hex="0177"/>
  <outline>
    <contour>
      <point x="158" y="441" type="curve" smooth="yes"/>
      <point x="158.045" y="441.003"/>
      <point x="158.09" y="441.004"/>
      <point x="158.136" y="441.004" type="curve" smooth="yes"/>
      <point x="173.336" y="441.004"/>
      <point x="229.045" y="275.736"/>
      <point x="244" y="188" type="curve" smooth="yes"/>
      <point x="264" y="72" type="line"/>
      <point x="349" y="213"/>
      <point x="386" y="291"/>
      <point x="386" y="331" type="curve" smooth="yes"/>
      <point x="386" y="368"/>
      <point x="332" y="363"/>
      <point x="332" y="404" type="curve" smooth="yes"/>
      <point x="332" y="426"/>
      <point x="348" y="441"/>
      <point x="371" y="441" type="curve" smooth="yes"/>
      <point x="401" y="441"/>
      <point x="426" y="416"/>
      <point x="426" y="386" type="curve" smooth="yes"/>
      <point x="426" y="337"/>
      <point x="398" y="265"/>
      <point x="330" y="142" type="curve" smooth="yes"/>
      <point x="222" y="-56"/>
      <point x="91" y="-206"/>
      <point x="27" y="-206" type="curve" smooth="yes"/>
      <point x="-2" y="-206"/>
      <point x="-24" y="-187"/>
      <point x="-24" y="-162" type="curve" smooth="yes"/>
      <point x="-24" y="-140"/>
      <point x="-7" y="-123"/>
      <point x="15" y="-123" type="curve" smooth="yes"/>
      <point x="38" y="-123"/>
      <point x="62" y="-151"/>
      <point x="76" y="-151" type="curve" smooth="yes"/>
      <point x="99" y="-151"/>
      <point x="120" y="-127"/>
      <point x="184" y="-42" type="curve" smooth="yes"/>
      <point x="199" y="-24"/>
      <point x="205" y="-8"/>
      <point x="205" y="8" type="curve" smooth="yes"/>
      <point x="205" y="25"/>
      <point x="181" y="142"/>
      <point x="164" y="207" type="curve" smooth="yes"/>
      <point x="118" y="379"/>
      <point x="103" y="404"/>
      <point x="46" y="404" type="curve" smooth="yes"/>
      <point x="35" y="404"/>
      <point x="28" y="403"/>
      <point x="15" y="400" type="curve"/>
      <point x="15" y="417" type="line"/>
      <point x="26" y="419"/>
      <point x="118" y="437"/>
      <point x="145" y="440" type="curve" smooth="yes"/>
      <point x="149" y="440"/>
      <point x="158" y="441"/>
    </contour>
    <contour>
      <point x="333" y="661" type="line"/>
      <point x="421" y="492" type="line"/>
      <point x="385" y="492" type="line"/>
      <point x="303" y="596" type="line"/>
      <point x="166" y="492" type="line"/>
      <point x="127" y="492" type="line"/>
      <point x="284" y="661" type="line"/>
    </contour>
  </outline>
</glyph>
<glyph name="Zdotaccent" format="1">
  <advance width="555"/>
  <unicode hex="017B"/>
  <outline>
    <contour>
      <point x="606" y="653" type="line"/>
      <point x="606" y="639" type="line"/>
      <point x="123" y="36" type="line"/>
      <point x="284" y="36" type="line" smooth="yes"/>
      <point x="366" y="36"/>
      <point x="416" y="44"/>
      <point x="450" y="64" type="curve" smooth="yes"/>
      <point x="484" y="83"/>
      <point x="502" y="107"/>
      <point x="534" y="171" type="curve"/>
      <point x="553" y="168" type="line"/>
      <point x="499" y="0" type="line"/>
      <point x="-6" y="0" type="line"/>
      <point x="-6" y="14" type="line"/>
      <point x="473" y="617" type="line"/>
      <point x="302" y="617" type="line" smooth="yes"/>
      <point x="227" y="617"/>
      <point x="174" y="604"/>
      <point x="145" y="580" type="curve" smooth="yes"/>
      <point x="126" y="563"/>
      <point x="114" y="546"/>
      <point x="93" y="502" type="curve"/>
      <point x="74" y="507" type="line"/>
      <point x="120" y="653" type="line"/>
    </contour>
    <contour>
      <point x="416" y="768" type="curve" smooth="yes"/>
      <point x="416" y="741"/>
      <point x="395" y="720"/>
      <point x="368" y="720" type="curve" smooth="yes"/>
      <point x="341" y="720"/>
      <point x="320" y="741"/>
      <point x="320" y="768" type="curve" smooth="yes"/>
      <point x="320" y="795"/>
      <point x="341" y="816"/>
      <point x="368" y="816" type="curve" smooth="yes"/>
      <point x="395" y="816"/>
      <point x="416" y="795"/>
    </contour>
  </outline>
</glyph>
<glyph name="zdotaccent" format="1">
  <advance width="388"/>
  <unicode hex="017C"/>
  <outline>
    <contour>
      <point x="269" y="-81" type="curve" smooth="yes"/>
      <point x="193" y="-81"/>
      <point x="122" y="5"/>
      <point x="53" y="5" type="curve" smooth="yes"/>
      <point x="36" y="5"/>
      <point x="23" y="0"/>
      <point x="7" y="-13" type="curve"/>
      <point x="-2" y="-4" type="line"/>
      <point x="308" y="368" type="line"/>
      <point x="162" y="368" type="line" smooth="yes"/>
      <point x="115" y="368"/>
      <point x="102" y="359"/>
      <point x="81" y="309" type="curve"/>
      <point x="65" y="313" type="line"/>
      <point x="96" y="428" type="line"/>
      <point x="380" y="428" type="line"/>
      <point x="380" y="417" type="line"/>
      <point x="90" y="73" type="line"/>
      <point x="148" y="60"/>
      <point x="167" y="47"/>
      <point x="211" y="-10" type="curve" smooth="yes"/>
      <point x="244" y="-52"/>
      <point x="256" y="-60"/>
      <point x="281" y="-60" type="curve" smooth="yes"/>
      <point x="297" y="-60"/>
      <point x="308" y="-54"/>
      <point x="308" y="-45" type="curve" smooth="yes"/>
      <point x="308" y="-35"/>
      <point x="294" y="-20"/>
      <point x="294" y="0" type="curve" smooth="yes"/>
      <point x="294" y="18"/>
      <point x="308" y="31"/>
      <point x="328" y="31" type="curve" smooth="yes"/>
      <point x="349" y="31"/>
      <point x="363" y="16"/>
      <point x="363" y="-5" type="curve" smooth="yes"/>
      <point x="363" y="-45"/>
      <point x="319" y="-81"/>
    </contour>
    <contour>
      <point x="332" y="556" type="curve" smooth="yes"/>
      <point x="332" y="529"/>
      <point x="311" y="508"/>
      <point x="284" y="508" type="curve" smooth="yes"/>
      <point x="257" y="508"/>
      <point x="236" y="529"/>
      <point x="236" y="556" type="curve" smooth="yes"/>
      <point x="236" y="583"/>
      <point x="257" y="604"/>
      <point x="284" y="604" type="curve" smooth="yes"/>
      <point x="311" y="604"/>
      <point x="332" y="583"/>
    </contour>
  </outline>
</glyph>
<glyph name="zcaron" format="1">
  <advance width="388"/>
  <unicode hex="017E"/>
  <outline>
    <contour>
      <point x="269" y="-81" type="curve" smooth="yes"/>
      <point x="193" y="-81"/>
      <point x="122" y="5"/>
      <point x="53" y="5" type="curve" smooth="yes"/>
      <point x="36" y="5"/>
      <point x="23" y="0"/>
      <point x="7" y="-13" type="curve"/>
      <point x="-2" y="-4" type="line"/>
      <point x="308" y="368" type="line"/>
      <point x="162" y="368" type="line" smooth="yes"/>
      <point x="115" y="368"/>
      <point x="102" y="359"/>
      <point x="81" y="309" type="curve"/>
      <point x="65" y="313" type="line"/>
      <point x="96" y="428" type="line"/>
      <point x="380" y="428" type="line"/>
      <point x="380" y="417" type="line"/>
      <point x="90" y="73" type="line"/>
      <point x="148" y="60"/>
      <point x="167" y="47"/>
      <point x="211" y="-10" type="curve" smooth="yes"/>
      <point x="244" y="-52"/>
      <point x="256" y="-60"/>
      <point x="281" y="-60" type="curve" smooth="yes"/>
      <point x="297" y="-60"/>
      <point x="308" y="-54"/>
      <point x="308" y="-45" type="curve" smooth="yes"/>
      <point x="308" y="-35"/>
      <point x="294" y="-20"/>
      <point x="294" y="0" type="curve" smooth="yes"/>
      <point x="294" y="18"/>
      <point x="308" y="31"/>
      <point x="328" y="31" type="curve" smooth="yes"/>
      <point x="349" y="31"/>
      <point x="363" y="16"/>
      <point x="363" y="-5" type="curve" smooth="yes"/>
      <point x="363" y="-45"/>
      <point x="319" y="-81"/>
    </contour>
    <contour>
      <point x="454" y="661" type="line"/>
      <point x="291" y="492" type="line"/>
      <point x="245" y="492" type="line"/>
      <point x="149" y="661" type="line"/>
      <point x="186" y="661" type="line"/>
      <point x="276" y="556" type="line"/>
      <point x="418" y="661" type="line"/>
    </contour>
  </outline>
</glyph>
<glyph name="uni0190" format="1">
  <advance width="722"/>
  <unicode hex="0190"/>
  <outline>
    <contour>
      <point x="708" y="667" type="line"/>
      <point x="663" y="441" type="line"/>
      <point x="643" y="441" type="line"/>
      <point x="635" y="547"/>
      <point x="599" y="631"/>
      <point x="477" y="631" type="curve" smooth="yes"/>
      <point x="376" y="631"/>
      <point x="292" y="563"/>
      <point x="292" y="457" type="curve" smooth="yes"/>
      <point x="292" y="361"/>
      <point x="408" y="361"/>
      <point x="477" y="360" type="curve"/>
      <point x="467" y="324" type="line"/>
      <point x="347" y="324"/>
      <point x="186" y="301"/>
      <point x="186" y="144" type="curve" smooth="yes"/>
      <point x="186" y="63"/>
      <point x="259" y="34"/>
      <point x="329" y="34" type="curve" smooth="yes"/>
      <point x="424" y="34"/>
      <point x="520" y="87"/>
      <point x="591" y="147" type="curve"/>
      <point x="613" y="121" type="line"/>
      <point x="515" y="39"/>
      <point x="415" y="-14"/>
      <point x="284" y="-14" type="curve" smooth="yes"/>
      <point x="188" y="-14"/>
      <point x="74" y="21"/>
      <point x="74" y="136" type="curve" smooth="yes"/>
      <point x="74" y="265"/>
      <point x="209" y="342"/>
      <point x="324" y="348" type="curve"/>
      <point x="324" y="350" type="line"/>
      <point x="259" y="360"/>
      <point x="190" y="393"/>
      <point x="190" y="468" type="curve" smooth="yes"/>
      <point x="190" y="602"/>
      <point x="344" y="667"/>
      <point x="457" y="667" type="curve" smooth="yes"/>
      <point x="543" y="667"/>
      <point x="610" y="624"/>
      <point x="650" y="624" type="curve" smooth="yes"/>
      <point x="673" y="624"/>
      <point x="683" y="649"/>
      <point x="690" y="667" type="curve"/>
    </contour>
  </outline>
</glyph>
<glyph name="uni019F" format="1">
  <advance width="721"/>
  <unicode hex="019F"/>
  <outline>
    <contour>
      <point x="465" y="633" type="curve" smooth="yes"/>
      <point x="392" y="633"/>
      <point x="331" y="595"/>
      <point x="275" y="514" type="curve" smooth="yes"/>
      <point x="245" y="470"/>
      <point x="217" y="410"/>
      <point x="197" y="350" type="curve"/>
      <point x="576" y="350" type="line"/>
      <point x="588" y="396"/>
      <point x="594" y="441"/>
      <point x="594" y="481" type="curve" smooth="yes"/>
      <point x="594" y="575"/>
      <point x="544" y="633"/>
    </contour>
    <contour>
      <point x="474" y="666" type="curve" smooth="yes"/>
      <point x="608" y="666"/>
      <point x="699" y="564"/>
      <point x="699" y="424" type="curve" smooth="yes"/>
      <point x="699" y="220"/>
      <point x="504" y="-18"/>
      <point x="278" y="-18" type="curve" smooth="yes"/>
      <point x="151" y="-18"/>
      <point x="60" y="81"/>
      <point x="60" y="221" type="curve" smooth="yes"/>
      <point x="60" y="338"/>
      <point x="119" y="460"/>
      <point x="220" y="553" type="curve" smooth="yes"/>
      <point x="300" y="626"/>
      <point x="390" y="666"/>
    </contour>
    <contour>
      <point x="564" y="308" type="curve"/>
      <point x="184" y="308" type="line"/>
      <point x="172" y="263"/>
      <point x="165" y="220"/>
      <point x="165" y="184" type="curve" smooth="yes"/>
      <point x="165" y="76"/>
      <point x="211" y="15"/>
      <point x="295" y="15" type="curve" smooth="yes"/>
      <point x="365" y="15"/>
      <point x="427" y="54"/>
      <point x="482" y="133" type="curve" smooth="yes"/>
      <point x="516" y="182"/>
      <point x="544" y="244"/>
    </contour>
  </outline>
</glyph>
<glyph name="Uhorn" format="1">
  <advance width="722"/>
  <unicode hex="01AF"/>
  <outline>
    <contour>
      <point x="699" y="635" type="curve"/>
      <point x="578" y="203" type="line" smooth="yes"/>
      <point x="540" y="66"/>
      <point x="465" y="-18"/>
      <point x="315" y="-18" type="curve" smooth="yes"/>
      <point x="214" y="-18"/>
      <point x="102" y="37"/>
      <point x="102" y="151" type="curve" smooth="yes"/>
      <point x="102" y="228"/>
      <point x="154" y="394"/>
      <point x="176" y="473" type="curve" smooth="yes"/>
      <point x="184" y="499"/>
      <point x="205" y="569"/>
      <point x="205" y="594" type="curve" smooth="yes"/>
      <point x="205" y="637"/>
      <point x="159" y="635"/>
      <point x="127" y="637" type="curve"/>
      <point x="127" y="653" type="line"/>
      <point x="400" y="653" type="line"/>
      <point x="400" y="637" type="line"/>
      <point x="340" y="631"/>
      <point x="318" y="618"/>
      <point x="299" y="559" type="curve" smooth="yes"/>
      <point x="276" y="491"/>
      <point x="192" y="198"/>
      <point x="192" y="144" type="curve" smooth="yes"/>
      <point x="192" y="63"/>
      <point x="256" y="23"/>
      <point x="331" y="23" type="curve" smooth="yes"/>
      <point x="464" y="23"/>
      <point x="515" y="130"/>
      <point x="546" y="241" type="curve" smooth="yes"/>
      <point x="561" y="293"/>
      <point x="637" y="556"/>
      <point x="637" y="586" type="curve" smooth="yes"/>
      <point x="637" y="630"/>
      <point x="601" y="635"/>
      <point x="566" y="637" type="curve"/>
      <point x="566" y="653" type="line"/>
      <point x="704" y="653" type="line" smooth="yes"/>
      <point x="709" y="653"/>
      <point x="750" y="658"/>
      <point x="750" y="686" type="curve" smooth="yes"/>
      <point x="750" y="695"/>
      <point x="745" y="700"/>
      <point x="741" y="709" type="curve" smooth="yes"/>
      <point x="739" y="714"/>
      <point x="733" y="723"/>
      <point x="733" y="737" type="curve" smooth="yes"/>
      <point x="733" y="761"/>
      <point x="752" y="780"/>
      <point x="778" y="780" type="curve" smooth="yes"/>
      <point x="805" y="780"/>
      <point x="825" y="760"/>
      <point x="825" y="734" type="curve" smooth="yes"/>
      <point x="825" y="660"/>
      <point x="730" y="639"/>
    </contour>
  </outline>
</glyph>
<glyph name="uni01C6" format="1">
  <advance width="888"/>
  <unicode hex="01C6"/>
  <outline>
    <contour>
      <point x="769" y="-81" type="curve" smooth="yes"/>
      <point x="693" y="-81"/>
      <point x="622" y="5"/>
      <point x="553" y="5" type="curve" smooth="yes"/>
      <point x="536" y="5"/>
      <point x="523" y="0"/>
      <point x="507" y="-13" type="curve"/>
      <point x="498" y="-4" type="line"/>
      <point x="808" y="368" type="line"/>
      <point x="662" y="368" type="line" smooth="yes"/>
      <point x="615" y="368"/>
      <point x="602" y="359"/>
      <point x="581" y="309" type="curve"/>
      <point x="565" y="313" type="line"/>
      <point x="596" y="428" type="line"/>
      <point x="880" y="428" type="line"/>
      <point x="880" y="417" type="line"/>
      <point x="590" y="73" type="line"/>
      <point x="648" y="60"/>
      <point x="667" y="47"/>
      <point x="711" y="-10" type="curve" smooth="yes"/>
      <point x="744" y="-52"/>
      <point x="756" y="-60"/>
      <point x="781" y="-60" type="curve" smooth="yes"/>
      <point x="797" y="-60"/>
      <point x="808" y="-54"/>
      <point x="808" y="-45" type="curve" smooth="yes"/>
      <point x="808" y="-35"/>
      <point x="794" y="-20"/>
      <point x="794" y="0" type="curve" smooth="yes"/>
      <point x="794" y="18"/>
      <point x="808" y="31"/>
      <point x="828" y="31" type="curve" smooth="yes"/>
      <point x="849" y="31"/>
      <point x="863" y="16"/>
      <point x="863" y="-5" type="curve" smooth="yes"/>
      <point x="863" y="-45"/>
      <point x="819" y="-81"/>
    </contour>
    <contour>
      <point x="954" y="661" type="line"/>
      <point x="791" y="492" type="line"/>
      <point x="745" y="492" type="line"/>
      <point x="649" y="661" type="line"/>
      <point x="686" y="661" type="line"/>
      <point x="776" y="556" type="line"/>
      <point x="918" y="661" type="line"/>
    </contour>
    <contour>
      <point x="527" y="678" type="line"/>
      <point x="506" y="592"/>
      <point x="363" y="100"/>
      <point x="363" y="62" type="curve" smooth="yes"/>
      <point x="363" y="51"/>
      <point x="369" y="40"/>
      <point x="381" y="40" type="curve" smooth="yes"/>
      <point x="407" y="40"/>
      <point x="448" y="94"/>
      <point x="463" y="111" type="curve"/>
      <point x="475" y="101" type="line"/>
      <point x="451" y="64"/>
      <point x="383" y="-13"/>
      <point x="334" y="-13" type="curve" smooth="yes"/>
      <point x="304" y="-13"/>
      <point x="287" y="3"/>
      <point x="287" y="33" type="curve" smooth="yes"/>
      <point x="287" y="60"/>
      <point x="293" y="87"/>
      <point x="299" y="114" type="curve"/>
      <point x="297" y="116" type="line"/>
      <point x="255" y="51"/>
      <point x="202" y="-11"/>
      <point x="119" y="-11" type="curve" smooth="yes"/>
      <point x="47" y="-11"/>
      <point x="15" y="41"/>
      <point x="15" y="107" type="curve" smooth="yes"/>
      <point x="15" y="236"/>
      <point x="167" y="441"/>
      <point x="304" y="441" type="curve" smooth="yes"/>
      <point x="344" y="441"/>
      <point x="365" y="425"/>
      <point x="371" y="386" type="curve"/>
      <point x="373" y="388" type="line"/>
      <point x="382" y="421"/>
      <point x="431" y="581"/>
      <point x="431" y="614" type="curve" smooth="yes"/>
      <point x="431" y="640.561"/>
      <point x="407.03" y="643.152"/>
      <point x="384.641" y="643.152" type="curve" smooth="yes"/>
      <point x="379.213" y="643.152"/>
      <point x="373.878" y="643"/>
      <point x="369" y="643" type="curve"/>
      <point x="369" y="660" type="line"/>
      <point x="420" y="665"/>
      <point x="472" y="672"/>
      <point x="522" y="683" type="curve"/>
    </contour>
    <contour>
      <point x="356" y="351" type="curve" smooth="yes"/>
      <point x="356" y="384"/>
      <point x="351" y="418"/>
      <point x="309" y="418" type="curve" smooth="yes"/>
      <point x="199" y="418"/>
      <point x="102" y="205"/>
      <point x="102" y="111" type="curve" smooth="yes"/>
      <point x="102" y="70"/>
      <point x="116" y="37"/>
      <point x="163" y="37" type="curve" smooth="yes"/>
      <point x="275" y="37"/>
      <point x="356" y="260"/>
    </contour>
  </outline>
</glyph>
